<?xml version="1.0" encoding="UTF-8" standalone="no"?><!-- Generator: Gravit.io --><svg xmlns="http://www.w3.org/2000/svg" xmlns:xlink="http://www.w3.org/1999/xlink" style="isolation:isolate" viewBox="0 0 64 64" width="64pt" height="64pt"><defs><clipPath id="_clipPath_yxagZ1EiWbWp3GR3PgaeIa26A8Ux7y1p"><rect width="64" height="64"/></clipPath></defs><g clip-path="url(#_clipPath_yxagZ1EiWbWp3GR3PgaeIa26A8Ux7y1p)"><clipPath id="_clipPath_c0QPFYhWx8YOla46pOUKAlvOP23NWNmK"><rect x="0" y="-1" width="64" height="64" transform="matrix(1,0,0,1,0,0)" fill="rgb(255,255,255)"/></clipPath><g clip-path="url(#_clipPath_c0QPFYhWx8YOla46pOUKAlvOP23NWNmK)"><g><clipPath id="_clipPath_tGD3dJQAliHpsexxGBowM4COV4oTslGb"><rect x="0" y="1" width="64" height="64" transform="matrix(1,0,0,1,0,0)" fill="rgb(255,255,255)"/></clipPath><g clip-path="url(#_clipPath_tGD3dJQAliHpsexxGBowM4COV4oTslGb)"><g><g><clipPath id="_clipPath_zVrPjPvYaA6un4GBNXR0p3K7PGBDpXU4"><rect x="0" y="1" width="64" height="64" transform="matrix(1,0,0,1,0,0)" fill="rgb(255,255,255)"/></clipPath><g clip-path="url(#_clipPath_zVrPjPvYaA6un4GBNXR0p3K7PGBDpXU4)"><g><g><g><g><g style="opacity:0.1;"><g style="opacity:0.1;"><g style="opacity:0.1;"><g opacity="0.1"><linearGradient id="_lgradient_36" x1="0" y1="0.5000000000000001" x2="0.01334469191355378" y2="1.3494703311117187" gradientTransform="matrix(50.58,0,0,46.62,7.5,9.5)" gradientUnits="userSpaceOnUse"><stop offset="0.18630601431520652%" stop-opacity="0.58823532" style="stop-color:rgb(0,0,0)"/><stop offset="98.4471675762865%" stop-opacity="1" style="stop-color:rgb(0,0,0)"/></linearGradient><path d=" M 17.616 9.5 L 47.964 9.5 C 53.547 9.5 58.08 14.033 58.08 19.617 L 58.08 46.003 C 58.08 51.587 53.547 56.12 47.964 56.12 L 17.616 56.12 C 12.033 56.12 7.5 51.587 7.5 46.003 L 7.5 19.617 C 7.5 14.033 12.033 9.5 17.616 9.5 Z " fill="url(#_lgradient_36)"/></g></g></g></g><g style="opacity:0.07999998;"><g style="opacity:0.07999998;"><g style="opacity:0.07999998;"><g opacity="0.07999998"><linearGradient id="_lgradient_37" x1="0" y1="0.49999999999999994" x2="0.01334671240495025" y2="1.3492130878222612" gradientTransform="matrix(51,0,0,47,7.5,9.5)" gradientUnits="userSpaceOnUse"><stop offset="0.18624834112716374%" stop-opacity="0.58823532" style="stop-color:rgb(0,0,0)"/><stop offset="98.44710274597503%" stop-opacity="1" style="stop-color:rgb(0,0,0)"/></linearGradient><path d=" M 17.7 9.5 L 48.3 9.5 C 53.93 9.5 58.5 14.07 58.5 19.7 L 58.5 46.3 C 58.5 51.93 53.93 56.5 48.3 56.5 L 17.7 56.5 C 12.07 56.5 7.5 51.93 7.5 46.3 L 7.5 19.7 C 7.5 14.07 12.07 9.5 17.7 9.5 Z " fill="url(#_lgradient_37)"/></g></g></g></g><g style="opacity:0.2;"><g style="opacity:0.2;"><g style="opacity:0.2;"><g opacity="0.2"><linearGradient id="_lgradient_38" x1="0" y1="0.49999999999999983" x2="0.013348183958932447" y2="1.349025807219264" gradientTransform="matrix(50.17,0,0,46.23,7.5,9.5)" gradientUnits="userSpaceOnUse"><stop offset="0.1862041069120243%" stop-opacity="0.58823532" style="stop-color:rgb(0,0,0)"/><stop offset="98.44706334224627%" stop-opacity="1" style="stop-color:rgb(0,0,0)"/></linearGradient><path d=" M 17.534 9.5 L 47.636 9.5 C 53.174 9.5 57.67 13.996 57.67 19.533 L 57.67 45.697 C 57.67 51.234 53.174 55.73 47.636 55.73 L 17.534 55.73 C 11.996 55.73 7.5 51.234 7.5 45.697 L 7.5 19.533 C 7.5 13.996 11.996 9.5 17.534 9.5 Z " fill="url(#_lgradient_38)"/></g></g></g></g><g style="opacity:0.25;"><g style="opacity:0.25;"><g style="opacity:0.25;"><g opacity="0.25"><linearGradient id="_lgradient_39" x1="0" y1="0.49999999999999994" x2="0.013346141731824912" y2="1.3492857324826617" gradientTransform="matrix(49.75,0,0,45.85,7.5,9.5)" gradientUnits="userSpaceOnUse"><stop offset="0.18626232801088585%" stop-opacity="0.58823532" style="stop-color:rgb(0,0,0)"/><stop offset="98.44712888034117%" stop-opacity="1" style="stop-color:rgb(0,0,0)"/></linearGradient><path d=" M 17.45 9.5 L 47.3 9.5 C 52.792 9.5 57.25 13.959 57.25 19.45 L 57.25 45.4 C 57.25 50.891 52.792 55.35 47.3 55.35 L 17.45 55.35 C 11.958 55.35 7.5 50.891 7.5 45.4 L 7.5 19.45 C 7.5 13.959 11.958 9.5 17.45 9.5 Z " fill="url(#_lgradient_39)"/></g></g></g></g><g style="opacity:0.25;"><g style="opacity:0.25;"><g style="opacity:0.25;"><g opacity="0.25"><linearGradient id="_lgradient_40" x1="0" y1="0.5000000000000001" x2="0.013345620265453828" y2="1.3493521214466424" gradientTransform="matrix(49.39,0,0,45.52,7.5,9.5)" gradientUnits="userSpaceOnUse"><stop offset="0.18626984751099004%" stop-opacity="0.58823532" style="stop-color:rgb(0,0,0)"/><stop offset="98.44714168397674%" stop-opacity="1" style="stop-color:rgb(0,0,0)"/></linearGradient><path d=" M 17.378 9.5 L 47.012 9.5 C 52.464 9.5 56.89 13.926 56.89 19.379 L 56.89 45.141 C 56.89 50.594 52.464 55.02 47.012 55.02 L 17.378 55.02 C 11.926 55.02 7.5 50.594 7.5 45.141 L 7.5 19.379 C 7.5 13.926 11.926 9.5 17.378 9.5 Z " fill="url(#_lgradient_40)"/></g></g></g></g></g><linearGradient id="_lgradient_41" x1="1.2953621300876799" y1="0.04783678033367311" x2="1.2966379132320602" y2="0.14148514045186522" gradientTransform="matrix(49.027,0,0,45.181,7.5,9.5)" gradientUnits="userSpaceOnUse"><stop offset="0%" stop-opacity="1" style="stop-color:rgb(218,185,128)"/><stop offset="71.691591%" stop-opacity="1" style="stop-color:rgb(194,152,86)"/><stop offset="100%" stop-opacity="1" style="stop-color:rgb(162,119,58)"/></linearGradient><path d=" M 17.715 9.5 C 12.056 9.5 7.5 13.699 7.5 18.914 L 7.5 21.121 L 7.5 45.268 C 7.5 50.482 12.056 54.681 17.715 54.681 L 46.312 54.681 C 51.97 54.681 56.527 50.482 56.527 45.268 L 56.527 21.121 L 56.527 18.914 C 56.527 13.699 51.97 9.5 46.312 9.5 L 17.715 9.5 L 17.715 9.5 Z " fill="url(#_lgradient_41)"/><g style="opacity:0.3;"><g style="opacity:0.3;"><g style="opacity:0.3;"><g opacity="0.3"><linearGradient id="_lgradient_42" x1="0.46578771911277117" y1="0.002898908898305075" x2="0.455928738150691" y2="0.5206120735069311" gradientTransform="matrix(49.027,0,0,45.181,7.5,9.5)" gradientUnits="userSpaceOnUse"><stop offset="0%" stop-opacity="1" style="stop-color:rgb(255,255,255)"/><stop offset="100%" stop-opacity="0" style="stop-color:rgb(255,255,255)"/></linearGradient><path d=" M 17.712 9.5 C 12.053 9.5 7.5 13.696 7.5 18.911 L 7.5 45.268 C 7.5 50.482 12.053 54.681 17.712 54.681 L 18.017 54.681 C 12.478 54.681 8.019 50.572 8.019 45.468 L 8.019 19.671 C 8.019 14.566 12.478 10.457 18.017 10.457 L 46.01 10.457 C 51.548 10.457 56.007 14.566 56.007 19.671 L 56.007 45.468 C 56.007 50.572 51.548 54.681 46.01 54.681 L 46.312 54.681 C 51.97 54.681 56.527 50.482 56.527 45.268 L 56.527 18.911 C 56.527 13.696 51.97 9.5 46.312 9.5 L 17.712 9.5 L 17.712 9.5 L 17.712 9.5 Z " fill="url(#_lgradient_42)"/></g></g></g></g><linearGradient id="_lgradient_43" x1="1.5714285067796607" y1="0.8766044145361522" x2="1.5714285067796607" y2="0.02628578921519764" gradientTransform="matrix(49.027,0,0,39.758,7.5,14.923)" gradientUnits="userSpaceOnUse"><stop offset="0%" stop-opacity="1" style="stop-color:rgb(195,163,115)"/><stop offset="100%" stop-opacity="1" style="stop-color:rgb(221,192,139)"/></linearGradient><path d=" M 12.388 14.923 C 9.874 14.923 7.5 16.75 7.5 19.048 L 7.5 30.14 L 7.5 32.144 L 7.5 41.352 L 7.5 45.268 C 7.5 50.482 12.056 54.681 17.715 54.681 L 46.312 54.681 C 51.97 54.681 56.527 50.482 56.527 45.268 L 56.527 41.352 L 56.527 32.144 L 56.527 30.14 L 56.527 22.082 C 56.527 19.783 54.464 17.957 51.638 17.957 L 27.154 17.957 C 25.22 16.107 25.066 15.226 23.084 14.923 L 12.388 14.923 L 12.388 14.923 Z " fill="url(#_lgradient_43)"/><g style="opacity:0.2;"><g style="opacity:0.2;"><g style="opacity:0.2;"><g opacity="0.2"><linearGradient id="_lgradient_44" x1="0.4501308368366872" y1="0.9873156779661018" x2="0.4481003287923033" y2="0.6365573443671644" gradientTransform="matrix(49.027,0,0,45.181,7.5,9.5)" gradientUnits="userSpaceOnUse"><stop offset="0%" stop-opacity="1" style="stop-color:rgb(0,0,0)"/><stop offset="100%" stop-opacity="0.2" style="stop-color:rgb(255,255,255)"/></linearGradient><path d=" M 17.712 54.681 C 12.053 54.681 7.5 50.485 7.5 45.27 L 7.5 18.914 C 7.5 13.699 12.053 9.5 17.712 9.5 L 18.017 9.5 C 12.478 9.5 8.019 13.609 8.019 18.713 L 8.019 44.511 C 8.019 49.615 12.478 53.724 18.017 53.724 L 46.01 53.724 C 51.548 53.724 56.007 49.615 56.007 44.511 L 56.007 18.713 C 56.007 13.609 51.548 9.5 46.01 9.5 L 46.312 9.5 C 51.97 9.5 56.527 13.699 56.527 18.914 L 56.527 45.27 C 56.527 50.485 51.97 54.681 46.312 54.681 L 17.712 54.681 L 17.712 54.681 L 17.712 54.681 Z " fill="url(#_lgradient_44)"/></g></g></g></g><clipPath id="_clipPath_sX2fv1F1t40oBIp8Me9cgZaYRaTKkxzF"><path d=" M 664.877 120.55 L 1073.883 120.55 C 1091.267 120.55 1105.38 134.663 1105.38 152.047 L 1105.38 442.163 C 1105.38 459.547 1091.267 473.66 1073.883 473.66 L 664.877 473.66 C 647.493 473.66 633.38 459.547 633.38 442.163 L 633.38 152.047 C 633.38 134.663 647.493 120.55 664.877 120.55 Z " fill="rgb(255,255,255)"/></clipPath><g clip-path="url(#_clipPath_sX2fv1F1t40oBIp8Me9cgZaYRaTKkxzF)"><g><g><g><g style="opacity:0.15;" filter="url(#eHorBTjDJ9haRBk80tvhbWxJrxpExHCV)"><g style="opacity:0.15;"><g style="opacity:0.15;"><g opacity="0.15"><linearGradient id="_lgradient_45" x1="0.5002895479566405" y1="0.006822888653235104" x2="0.5002895479566403" y2="1.0002142439024402" gradientTransform="matrix(7.48,0,0,6.838,598.734,31.303)" gradientUnits="userSpaceOnUse"><stop offset="0%" stop-opacity="1" style="stop-color:rgb(255,255,255)"/><stop offset="100%" stop-opacity="0" style="stop-color:rgb(255,255,255)"/></linearGradient><path d=" M 599.277 31.303 C 598.993 31.304 598.735 31.604 598.734 31.934 L 598.734 37.51 C 598.735 37.841 598.993 38.141 599.277 38.141 L 605.672 38.141 C 605.956 38.141 606.214 37.841 606.214 37.51 L 606.214 31.934 C 606.214 31.604 605.956 31.304 605.672 31.303 L 599.277 31.303 L 599.277 31.303 Z " fill="url(#_lgradient_45)"/></g></g></g></g><defs><filter id="eHorBTjDJ9haRBk80tvhbWxJrxpExHCV" x="-200%" y="-200%" width="400%" height="400%" filterUnits="objectBoundingBox" color-interpolation-filters="sRGB"><feGaussianBlur xmlns="http://www.w3.org/2000/svg" stdDeviation="0.9531511827795122"/></filter></defs></g></g></g></g><g style="opacity:0.35;"><g style="opacity:0.35;"><g style="opacity:0.35;"><g opacity="0.35"><linearGradient id="_lgradient_46" x1="0.15577008441859788" y1="0.42791133180980445" x2="0.15577008441859733" y2="0.4423766392663589" gradientTransform="matrix(49.027,0,0,8.116,7.5,14.923)" gradientUnits="userSpaceOnUse"><stop offset="0%" stop-opacity="1" style="stop-color:rgb(255,255,255)"/><stop offset="100%" stop-opacity="0" style="stop-color:rgb(255,255,255)"/></linearGradient><path d=" M 12.388 14.923 C 9.874 14.923 7.5 16.75 7.5 19.048 L 7.5 20.006 C 7.5 17.707 9.874 15.881 12.388 15.881 L 23.084 15.881 C 25.066 16.183 25.22 17.064 27.154 18.914 L 51.638 18.914 C 54.464 18.914 56.527 20.74 56.527 23.039 L 56.527 22.082 C 56.527 19.783 54.464 17.957 51.638 17.957 L 27.154 17.957 C 25.22 16.107 25.066 15.226 23.084 14.923 L 12.388 14.923 L 12.388 14.923 Z " fill="url(#_lgradient_46)"/></g></g></g></g><linearGradient id="_lgradient_47" x1="1.5714285491525424" y1="0.8623194487575553" x2="1.5714285491525424" y2="-0.08643683474990005" gradientTransform="matrix(472,0,0,372.25,588,120.75)" gradientUnits="userSpaceOnUse"><stop offset="0%" stop-opacity="1" style="stop-color:rgb(194,150,86)"/><stop offset="100%" stop-opacity="1" style="stop-color:rgb(221,192,139)"/></linearGradient><path d=" M 588 120.75 L 588 236.625 L 588 257.563 L 588 353.75 L 588 394.656 C 588 449.133 631.867 493 686.344 493 L 961.656 493 C 1016.133 493 1060 449.133 1060 394.656 L 1060 353.75 L 1060 257.563 L 1060 236.625 L 1060 152.438 C 1060 128.422 1040.141 120.75 1012.938 120.75 L 777.219 120.75 L 588 120.75 L 588 120.75 Z " fill="url(#_lgradient_47)"/><path d=" M 22.53 24.569 C 22.046 24.568 21.606 24.917 21.606 25.3 L 21.606 36.684 C 19.763 36.519 18.108 36.291 16.338 36.094 C 16.291 36.089 16.243 36.088 16.196 36.091 C 15.936 36.103 15.69 36.239 15.584 36.428 C 15.479 36.617 15.516 36.85 15.679 37.012 L 26.16 47.357 C 26.223 47.418 26.288 47.476 26.362 47.519 L 35.402 54.681 L 44.108 54.681 C 50.987 54.681 56.527 50.294 56.527 44.847 L 56.527 44.575 L 31.642 24.869 C 31.468 24.691 31.201 24.568 30.915 24.569 L 22.53 24.569 Z " fill="rgb(0,0,0)" fill-opacity="0.23529412"/><path d=" M 28.563 34.857 C 28.165 34.857 27.803 34.644 27.804 34.412 L 27.804 27.488 C 26.287 27.589 24.926 27.727 23.47 27.847 C 23.432 27.85 23.392 27.851 23.353 27.849 C 23.139 27.841 22.938 27.759 22.851 27.644 C 22.764 27.529 22.795 27.387 22.928 27.288 L 31.549 20.998 C 31.674 20.906 31.805 20.826 32.046 20.868 C 32.25 20.907 33.351 21.642 33.815 21.98 C 34.623 22.57 35.7 23.357 36.779 24.143 C 38.936 25.715 41.096 27.287 41.096 27.287 C 41.242 27.393 41.266 27.552 41.152 27.672 C 41.039 27.792 40.795 27.864 40.563 27.847 C 38.904 27.731 37.601 27.599 36.22 27.499 L 36.22 34.412 C 36.221 34.644 35.859 34.857 35.461 34.857 L 28.563 34.857 L 28.563 34.857 Z " fill="rgb(0,255,0)"/></g></g></g></g><path d=" M 28.372 49.483 L 27.273 49.483 L 28.589 46.151 L 25.705 46.151 L 25.705 45.269 L 29.73 45.269 L 29.73 45.92 L 28.372 49.483 L 28.372 49.483 Z  M 26.755 51.163 L 25.705 51.163 L 25.705 46.879 L 26.755 46.879 L 26.755 51.163 L 26.755 51.163 Z  M 24.79 49.483 L 23.74 49.483 L 23.74 45.269 L 24.79 45.269 L 24.79 49.483 L 24.79 49.483 Z  M 23.184 49.483 L 19.355 49.483 L 19.355 48.601 L 21.588 48.601 L 21.588 46.865 L 21.588 46.865 Q 21.588 46.473 21.448 46.312 L 21.448 46.312 L 21.448 46.312 Q 21.308 46.151 20.979 46.151 L 20.979 46.151 L 19.355 46.151 L 19.355 45.269 L 21.021 45.269 L 21.021 45.269 Q 22.638 45.269 22.638 46.746 L 22.638 46.746 L 22.638 48.601 L 23.184 48.601 L 23.184 49.483 L 23.184 49.483 Z  M 17.231 51.163 L 16.181 51.163 L 16.181 47.915 L 15.201 45.269 L 16.3 45.269 L 17.105 47.572 L 17.294 47.516 L 17.294 47.516 Q 17.511 47.446 17.62 47.268 L 17.62 47.268 L 17.62 47.268 Q 17.728 47.089 17.756 46.739 L 17.756 46.739 L 17.896 45.269 L 18.946 45.269 L 18.82 46.641 L 18.82 46.641 Q 18.792 46.956 18.736 47.219 L 18.736 47.219 L 18.736 47.219 Q 18.68 47.481 18.551 47.695 L 18.551 47.695 L 18.551 47.695 Q 18.421 47.908 18.173 48.076 L 18.173 48.076 L 18.173 48.076 Q 17.924 48.244 17.511 48.37 L 17.511 48.37 L 17.231 48.454 L 17.231 51.163 L 17.231 51.163 Z  M 44.17 49.483 L 42.315 49.483 L 42.315 48.601 L 44.17 48.601 L 44.17 48.601 Q 44.66 48.601 44.923 48.335 L 44.923 48.335 L 44.923 48.335 Q 45.185 48.069 45.185 47.432 L 45.185 47.432 L 45.185 47.432 Q 45.185 46.774 44.891 46.463 L 44.891 46.463 L 44.891 46.463 Q 44.597 46.151 43.995 46.151 L 43.995 46.151 L 43.365 46.151 L 43.365 46.424 L 43.365 46.424 Q 43.365 46.704 43.428 46.844 L 43.428 46.844 L 43.428 46.844 Q 43.491 46.984 43.607 47.033 L 43.607 47.033 L 43.607 47.033 Q 43.722 47.082 43.869 47.082 L 43.869 47.082 L 43.869 47.082 Q 43.925 47.082 43.978 47.079 L 43.978 47.079 L 43.978 47.079 Q 44.03 47.075 44.079 47.068 L 44.079 47.068 L 44.079 47.95 L 44.079 47.95 Q 44.002 47.957 43.908 47.964 L 43.908 47.964 L 43.908 47.964 Q 43.813 47.971 43.736 47.971 L 43.736 47.971 L 43.736 47.971 Q 43.05 47.971 42.683 47.583 L 42.683 47.583 L 42.683 47.583 Q 42.315 47.194 42.315 46.48 L 42.315 46.48 L 42.315 45.269 L 44.065 45.269 L 44.065 45.269 Q 44.744 45.269 45.234 45.525 L 45.234 45.525 L 45.234 45.525 Q 45.724 45.78 45.99 46.26 L 45.99 46.26 L 45.99 46.26 Q 46.256 46.739 46.256 47.411 L 46.256 47.411 L 46.256 47.411 Q 46.256 48.076 45.997 48.538 L 45.997 48.538 L 45.997 48.538 Q 45.738 49 45.269 49.242 L 45.269 49.242 L 45.269 49.242 Q 44.8 49.483 44.17 49.483 L 44.17 49.483 L 44.17 49.483 Z  M 37.847 49.483 L 37.21 49.483 L 37.21 48.601 L 37.679 48.601 L 37.679 48.601 Q 37.784 48.601 37.851 48.531 L 37.851 48.531 L 37.851 48.531 Q 37.917 48.461 37.917 48.328 L 37.917 48.328 L 37.917 46.151 L 37.238 46.151 L 37.238 45.269 L 39.877 45.269 L 39.877 45.269 Q 41.494 45.269 41.494 46.746 L 41.494 46.746 L 41.494 49.483 L 40.444 49.483 L 40.444 46.865 L 40.444 46.865 Q 40.444 46.473 40.304 46.312 L 40.304 46.312 L 40.304 46.312 Q 40.164 46.151 39.835 46.151 L 39.835 46.151 L 38.967 46.151 L 38.967 48.209 L 38.967 48.209 Q 38.967 48.853 38.694 49.168 L 38.694 49.168 L 38.694 49.168 Q 38.421 49.483 37.847 49.483 L 37.847 49.483 L 37.847 49.483 Z  M 32.56 45.269 L 34.912 45.269 L 34.912 45.269 Q 36.529 45.269 36.529 46.746 L 36.529 46.746 L 36.529 49.483 L 35.479 49.483 L 35.479 46.865 L 35.479 46.865 Q 35.479 46.473 35.335 46.312 L 35.335 46.312 L 35.335 46.312 Q 35.192 46.151 34.87 46.151 L 34.87 46.151 L 33.61 46.151 L 33.61 49.483 L 32.56 49.483 L 32.56 45.269 L 32.56 45.269 Z " fill="rgb(255,255,255)"/></g></g></g></g></g></g></svg>