<?xml version="1.0" encoding="UTF-8" standalone="no"?><!-- Generator: Gravit.io --><svg xmlns="http://www.w3.org/2000/svg" xmlns:xlink="http://www.w3.org/1999/xlink" style="isolation:isolate" viewBox="0 0 64 60" width="64pt" height="60pt"><defs><clipPath id="_clipPath_8THHsEY4uOv0CkwMp5mhRg4Es7Dpzhrx"><rect width="64" height="60"/></clipPath></defs><g clip-path="url(#_clipPath_8THHsEY4uOv0CkwMp5mhRg4Es7Dpzhrx)"><path d=" M 4.347 14.818 C 3.379 14.818 2.6 15.598 2.6 16.566 L 2.6 55.743 C 2.6 56.711 3.379 57.491 4.347 57.491 L 41.968 57.491 C 42.936 57.491 43.715 56.711 43.715 55.743 L 43.715 20.579 L 37.927 14.819 L 4.347 14.819 L 4.347 14.818 Z " fill-rule="evenodd" fill="rgb(127,127,127)"/><path d=" M 11.36 14.924 L 11.36 25.844 C 11.36 26.96 12.34 27.858 13.558 27.858 L 28.327 27.858 C 29.544 27.858 30.525 26.96 30.525 25.844 L 30.525 14.924" fill-rule="evenodd" fill="rgb(191,191,191)" vector-effect="non-scaling-stroke" stroke-width="1.875" stroke="rgb(76,76,76)" stroke-linejoin="miter" stroke-linecap="butt" stroke-miterlimit="4"/><path d="M 15.483 17.63 L 18.607 17.63 C 19.243 17.63 19.76 18.147 19.76 18.785 L 19.76 23.935 C 19.76 24.573 19.243 25.09 18.607 25.09 L 15.483 25.09 C 14.847 25.09 14.33 24.573 14.33 23.935 L 14.33 18.785 C 14.33 18.147 14.847 17.63 15.483 17.63 Z" style="stroke:none;fill:#FFFFFF;stroke-miterlimit:10;"/><path d="M 15.483 17.63 L 18.607 17.63 C 19.243 17.63 19.76 18.147 19.76 18.785 L 19.76 23.935 C 19.76 24.573 19.243 25.09 18.607 25.09 L 15.483 25.09 C 14.847 25.09 14.33 24.573 14.33 23.935 L 14.33 18.785 C 14.33 18.147 14.847 17.63 15.483 17.63 Z" style="fill:none;stroke:#4C4C4C;stroke-width:1.249967476;stroke-miterlimit:2;"/><path d=" M 4.347 14.818 C 3.379 14.818 2.6 15.598 2.6 16.566 L 2.6 55.743 C 2.6 56.711 3.379 57.491 4.347 57.491 L 41.969 57.491 C 42.937 57.491 43.716 56.711 43.716 55.743 L 43.716 20.579 L 37.927 14.819 L 4.347 14.819 L 4.347 14.818 Z " fill="none" vector-effect="non-scaling-stroke" stroke-width="2.5" stroke="rgb(76,76,76)" stroke-linejoin="round" stroke-linecap="round" stroke-miterlimit="4"/><path d="M 8.405 31.47 L 37.925 31.47 C 38.806 31.47 39.52 32.185 39.52 33.065 L 39.52 52.295 C 39.52 53.175 38.806 53.89 37.925 53.89 L 8.405 53.89 C 7.524 53.89 6.81 53.175 6.81 52.295 L 6.81 33.065 C 6.81 32.185 7.524 31.47 8.405 31.47 Z" style="stroke:none;fill:#E8E8E8;stroke-miterlimit:2;"/><path d="M 8.405 31.47 L 37.925 31.47 C 38.806 31.47 39.52 32.185 39.52 33.065 L 39.52 52.295 C 39.52 53.175 38.806 53.89 37.925 53.89 L 8.405 53.89 C 7.524 53.89 6.81 53.175 6.81 52.295 L 6.81 33.065 C 6.81 32.185 7.524 31.47 8.405 31.47 Z" style="fill:none;stroke:#4C4C4C;stroke-width:1.25;stroke-linecap:round;stroke-linejoin:round;stroke-miterlimit:2;"/><path d=" M 57.417 3.215 C 48.389 23.019 33.099 23.027 32.954 23.027 L 32.954 16.474 L 24.144 27.031 L 33.027 35.914 L 33.027 29.288 C 33.027 29.288 54.214 32.489 57.417 3.215 Z " fill-rule="evenodd" fill="rgb(255,153,0)" vector-effect="non-scaling-stroke" stroke-width="3.583" stroke="rgb(93,93,93)" stroke-linejoin="round" stroke-linecap="round" stroke-miterlimit="4"/><path d=" M 30.177 46.844 L 28.087 46.844 L 27.567 40.924 L 28.467 40.924 L 28.737 43.964 L 29.427 43.754 L 29.427 43.754 Q 29.837 43.624 30.042 43.319 L 30.042 43.319 L 30.042 43.319 Q 30.247 43.014 30.297 42.454 L 30.297 42.454 L 30.437 40.924 L 31.337 40.924 L 31.217 42.274 L 31.217 42.274 Q 31.167 42.844 31.052 43.279 L 31.052 43.279 L 31.052 43.279 Q 30.937 43.714 30.602 44.029 L 30.602 44.029 L 30.602 44.029 Q 30.267 44.344 29.557 44.554 L 29.557 44.554 L 28.807 44.774 L 28.917 46.014 L 30.177 46.014 L 30.177 46.014 Q 30.847 46.014 31.407 45.734 L 31.407 45.734 L 31.407 45.734 Q 31.967 45.454 32.327 44.854 L 32.327 44.854 L 32.327 44.854 Q 32.687 44.254 32.777 43.294 L 32.777 43.294 L 32.997 40.924 L 33.897 40.924 L 33.677 43.294 L 33.677 43.294 Q 33.647 43.674 33.537 44.149 L 33.537 44.149 L 33.537 44.149 Q 33.427 44.624 33.197 45.094 L 33.197 45.094 L 33.197 45.094 Q 32.967 45.564 32.577 45.964 L 32.577 45.964 L 32.577 45.964 Q 32.187 46.364 31.597 46.604 L 31.597 46.604 L 31.597 46.604 Q 31.007 46.844 30.177 46.844 L 30.177 46.844 L 30.177 46.844 Z  M 24.667 40.804 L 24.667 40.804 L 24.667 40.804 Q 25.707 40.804 26.262 41.369 L 26.262 41.369 L 26.262 41.369 Q 26.817 41.934 26.817 42.834 L 26.817 42.834 L 26.817 46.844 L 24.217 46.844 L 24.217 46.014 L 25.917 46.014 L 25.917 42.974 L 25.917 42.974 Q 25.917 42.354 25.602 41.974 L 25.602 41.974 L 25.602 41.974 Q 25.287 41.594 24.607 41.594 L 24.607 41.594 L 24.607 41.594 Q 23.817 41.594 23.417 42.129 L 23.417 42.129 L 23.417 42.129 Q 23.017 42.664 22.917 43.574 L 22.917 43.574 L 22.567 46.844 L 21.667 46.844 L 22.117 42.744 L 21.717 40.924 L 22.617 40.924 L 22.787 41.764 L 22.817 41.764 L 22.817 41.764 Q 22.987 41.514 23.227 41.294 L 23.227 41.294 L 23.227 41.294 Q 23.467 41.074 23.812 40.939 L 23.812 40.939 L 23.812 40.939 Q 24.157 40.804 24.667 40.804 Z  M 19.917 46.844 L 19.017 46.844 L 19.017 40.924 L 19.917 40.924 L 19.917 46.844 L 19.917 46.844 Z  M 17.787 46.844 L 16.887 46.844 L 16.887 42.994 L 16.887 42.994 Q 16.887 42.294 16.577 42.024 L 16.577 42.024 L 16.577 42.024 Q 16.267 41.754 15.717 41.754 L 15.717 41.754 L 13.317 41.754 L 13.317 40.924 L 15.777 40.924 L 15.777 40.924 Q 16.797 40.924 17.292 41.374 L 17.292 41.374 L 17.292 41.374 Q 17.787 41.824 17.787 42.814 L 17.787 42.814 L 17.787 46.844 L 17.787 46.844 Z " fill="rgb(0,0,0)"/></g></svg>