<?xml version="1.0" encoding="UTF-8" standalone="no"?><!-- Generator: Gravit.io --><svg xmlns="http://www.w3.org/2000/svg" xmlns:xlink="http://www.w3.org/1999/xlink" style="isolation:isolate" viewBox="0 0 64 64" width="64pt" height="64pt"><defs><clipPath id="_clipPath_vNj2nj4BRjNNw6gvr6je81A5E1FQuMgM"><rect width="64" height="64"/></clipPath></defs><g clip-path="url(#_clipPath_vNj2nj4BRjNNw6gvr6je81A5E1FQuMgM)"><clipPath id="_clipPath_66eWenl19SJK0CGCzpJlUTwOi1PuZnEm"><rect x="0" y="-1" width="64" height="64" transform="matrix(1,0,0,1,0,0)" fill="rgb(255,255,255)"/></clipPath><g clip-path="url(#_clipPath_66eWenl19SJK0CGCzpJlUTwOi1PuZnEm)"><g><clipPath id="_clipPath_s5hJAkzMFARMijVio2EbmN7WmYyA1UdQ"><rect x="0" y="1" width="64" height="64" transform="matrix(1,0,0,1,0,0)" fill="rgb(255,255,255)"/></clipPath><g clip-path="url(#_clipPath_s5hJAkzMFARMijVio2EbmN7WmYyA1UdQ)"><g><g><clipPath id="_clipPath_X1ThZb0Ha4FZjb7UOhbySMoDsz81eWWk"><rect x="0" y="1" width="64" height="64" transform="matrix(1,0,0,1,0,0)" fill="rgb(255,255,255)"/></clipPath><g clip-path="url(#_clipPath_X1ThZb0Ha4FZjb7UOhbySMoDsz81eWWk)"><g><g><g><g><g style="opacity:0.1;"><g style="opacity:0.1;"><g style="opacity:0.1;"><g opacity="0.1"><linearGradient id="_lgradient_48" x1="0" y1="0.5000000000000001" x2="0.01334469191355378" y2="1.3494703311117187" gradientTransform="matrix(50.58,0,0,46.62,7.5,9.5)" gradientUnits="userSpaceOnUse"><stop offset="0.18630601431520652%" stop-opacity="0.58823532" style="stop-color:rgb(0,0,0)"/><stop offset="98.4471675762865%" stop-opacity="1" style="stop-color:rgb(0,0,0)"/></linearGradient><path d=" M 17.616 9.5 L 47.964 9.5 C 53.547 9.5 58.08 14.033 58.08 19.617 L 58.08 46.003 C 58.08 51.587 53.547 56.12 47.964 56.12 L 17.616 56.12 C 12.033 56.12 7.5 51.587 7.5 46.003 L 7.5 19.617 C 7.5 14.033 12.033 9.5 17.616 9.5 Z " fill="url(#_lgradient_48)"/></g></g></g></g><g style="opacity:0.07999998;"><g style="opacity:0.07999998;"><g style="opacity:0.07999998;"><g opacity="0.07999998"><linearGradient id="_lgradient_49" x1="0" y1="0.49999999999999994" x2="0.01334671240495025" y2="1.3492130878222612" gradientTransform="matrix(51,0,0,47,7.5,9.5)" gradientUnits="userSpaceOnUse"><stop offset="0.18624834112716374%" stop-opacity="0.58823532" style="stop-color:rgb(0,0,0)"/><stop offset="98.44710274597503%" stop-opacity="1" style="stop-color:rgb(0,0,0)"/></linearGradient><path d=" M 17.7 9.5 L 48.3 9.5 C 53.93 9.5 58.5 14.07 58.5 19.7 L 58.5 46.3 C 58.5 51.93 53.93 56.5 48.3 56.5 L 17.7 56.5 C 12.07 56.5 7.5 51.93 7.5 46.3 L 7.5 19.7 C 7.5 14.07 12.07 9.5 17.7 9.5 Z " fill="url(#_lgradient_49)"/></g></g></g></g><g style="opacity:0.2;"><g style="opacity:0.2;"><g style="opacity:0.2;"><g opacity="0.2"><linearGradient id="_lgradient_50" x1="0" y1="0.49999999999999983" x2="0.013348183958932447" y2="1.349025807219264" gradientTransform="matrix(50.17,0,0,46.23,7.5,9.5)" gradientUnits="userSpaceOnUse"><stop offset="0.1862041069120243%" stop-opacity="0.58823532" style="stop-color:rgb(0,0,0)"/><stop offset="98.44706334224627%" stop-opacity="1" style="stop-color:rgb(0,0,0)"/></linearGradient><path d=" M 17.534 9.5 L 47.636 9.5 C 53.174 9.5 57.67 13.996 57.67 19.533 L 57.67 45.697 C 57.67 51.234 53.174 55.73 47.636 55.73 L 17.534 55.73 C 11.996 55.73 7.5 51.234 7.5 45.697 L 7.5 19.533 C 7.5 13.996 11.996 9.5 17.534 9.5 Z " fill="url(#_lgradient_50)"/></g></g></g></g><g style="opacity:0.25;"><g style="opacity:0.25;"><g style="opacity:0.25;"><g opacity="0.25"><linearGradient id="_lgradient_51" x1="0" y1="0.49999999999999994" x2="0.013346141731824912" y2="1.3492857324826617" gradientTransform="matrix(49.75,0,0,45.85,7.5,9.5)" gradientUnits="userSpaceOnUse"><stop offset="0.18626232801088585%" stop-opacity="0.58823532" style="stop-color:rgb(0,0,0)"/><stop offset="98.44712888034117%" stop-opacity="1" style="stop-color:rgb(0,0,0)"/></linearGradient><path d=" M 17.45 9.5 L 47.3 9.5 C 52.792 9.5 57.25 13.959 57.25 19.45 L 57.25 45.4 C 57.25 50.891 52.792 55.35 47.3 55.35 L 17.45 55.35 C 11.958 55.35 7.5 50.891 7.5 45.4 L 7.5 19.45 C 7.5 13.959 11.958 9.5 17.45 9.5 Z " fill="url(#_lgradient_51)"/></g></g></g></g><g style="opacity:0.25;"><g style="opacity:0.25;"><g style="opacity:0.25;"><g opacity="0.25"><linearGradient id="_lgradient_52" x1="0" y1="0.5000000000000001" x2="0.013345620265453828" y2="1.3493521214466424" gradientTransform="matrix(49.39,0,0,45.52,7.5,9.5)" gradientUnits="userSpaceOnUse"><stop offset="0.18626984751099004%" stop-opacity="0.58823532" style="stop-color:rgb(0,0,0)"/><stop offset="98.44714168397674%" stop-opacity="1" style="stop-color:rgb(0,0,0)"/></linearGradient><path d=" M 17.378 9.5 L 47.012 9.5 C 52.464 9.5 56.89 13.926 56.89 19.379 L 56.89 45.141 C 56.89 50.594 52.464 55.02 47.012 55.02 L 17.378 55.02 C 11.926 55.02 7.5 50.594 7.5 45.141 L 7.5 19.379 C 7.5 13.926 11.926 9.5 17.378 9.5 Z " fill="url(#_lgradient_52)"/></g></g></g></g></g><linearGradient id="_lgradient_53" x1="1.2953621300876799" y1="0.04783678033367311" x2="1.2966379132320602" y2="0.14148514045186522" gradientTransform="matrix(49.027,0,0,40.322,7.5,9.5)" gradientUnits="userSpaceOnUse"><stop offset="0%" stop-opacity="1" style="stop-color:rgb(218,185,128)"/><stop offset="71.691591%" stop-opacity="1" style="stop-color:rgb(194,152,86)"/><stop offset="100%" stop-opacity="1" style="stop-color:rgb(162,119,58)"/></linearGradient><path d=" M 17.715 9.5 C 12.056 9.5 7.5 13.247 7.5 17.902 L 7.5 19.871 L 7.5 41.421 C 7.5 46.074 12.056 49.822 17.715 49.822 L 46.312 49.822 C 51.97 49.822 56.527 46.074 56.527 41.421 L 56.527 19.871 L 56.527 17.902 C 56.527 13.247 51.97 9.5 46.312 9.5 L 17.715 9.5 L 17.715 9.5 Z " fill="url(#_lgradient_53)"/><g style="opacity:0.3;"><g style="opacity:0.3;"><g style="opacity:0.3;"><g opacity="0.3"><linearGradient id="_lgradient_54" x1="0.46578771911277117" y1="0.002898908898305075" x2="0.455928738150691" y2="0.5206120735069311" gradientTransform="matrix(49.027,0,0,45.181,7.5,8.5)" gradientUnits="userSpaceOnUse"><stop offset="0%" stop-opacity="1" style="stop-color:rgb(255,255,255)"/><stop offset="100%" stop-opacity="0" style="stop-color:rgb(255,255,255)"/></linearGradient><path d=" M 17.712 8.5 C 12.053 8.5 7.5 12.696 7.5 17.911 L 7.5 44.268 C 7.5 49.482 12.053 53.681 17.712 53.681 L 18.017 53.681 C 12.478 53.681 8.019 49.572 8.019 44.468 L 8.019 18.671 C 8.019 13.566 12.478 9.457 18.017 9.457 L 46.01 9.457 C 51.548 9.457 56.007 13.566 56.007 18.671 L 56.007 44.468 C 56.007 49.572 51.548 53.681 46.01 53.681 L 46.312 53.681 C 51.97 53.681 56.527 49.482 56.527 44.268 L 56.527 17.911 C 56.527 12.696 51.97 8.5 46.312 8.5 L 17.712 8.5 L 17.712 8.5 L 17.712 8.5 Z " fill="url(#_lgradient_54)"/></g></g></g></g><linearGradient id="_lgradient_55" x1="1.5714285067796607" y1="0.8766044145361522" x2="1.5714285067796607" y2="0.02628578921519764" gradientTransform="matrix(49.027,0,0,40.16,7.5,14.34)" gradientUnits="userSpaceOnUse"><stop offset="0%" stop-opacity="1" style="stop-color:rgb(195,163,115)"/><stop offset="100%" stop-opacity="1" style="stop-color:rgb(221,192,139)"/></linearGradient><path d=" M 12.388 14.34 C 9.874 14.34 7.5 16.185 7.5 18.506 L 7.5 29.711 L 7.5 31.735 L 7.5 41.036 L 7.5 44.992 C 7.5 50.259 12.056 54.5 17.715 54.5 L 46.312 54.5 C 51.97 54.5 56.527 50.259 56.527 44.992 L 56.527 41.036 L 56.527 31.735 L 56.527 29.711 L 56.527 21.571 C 56.527 19.249 54.464 17.404 51.638 17.404 L 27.154 17.404 C 25.22 15.536 25.066 14.646 23.084 14.34 L 12.388 14.34 L 12.388 14.34 Z " fill="url(#_lgradient_55)"/><g style="opacity:0.2;"><g style="opacity:0.2;"><g style="opacity:0.2;"><g opacity="0.2"><linearGradient id="_lgradient_56" x1="0.4501308368366872" y1="0.9873156779661018" x2="0.4481003287923033" y2="0.6365573443671644" gradientTransform="matrix(49.027,0,0,45.181,7.5,9.5)" gradientUnits="userSpaceOnUse"><stop offset="0%" stop-opacity="1" style="stop-color:rgb(0,0,0)"/><stop offset="100%" stop-opacity="0.2" style="stop-color:rgb(255,255,255)"/></linearGradient><path d=" M 17.712 54.681 C 12.053 54.681 7.5 50.485 7.5 45.27 L 8.019 18.713 C 8.019 13.498 12.053 9.5 17.712 9.5 L 18.017 9.5 C 12.478 9.5 8.019 13.609 8.019 18.713 L 8.019 44.511 C 8.019 49.615 12.478 53.724 18.017 53.724 L 46.01 53.724 C 51.548 53.724 56.007 49.615 56.007 44.511 L 56.007 18.713 C 56.007 13.609 51.548 9.5 46.01 9.5 L 46.312 9.5 C 51.97 9.5 56.527 13.699 56.527 18.914 L 56.527 45.27 C 56.527 50.485 51.97 54.681 46.312 54.681 L 17.712 54.681 L 17.712 54.681 L 17.712 54.681 Z " fill="url(#_lgradient_56)"/></g></g></g></g><clipPath id="_clipPath_UVo6bWGTUoRFKHklDMcbJqCCXq7D5hbe"><path d=" M 664.877 120.55 L 1073.883 120.55 C 1091.267 120.55 1105.38 134.663 1105.38 152.047 L 1105.38 442.163 C 1105.38 459.547 1091.267 473.66 1073.883 473.66 L 664.877 473.66 C 647.493 473.66 633.38 459.547 633.38 442.163 L 633.38 152.047 C 633.38 134.663 647.493 120.55 664.877 120.55 Z " fill="rgb(255,255,255)"/></clipPath><g clip-path="url(#_clipPath_UVo6bWGTUoRFKHklDMcbJqCCXq7D5hbe)"><g><g><g><g style="opacity:0.15;" filter="url(#9yXooBFFnCeulTy58vqtZDzZpavm3a3P)"><g style="opacity:0.15;"><g style="opacity:0.15;"><g opacity="0.15"><linearGradient id="_lgradient_57" x1="0.5002895479566405" y1="0.006822888653235104" x2="0.5002895479566403" y2="1.0002142439024402" gradientTransform="matrix(7.48,0,0,6.838,598.734,31.303)" gradientUnits="userSpaceOnUse"><stop offset="0%" stop-opacity="1" style="stop-color:rgb(255,255,255)"/><stop offset="100%" stop-opacity="0" style="stop-color:rgb(255,255,255)"/></linearGradient><path d=" M 599.277 31.303 C 598.993 31.304 598.735 31.604 598.734 31.934 L 598.734 37.51 C 598.735 37.841 598.993 38.141 599.277 38.141 L 605.672 38.141 C 605.956 38.141 606.214 37.841 606.214 37.51 L 606.214 31.934 C 606.214 31.604 605.956 31.304 605.672 31.303 L 599.277 31.303 L 599.277 31.303 Z " fill="url(#_lgradient_57)"/></g></g></g></g><defs><filter id="9yXooBFFnCeulTy58vqtZDzZpavm3a3P" x="-200%" y="-200%" width="400%" height="400%" filterUnits="objectBoundingBox" color-interpolation-filters="sRGB"><feGaussianBlur xmlns="http://www.w3.org/2000/svg" stdDeviation="0.9531511827795122"/></filter></defs></g></g></g></g><g style="opacity:0.35;"><g style="opacity:0.35;"><g style="opacity:0.35;"><g opacity="0.35"><linearGradient id="_lgradient_58" x1="0.15577008441859788" y1="0.42791133180980445" x2="0.15577008441859733" y2="0.4423766392663589" gradientTransform="matrix(49.027,0,0,8.116,7.5,14.923)" gradientUnits="userSpaceOnUse"><stop offset="0%" stop-opacity="1" style="stop-color:rgb(255,255,255)"/><stop offset="100%" stop-opacity="0" style="stop-color:rgb(255,255,255)"/></linearGradient><path d=" M 12.388 14.923 C 9.874 14.923 7.5 16.75 7.5 19.048 L 7.5 20.006 C 7.5 17.707 9.874 15.881 12.388 15.881 L 23.084 15.881 C 25.066 16.183 25.22 17.064 27.154 18.914 L 51.638 18.914 C 54.464 18.914 56.527 20.74 56.527 23.039 L 56.527 22.082 C 56.527 19.783 54.464 17.957 51.638 17.957 L 27.154 17.957 C 25.22 16.107 25.066 15.226 23.084 14.923 L 12.388 14.923 L 12.388 14.923 Z " fill="url(#_lgradient_58)"/></g></g></g></g><linearGradient id="_lgradient_59" x1="1.5714285491525424" y1="0.8623194487575553" x2="1.5714285491525424" y2="-0.08643683474990005" gradientTransform="matrix(472,0,0,372.25,588,120.75)" gradientUnits="userSpaceOnUse"><stop offset="0%" stop-opacity="1" style="stop-color:rgb(194,150,86)"/><stop offset="100%" stop-opacity="1" style="stop-color:rgb(221,192,139)"/></linearGradient><path d=" M 588 120.75 L 588 236.625 L 588 257.563 L 588 353.75 L 588 394.656 C 588 449.133 631.867 493 686.344 493 L 961.656 493 C 1016.133 493 1060 449.133 1060 394.656 L 1060 353.75 L 1060 257.563 L 1060 236.625 L 1060 152.438 C 1060 128.422 1040.141 120.75 1012.938 120.75 L 777.219 120.75 L 588 120.75 L 588 120.75 Z " fill="url(#_lgradient_59)"/><path d=" M 23.53 24.569 C 23.046 24.568 22.606 24.917 22.606 25.3 L 22.606 36.684 C 20.763 36.519 19.108 36.291 17.338 36.094 C 17.291 36.089 17.243 36.088 17.196 36.091 C 16.936 36.103 16.69 36.239 16.584 36.428 C 16.479 36.617 16.516 36.85 16.679 37.012 L 27.16 47.357 C 27.223 47.418 27.288 47.476 27.362 47.519 L 36.402 54.681 L 45.108 54.681 C 51.987 54.681 57.527 50.294 57.527 44.847 L 57.527 44.575 L 32.642 24.869 C 32.468 24.691 32.201 24.568 31.915 24.569 L 23.53 24.569 Z " fill="rgb(0,0,0)" fill-opacity="0.23529412"/><path d=" M 28.563 34.857 C 28.165 34.857 27.803 34.644 27.804 34.412 L 27.804 27.488 C 26.287 27.589 24.926 27.727 23.47 27.847 C 23.432 27.85 23.392 27.851 23.353 27.849 C 23.139 27.841 22.938 27.759 22.851 27.644 C 22.764 27.529 22.795 27.387 22.928 27.288 L 31.549 20.998 C 31.674 20.906 31.805 20.826 32.046 20.868 C 32.25 20.907 33.351 21.642 33.815 21.98 C 34.623 22.57 35.7 23.357 36.779 24.143 C 38.936 25.715 41.096 27.287 41.096 27.287 C 41.242 27.393 41.266 27.552 41.152 27.672 C 41.039 27.792 40.795 27.864 40.563 27.847 C 38.904 27.731 37.601 27.599 36.22 27.499 L 36.22 34.412 C 36.221 34.644 35.859 34.857 35.461 34.857 L 28.563 34.857 L 28.563 34.857 Z " fill="rgb(0,255,0)"/></g></g></g></g><path d=" M 29.372 53.483 L 28.273 53.483 L 29.589 50.151 L 26.705 50.151 L 26.705 49.269 L 30.73 49.269 L 30.73 49.92 L 29.372 53.483 L 29.372 53.483 Z  M 27.755 55.163 L 26.705 55.163 L 26.705 50.879 L 27.755 50.879 L 27.755 55.163 L 27.755 55.163 Z  M 25.79 53.483 L 24.74 53.483 L 24.74 49.269 L 25.79 49.269 L 25.79 53.483 L 25.79 53.483 Z  M 24.184 53.483 L 20.355 53.483 L 20.355 52.601 L 22.588 52.601 L 22.588 50.865 L 22.588 50.865 Q 22.588 50.473 22.448 50.312 L 22.448 50.312 L 22.448 50.312 Q 22.308 50.151 21.979 50.151 L 21.979 50.151 L 20.355 50.151 L 20.355 49.269 L 22.021 49.269 L 22.021 49.269 Q 23.638 49.269 23.638 50.746 L 23.638 50.746 L 23.638 52.601 L 24.184 52.601 L 24.184 53.483 L 24.184 53.483 Z  M 18.231 55.163 L 17.181 55.163 L 17.181 51.915 L 16.201 49.269 L 17.3 49.269 L 18.105 51.572 L 18.294 51.516 L 18.294 51.516 Q 18.511 51.446 18.62 51.268 L 18.62 51.268 L 18.62 51.268 Q 18.728 51.089 18.756 50.739 L 18.756 50.739 L 18.896 49.269 L 19.946 49.269 L 19.82 50.641 L 19.82 50.641 Q 19.792 50.956 19.736 51.219 L 19.736 51.219 L 19.736 51.219 Q 19.68 51.481 19.551 51.695 L 19.551 51.695 L 19.551 51.695 Q 19.421 51.908 19.173 52.076 L 19.173 52.076 L 19.173 52.076 Q 18.924 52.244 18.511 52.37 L 18.511 52.37 L 18.231 52.454 L 18.231 55.163 L 18.231 55.163 Z  M 45.17 53.483 L 43.315 53.483 L 43.315 52.601 L 45.17 52.601 L 45.17 52.601 Q 45.66 52.601 45.923 52.335 L 45.923 52.335 L 45.923 52.335 Q 46.185 52.069 46.185 51.432 L 46.185 51.432 L 46.185 51.432 Q 46.185 50.774 45.891 50.463 L 45.891 50.463 L 45.891 50.463 Q 45.597 50.151 44.995 50.151 L 44.995 50.151 L 44.365 50.151 L 44.365 50.424 L 44.365 50.424 Q 44.365 50.704 44.428 50.844 L 44.428 50.844 L 44.428 50.844 Q 44.491 50.984 44.607 51.033 L 44.607 51.033 L 44.607 51.033 Q 44.722 51.082 44.869 51.082 L 44.869 51.082 L 44.869 51.082 Q 44.925 51.082 44.978 51.079 L 44.978 51.079 L 44.978 51.079 Q 45.03 51.075 45.079 51.068 L 45.079 51.068 L 45.079 51.95 L 45.079 51.95 Q 45.002 51.957 44.908 51.964 L 44.908 51.964 L 44.908 51.964 Q 44.813 51.971 44.736 51.971 L 44.736 51.971 L 44.736 51.971 Q 44.05 51.971 43.683 51.583 L 43.683 51.583 L 43.683 51.583 Q 43.315 51.194 43.315 50.48 L 43.315 50.48 L 43.315 49.269 L 45.065 49.269 L 45.065 49.269 Q 45.744 49.269 46.234 49.525 L 46.234 49.525 L 46.234 49.525 Q 46.724 49.78 46.99 50.26 L 46.99 50.26 L 46.99 50.26 Q 47.256 50.739 47.256 51.411 L 47.256 51.411 L 47.256 51.411 Q 47.256 52.076 46.997 52.538 L 46.997 52.538 L 46.997 52.538 Q 46.738 53 46.269 53.242 L 46.269 53.242 L 46.269 53.242 Q 45.8 53.483 45.17 53.483 L 45.17 53.483 L 45.17 53.483 Z  M 38.847 53.483 L 38.21 53.483 L 38.21 52.601 L 38.679 52.601 L 38.679 52.601 Q 38.784 52.601 38.851 52.531 L 38.851 52.531 L 38.851 52.531 Q 38.917 52.461 38.917 52.328 L 38.917 52.328 L 38.917 50.151 L 38.238 50.151 L 38.238 49.269 L 40.877 49.269 L 40.877 49.269 Q 42.494 49.269 42.494 50.746 L 42.494 50.746 L 42.494 53.483 L 41.444 53.483 L 41.444 50.865 L 41.444 50.865 Q 41.444 50.473 41.304 50.312 L 41.304 50.312 L 41.304 50.312 Q 41.164 50.151 40.835 50.151 L 40.835 50.151 L 39.967 50.151 L 39.967 52.209 L 39.967 52.209 Q 39.967 52.853 39.694 53.168 L 39.694 53.168 L 39.694 53.168 Q 39.421 53.483 38.847 53.483 L 38.847 53.483 L 38.847 53.483 Z  M 33.56 49.269 L 35.912 49.269 L 35.912 49.269 Q 37.529 49.269 37.529 50.746 L 37.529 50.746 L 37.529 53.483 L 36.479 53.483 L 36.479 50.865 L 36.479 50.865 Q 36.479 50.473 36.335 50.312 L 36.335 50.312 L 36.335 50.312 Q 36.192 50.151 35.87 50.151 L 35.87 50.151 L 34.61 50.151 L 34.61 53.483 L 33.56 53.483 L 33.56 49.269 L 33.56 49.269 Z " fill="rgb(255,255,255)"/></g></g></g></g></g></g></svg>