<?xml version="1.0" encoding="UTF-8" standalone="no"?><!-- Generator: Gravit.io --><svg xmlns="http://www.w3.org/2000/svg" xmlns:xlink="http://www.w3.org/1999/xlink" style="isolation:isolate" viewBox="0 0 64 64" width="64pt" height="64pt"><defs><clipPath id="_clipPath_vnghG0NYml9wVZ3XmYuZTJU3i9rwwfbT"><rect width="64" height="64"/></clipPath></defs><g clip-path="url(#_clipPath_vnghG0NYml9wVZ3XmYuZTJU3i9rwwfbT)"><clipPath id="_clipPath_LwJdgDM1ltYfbQ7WaNRXHiQoLG9OLRsB"><rect x="0" y="0" width="64" height="64" transform="matrix(1,0,0,1,0,0)" fill="rgb(255,255,255)"/></clipPath><g clip-path="url(#_clipPath_LwJdgDM1ltYfbQ7WaNRXHiQoLG9OLRsB)"><g><g><g style="opacity:0.1;"><g opacity="0.1"><linearGradient id="_lgradient_24" x1="0" y1="0.5" x2="0.013344691913553777" y2="1.4999109556344168" gradientTransform="matrix(50.58,0,0,46.62,7.5,8.5)" gradientUnits="userSpaceOnUse"><stop offset="0.18630601431520652%" stop-opacity="0.58823532" style="stop-color:rgb(0,0,0)"/><stop offset="98.4471675762865%" stop-opacity="1" style="stop-color:rgb(0,0,0)"/></linearGradient><path d=" M 17.616 8.5 L 47.964 8.5 C 53.547 8.5 58.08 13.033 58.08 18.617 L 58.08 45.003 C 58.08 50.587 53.547 55.12 47.964 55.12 L 17.616 55.12 C 12.033 55.12 7.5 50.587 7.5 45.003 L 7.5 18.617 C 7.5 13.033 12.033 8.5 17.616 8.5 Z " fill="url(#_lgradient_24)"/></g></g><g style="opacity:0.07999998;"><g opacity="0.07999998"><linearGradient id="_lgradient_25" x1="0" y1="0.5" x2="0.013346712404950264" y2="1.4999109286671386" gradientTransform="matrix(51,0,0,47,7.5,8.5)" gradientUnits="userSpaceOnUse"><stop offset="0.18624834112716374%" stop-opacity="0.58823532" style="stop-color:rgb(0,0,0)"/><stop offset="98.44710274597503%" stop-opacity="1" style="stop-color:rgb(0,0,0)"/></linearGradient><path d=" M 17.7 8.5 L 48.3 8.5 C 53.93 8.5 58.5 13.07 58.5 18.7 L 58.5 45.3 C 58.5 50.93 53.93 55.5 48.3 55.5 L 17.7 55.5 C 12.07 55.5 7.5 50.93 7.5 45.3 L 7.5 18.7 C 7.5 13.07 12.07 8.5 17.7 8.5 Z " fill="url(#_lgradient_25)"/></g></g><g style="opacity:0.2;"><g opacity="0.2"><linearGradient id="_lgradient_26" x1="0" y1="0.5" x2="0.013348183958932437" y2="1.4999109090238982" gradientTransform="matrix(50.17,0,0,46.23,7.5,8.5)" gradientUnits="userSpaceOnUse"><stop offset="0.1862041069120243%" stop-opacity="0.58823532" style="stop-color:rgb(0,0,0)"/><stop offset="98.44706334224627%" stop-opacity="1" style="stop-color:rgb(0,0,0)"/></linearGradient><path d=" M 17.534 8.5 L 47.636 8.5 C 53.174 8.5 57.67 12.996 57.67 18.533 L 57.67 44.697 C 57.67 50.234 53.174 54.73 47.636 54.73 L 17.534 54.73 C 11.996 54.73 7.5 50.234 7.5 44.697 L 7.5 18.533 C 7.5 12.996 11.996 8.5 17.534 8.5 Z " fill="url(#_lgradient_26)"/></g></g><g style="opacity:0.25;"><g opacity="0.25"><linearGradient id="_lgradient_27" x1="0" y1="0.5" x2="0.013346141731824919" y2="1.4999109362842642" gradientTransform="matrix(49.75,0,0,45.85,7.5,8.5)" gradientUnits="userSpaceOnUse"><stop offset="0.18626232801088585%" stop-opacity="0.58823532" style="stop-color:rgb(0,0,0)"/><stop offset="98.44712888034117%" stop-opacity="1" style="stop-color:rgb(0,0,0)"/></linearGradient><path d=" M 17.45 8.5 L 47.3 8.5 C 52.792 8.5 57.25 12.959 57.25 18.45 L 57.25 44.4 C 57.25 49.891 52.792 54.35 47.3 54.35 L 17.45 54.35 C 11.958 54.35 7.5 49.891 7.5 44.4 L 7.5 18.45 C 7.5 12.959 11.958 8.5 17.45 8.5 Z " fill="url(#_lgradient_27)"/></g></g><g style="opacity:0.25;"><g opacity="0.25"><linearGradient id="_lgradient_28" x1="0" y1="0.5" x2="0.013345620265453821" y2="1.4999109432443123" gradientTransform="matrix(49.39,0,0,45.52,7.5,8.5)" gradientUnits="userSpaceOnUse"><stop offset="0.18626984751099004%" stop-opacity="0.58823532" style="stop-color:rgb(0,0,0)"/><stop offset="98.44714168397674%" stop-opacity="1" style="stop-color:rgb(0,0,0)"/></linearGradient><path d=" M 17.378 8.5 L 47.012 8.5 C 52.464 8.5 56.89 12.926 56.89 18.379 L 56.89 44.141 C 56.89 49.594 52.464 54.02 47.012 54.02 L 17.378 54.02 C 11.926 54.02 7.5 49.594 7.5 44.141 L 7.5 18.379 C 7.5 12.926 11.926 8.5 17.378 8.5 Z " fill="url(#_lgradient_28)"/></g></g></g><linearGradient id="_lgradient_29" x1="1.2953621300876799" y1="0.04783678033367311" x2="1.2966379132320602" y2="0.15810722789582948" gradientTransform="matrix(49.027,0,0,45.181,7.5,8.5)" gradientUnits="userSpaceOnUse"><stop offset="0%" stop-opacity="1" style="stop-color:rgb(218,185,128)"/><stop offset="71.691591%" stop-opacity="1" style="stop-color:rgb(194,152,86)"/><stop offset="100%" stop-opacity="1" style="stop-color:rgb(162,119,58)"/></linearGradient><path d=" M 17.715 8.5 C 12.056 8.5 7.5 12.699 7.5 17.914 L 7.5 20.121 L 7.5 44.268 C 7.5 49.482 12.056 53.681 17.715 53.681 L 46.312 53.681 C 51.97 53.681 56.527 49.482 56.527 44.268 L 56.527 20.121 L 56.527 17.914 C 56.527 12.699 51.97 8.5 46.312 8.5 L 17.715 8.5 Z " fill="url(#_lgradient_29)"/><g style="opacity:0.3;"><g opacity="0.3"><linearGradient id="_lgradient_30" x1="0.46578771911277117" y1="0.0028989088983051026" x2="0.455928738150691" y2="0.6125034155674057" gradientTransform="matrix(49.027,0,0,45.181,7.5,8.5)" gradientUnits="userSpaceOnUse"><stop offset="0%" stop-opacity="1" style="stop-color:rgb(255,255,255)"/><stop offset="100%" stop-opacity="0" style="stop-color:rgb(255,255,255)"/></linearGradient><path d=" M 17.712 8.5 C 12.053 8.5 7.5 12.696 7.5 17.911 L 7.5 44.268 C 7.5 49.482 12.053 53.681 17.712 53.681 L 18.017 53.681 C 12.478 53.681 8.019 49.572 8.019 44.468 L 8.019 18.671 C 8.019 13.566 12.478 9.457 18.017 9.457 L 46.01 9.457 C 51.548 9.457 56.007 13.566 56.007 18.671 L 56.007 44.468 C 56.007 49.572 51.548 53.681 46.01 53.681 L 46.312 53.681 C 51.97 53.681 56.527 49.482 56.527 44.268 L 56.527 17.911 C 56.527 12.696 51.97 8.5 46.312 8.5 L 17.712 8.5 L 17.712 8.5 Z " fill="url(#_lgradient_30)"/></g></g><linearGradient id="_lgradient_31" x1="1.5714285067796607" y1="0.8766044145361522" x2="1.5714285067796607" y2="0.02628578921519764" gradientTransform="matrix(49.027,0,0,39.758,7.5,13.923)" gradientUnits="userSpaceOnUse"><stop offset="0%" stop-opacity="1" style="stop-color:rgb(194,150,86)"/><stop offset="100%" stop-opacity="1" style="stop-color:rgb(221,192,139)"/></linearGradient><path d=" M 12.388 13.923 C 9.874 13.923 7.5 15.75 7.5 18.048 L 7.5 29.14 L 7.5 31.144 L 7.5 40.352 L 7.5 44.268 C 7.5 49.482 12.056 53.681 17.715 53.681 L 46.312 53.681 C 51.97 53.681 56.527 49.482 56.527 44.268 L 56.527 40.352 L 56.527 31.144 L 56.527 29.14 L 56.527 21.082 C 56.527 18.783 54.464 16.957 51.638 16.957 L 27.154 16.957 C 25.22 15.107 25.066 14.226 23.084 13.923 L 12.388 13.923 Z " fill="url(#_lgradient_31)"/><g style="opacity:0.2;"><g opacity="0.2"><linearGradient id="_lgradient_32" x1="0.4501308368366872" y1="0.9873156779661019" x2="0.4481003287923033" y2="0.574299599699484" gradientTransform="matrix(49.027,0,0,45.181,7.5,8.5)" gradientUnits="userSpaceOnUse"><stop offset="0%" stop-opacity="1" style="stop-color:rgb(0,0,0)"/><stop offset="100%" stop-opacity="0.2" style="stop-color:rgb(255,255,255)"/></linearGradient><path d=" M 17.712 53.681 C 12.053 53.681 7.5 49.485 7.5 44.27 L 7.5 17.914 C 7.5 12.699 12.053 8.5 17.712 8.5 L 18.017 8.5 C 12.478 8.5 8.019 12.609 8.019 17.713 L 8.019 43.511 C 8.019 48.615 12.478 52.724 18.017 52.724 L 46.01 52.724 C 51.548 52.724 56.007 48.615 56.007 43.511 L 56.007 17.713 C 56.007 12.609 51.548 8.5 46.01 8.5 L 46.312 8.5 C 51.97 8.5 56.527 12.699 56.527 17.914 L 56.527 44.27 C 56.527 49.485 51.97 53.681 46.312 53.681 L 17.712 53.681 L 17.712 53.681 Z " fill="url(#_lgradient_32)"/></g></g><clipPath id="_clipPath_FILtKsEldx32vKBLXHdDUELsaMH6IYsP"><path d=" M 664.877 119.55 L 1073.883 119.55 C 1091.267 119.55 1105.38 133.663 1105.38 151.047 L 1105.38 441.163 C 1105.38 458.547 1091.267 472.66 1073.883 472.66 L 664.877 472.66 C 647.493 472.66 633.38 458.547 633.38 441.163 L 633.38 151.047 C 633.38 133.663 647.493 119.55 664.877 119.55 Z " fill="rgb(255,255,255)"/></clipPath><g clip-path="url(#_clipPath_FILtKsEldx32vKBLXHdDUELsaMH6IYsP)"><g><g style="opacity:0.15;" filter="url(#3uyy2ZWraOs0PZo2xuqbYrNWN09zrzqF)"><g opacity="0.15"><linearGradient id="_lgradient_33" x1="0.5002895479566405" y1="0.006822888653234216" x2="0.5002895479566403" y2="1.0002142439024393" gradientTransform="matrix(7.48,0,0,6.838,598.734,30.303)" gradientUnits="userSpaceOnUse"><stop offset="0%" stop-opacity="1" style="stop-color:rgb(255,255,255)"/><stop offset="100%" stop-opacity="0" style="stop-color:rgb(255,255,255)"/></linearGradient><path d=" M 599.277 30.303 C 598.993 30.304 598.735 30.604 598.734 30.934 L 598.734 36.51 C 598.735 36.841 598.993 37.141 599.277 37.141 L 605.672 37.141 C 605.956 37.141 606.214 36.841 606.214 36.51 L 606.214 30.934 C 606.214 30.604 605.956 30.304 605.672 30.303 L 599.277 30.303 Z " fill="url(#_lgradient_33)"/></g></g><defs><filter id="3uyy2ZWraOs0PZo2xuqbYrNWN09zrzqF" x="-200%" y="-200%" width="400%" height="400%" filterUnits="objectBoundingBox" color-interpolation-filters="sRGB"><feGaussianBlur xmlns="http://www.w3.org/2000/svg" stdDeviation="0.9531511827795122"/></filter></defs></g></g><g style="opacity:0.35;"><g opacity="0.35"><linearGradient id="_lgradient_34" x1="0.15577008441859788" y1="0.4279113318098047" x2="0.15577008441859733" y2="0.9457994107960311" gradientTransform="matrix(49.027,0,0,8.116,7.5,13.923)" gradientUnits="userSpaceOnUse"><stop offset="0%" stop-opacity="1" style="stop-color:rgb(255,255,255)"/><stop offset="100%" stop-opacity="0" style="stop-color:rgb(255,255,255)"/></linearGradient><path d=" M 12.388 13.923 C 9.874 13.923 7.5 15.75 7.5 18.048 L 7.5 19.006 C 7.5 16.707 9.874 14.881 12.388 14.881 L 23.084 14.881 C 25.066 15.183 25.22 16.064 27.154 17.914 L 51.638 17.914 C 54.464 17.914 56.527 19.74 56.527 22.039 L 56.527 21.082 C 56.527 18.783 54.464 16.957 51.638 16.957 L 27.154 16.957 C 25.22 15.107 25.066 14.226 23.084 13.923 L 12.388 13.923 Z " fill="url(#_lgradient_34)"/></g></g><linearGradient id="_lgradient_35" x1="1.5714285491525424" y1="0.8623194487575554" x2="1.5714285491525424" y2="-0.08643683474990005" gradientTransform="matrix(472,0,0,372.25,588,119.75)" gradientUnits="userSpaceOnUse"><stop offset="0%" stop-opacity="1" style="stop-color:rgb(194,150,86)"/><stop offset="100%" stop-opacity="1" style="stop-color:rgb(221,192,139)"/></linearGradient><path d=" M 588 119.75 L 588 235.625 L 588 256.563 L 588 352.75 L 588 393.656 C 588 448.133 631.867 492 686.344 492 L 961.656 492 C 1016.133 492 1060 448.133 1060 393.656 L 1060 352.75 L 1060 256.563 L 1060 235.625 L 1060 151.438 C 1060 127.422 1040.141 119.75 1012.938 119.75 L 777.219 119.75 L 588 119.75 Z " fill="url(#_lgradient_35)"/><path d=" M 28.563 24.857 C 28.165 24.856 27.803 25.19 27.803 25.557 L 27.803 36.454 C 26.287 36.296 24.926 36.078 23.47 35.889 C 23.431 35.884 23.392 35.883 23.353 35.886 C 23.139 35.898 22.937 36.028 22.85 36.209 C 22.763 36.39 22.794 36.613 22.928 36.768 L 31.549 46.67 C 31.601 46.729 31.654 46.784 31.715 46.825 L 39.151 53.681 L 46.312 53.681 C 51.97 53.681 56.527 49.482 56.527 44.268 L 56.527 44.007 L 36.058 25.144 C 35.915 24.974 35.695 24.856 35.46 24.857 L 28.563 24.857 Z " fill="rgb(0,0,0)" fill-opacity="0.23529412"/><path d=" M 28.563 20.857 C 28.165 20.856 27.803 21.069 27.804 21.302 L 27.804 28.225 C 26.287 28.125 24.926 27.986 23.47 27.866 C 23.432 27.863 23.392 27.863 23.353 27.864 C 23.139 27.872 22.938 27.955 22.851 28.069 C 22.764 28.184 22.795 28.326 22.928 28.425 L 31.549 34.716 C 31.674 34.807 31.805 34.888 32.046 34.845 C 32.25 34.807 33.351 34.072 33.815 33.733 C 34.623 33.144 35.7 32.357 36.779 31.571 C 38.936 29.998 41.096 28.427 41.096 28.427 C 41.242 28.321 41.266 28.161 41.152 28.042 C 41.039 27.922 40.795 27.85 40.563 27.866 C 38.904 27.982 37.601 28.115 36.22 28.214 L 36.22 21.302 C 36.221 21.069 35.859 20.856 35.461 20.857 L 28.563 20.857 L 28.563 20.857 Z " fill="rgb(255,153,0)"/></g></g><path d=" M 27.997 48.858 L 26.898 48.858 L 28.214 45.526 L 25.33 45.526 L 25.33 44.644 L 29.355 44.644 L 29.355 45.295 L 27.997 48.858 L 27.997 48.858 Z  M 26.38 50.538 L 25.33 50.538 L 25.33 46.254 L 26.38 46.254 L 26.38 50.538 L 26.38 50.538 Z  M 24.415 48.858 L 23.365 48.858 L 23.365 44.644 L 24.415 44.644 L 24.415 48.858 L 24.415 48.858 Z  M 22.809 48.858 L 18.98 48.858 L 18.98 47.976 L 21.213 47.976 L 21.213 46.24 L 21.213 46.24 Q 21.213 45.848 21.073 45.687 L 21.073 45.687 L 21.073 45.687 Q 20.933 45.526 20.604 45.526 L 20.604 45.526 L 18.98 45.526 L 18.98 44.644 L 20.646 44.644 L 20.646 44.644 Q 22.263 44.644 22.263 46.121 L 22.263 46.121 L 22.263 47.976 L 22.809 47.976 L 22.809 48.858 L 22.809 48.858 Z  M 16.856 50.538 L 15.806 50.538 L 15.806 47.29 L 14.826 44.644 L 15.925 44.644 L 16.73 46.947 L 16.919 46.891 L 16.919 46.891 Q 17.136 46.821 17.245 46.643 L 17.245 46.643 L 17.245 46.643 Q 17.353 46.464 17.381 46.114 L 17.381 46.114 L 17.521 44.644 L 18.571 44.644 L 18.445 46.016 L 18.445 46.016 Q 18.417 46.331 18.361 46.594 L 18.361 46.594 L 18.361 46.594 Q 18.305 46.856 18.176 47.07 L 18.176 47.07 L 18.176 47.07 Q 18.046 47.283 17.798 47.451 L 17.798 47.451 L 17.798 47.451 Q 17.549 47.619 17.136 47.745 L 17.136 47.745 L 16.856 47.829 L 16.856 50.538 L 16.856 50.538 Z  M 44.921 48.858 L 43.262 48.858 L 42.87 44.644 L 43.92 44.644 L 44.102 46.541 L 44.333 46.471 L 44.333 46.471 Q 44.564 46.394 44.655 46.198 L 44.655 46.198 L 44.655 46.198 Q 44.746 46.002 44.795 45.617 L 44.795 45.617 L 44.907 44.644 L 45.957 44.644 L 45.866 45.519 L 45.866 45.519 Q 45.831 45.82 45.779 46.083 L 45.779 46.083 L 45.779 46.083 Q 45.726 46.345 45.597 46.562 L 45.597 46.562 L 45.597 46.562 Q 45.467 46.779 45.219 46.951 L 45.219 46.951 L 45.219 46.951 Q 44.97 47.122 44.55 47.248 L 44.55 47.248 L 44.179 47.36 L 44.235 47.976 L 44.921 47.976 L 44.921 47.976 Q 45.607 47.976 46.027 47.532 L 46.027 47.532 L 46.027 47.532 Q 46.447 47.087 46.538 46.205 L 46.538 46.205 L 46.699 44.644 L 47.749 44.644 L 47.595 46.233 L 47.595 46.233 Q 47.511 47.059 47.172 47.647 L 47.172 47.647 L 47.172 47.647 Q 46.832 48.235 46.262 48.547 L 46.262 48.547 L 46.262 48.547 Q 45.691 48.858 44.921 48.858 L 44.921 48.858 L 44.921 48.858 Z  M 40.481 44.574 L 40.481 44.574 L 40.481 44.574 Q 40.943 44.574 41.279 44.777 L 41.279 44.777 L 41.279 44.777 Q 41.615 44.98 41.801 45.351 L 41.801 45.351 L 41.801 45.351 Q 41.986 45.722 41.986 46.219 L 41.986 46.219 L 41.986 48.858 L 39.746 48.858 L 39.746 47.976 L 40.936 47.976 L 40.936 46.317 L 40.936 46.317 Q 40.936 45.505 40.229 45.505 L 40.229 45.505 L 40.229 45.505 Q 39.802 45.505 39.564 45.81 L 39.564 45.81 L 39.564 45.81 Q 39.326 46.114 39.249 46.751 L 39.249 46.751 L 38.99 48.858 L 37.94 48.858 L 38.269 46.163 L 37.954 44.644 L 39.004 44.644 L 39.13 45.33 L 39.158 45.33 L 39.158 45.33 Q 39.263 45.183 39.424 45.005 L 39.424 45.005 L 39.424 45.005 Q 39.585 44.826 39.837 44.7 L 39.837 44.7 L 39.837 44.7 Q 40.089 44.574 40.481 44.574 Z  M 37.235 48.858 L 36.185 48.858 L 36.185 44.644 L 37.235 44.644 L 37.235 48.858 L 37.235 48.858 Z  M 35.244 48.858 L 34.194 48.858 L 34.194 46.24 L 34.194 46.24 Q 34.194 45.848 34.051 45.687 L 34.051 45.687 L 34.051 45.687 Q 33.907 45.526 33.585 45.526 L 33.585 45.526 L 31.695 45.526 L 31.695 44.644 L 33.627 44.644 L 33.627 44.644 Q 35.244 44.644 35.244 46.121 L 35.244 46.121 L 35.244 48.858 L 35.244 48.858 Z " fill="rgb(255,255,255)"/></g></svg>