<?xml version="1.0" encoding="UTF-8" standalone="no"?><!-- Generator: Gravit.io --><svg xmlns="http://www.w3.org/2000/svg" xmlns:xlink="http://www.w3.org/1999/xlink" style="isolation:isolate" viewBox="0 0 64 64" width="64pt" height="64pt"><defs><clipPath id="_clipPath_XBGoP7Rhw3PDntph6pFSedzjxUt9ENBu"><rect width="64" height="64"/></clipPath></defs><g clip-path="url(#_clipPath_XBGoP7Rhw3PDntph6pFSedzjxUt9ENBu)"><g/><g><defs><linearGradient id="_lgradient_0" x1="0.37339104038743315" y1="0.9863912015747762" x2="0.3613039648310472" y2="0.0037825859550632"><stop offset="0%" style="stop-color:#000000"/><stop offset="100%" style="stop-color:rgba(0,0,0,0.58823532)"/></linearGradient><linearGradient id="_lgradient_1" x1="0.37339104038743315" y1="0.9863912015747762" x2="0.3613039648310472" y2="0.0037825859550632"><stop offset="0%" style="stop-color:#000000"/><stop offset="100%" style="stop-color:rgba(0,0,0,0.58823532)"/></linearGradient></defs><g style="mix-blend-mode:normal;" opacity="0.1"><path d="M 17.616 8.5 L 47.964 8.5 C 53.547 8.5 58.08 13.033 58.08 18.617 L 58.08 45.003 C 58.08 50.587 53.547 55.12 47.964 55.12 L 17.616 55.12 C 12.033 55.12 7.5 50.587 7.5 45.003 L 7.5 18.617 C 7.5 13.033 12.033 8.5 17.616 8.5 Z" style="stroke:none;fill:url(#_lgradient_1);stroke-miterlimit:10;"/></g><defs><linearGradient id="_lgradient_2" x1="0.3733907955794909" y1="0.9863911381121406" x2="0.36130372090350366" y2="0.0037825940636619926"><stop offset="0%" style="stop-color:#000000"/><stop offset="100%" style="stop-color:rgba(0,0,0,0.58823532)"/></linearGradient><linearGradient id="_lgradient_3" x1="0.3733907955794909" y1="0.9863911381121406" x2="0.36130372090350366" y2="0.0037825940636619926"><stop offset="0%" style="stop-color:#000000"/><stop offset="100%" style="stop-color:rgba(0,0,0,0.58823532)"/></linearGradient></defs><g style="mix-blend-mode:normal;" opacity="0.07999998"><path d="M 17.7 8.5 L 48.3 8.5 C 53.93 8.5 58.5 13.07 58.5 18.7 L 58.5 45.3 C 58.5 50.93 53.93 55.5 48.3 55.5 L 17.7 55.5 C 12.07 55.5 7.5 50.93 7.5 45.3 L 7.5 18.7 C 7.5 13.07 12.07 8.5 17.7 8.5 Z" style="stroke:none;fill:url(#_lgradient_3);stroke-miterlimit:10;"/></g><defs><linearGradient id="_lgradient_4" x1="0.37339091398861235" y1="0.9863911657951348" x2="0.3613038387184264" y2="0.0037825734417923362"><stop offset="0%" style="stop-color:#000000"/><stop offset="100%" style="stop-color:rgba(0,0,0,0.58823532)"/></linearGradient><linearGradient id="_lgradient_5" x1="0.37339091398861235" y1="0.9863911657951348" x2="0.3613038387184264" y2="0.0037825734417923362"><stop offset="0%" style="stop-color:#000000"/><stop offset="100%" style="stop-color:rgba(0,0,0,0.58823532)"/></linearGradient></defs><g style="mix-blend-mode:normal;" opacity="0.2"><path d="M 17.534 8.5 L 47.636 8.5 C 53.174 8.5 57.67 12.996 57.67 18.533 L 57.67 44.697 C 57.67 50.234 53.174 54.73 47.636 54.73 L 17.534 54.73 C 11.996 54.73 7.5 50.234 7.5 44.697 L 7.5 18.533 C 7.5 12.996 11.996 8.5 17.534 8.5 Z" style="stroke:none;fill:url(#_lgradient_5);stroke-miterlimit:10;"/></g><defs><linearGradient id="_lgradient_6" x1="0.3733911221203548" y1="0.986391230548862" x2="0.36130404595010424" y2="0.0037825650255596255"><stop offset="0%" style="stop-color:#000000"/><stop offset="100%" style="stop-color:rgba(0,0,0,0.58823532)"/></linearGradient><linearGradient id="_lgradient_7" x1="0.3733911221203548" y1="0.986391230548862" x2="0.36130404595010424" y2="0.0037825650255596255"><stop offset="0%" style="stop-color:#000000"/><stop offset="100%" style="stop-color:rgba(0,0,0,0.58823532)"/></linearGradient></defs><g style="mix-blend-mode:normal;" opacity="0.25"><path d="M 17.45 8.5 L 47.3 8.5 C 52.792 8.5 57.25 12.959 57.25 18.45 L 57.25 44.4 C 57.25 49.891 52.792 54.35 47.3 54.35 L 17.45 54.35 C 11.958 54.35 7.5 49.891 7.5 44.4 L 7.5 18.45 C 7.5 12.959 11.958 8.5 17.45 8.5 Z" style="stroke:none;fill:url(#_lgradient_7);stroke-miterlimit:10;"/></g><defs><linearGradient id="_lgradient_8" x1="0.37339122791480517" y1="0.9863912070185339" x2="0.36130415109455294" y2="0.0037824886538765368"><stop offset="0%" style="stop-color:#000000"/><stop offset="100%" style="stop-color:rgba(0,0,0,0.58823532)"/></linearGradient><linearGradient id="_lgradient_9" x1="0.37339122791480517" y1="0.9863912070185339" x2="0.36130415109455294" y2="0.0037824886538765368"><stop offset="0%" style="stop-color:#000000"/><stop offset="100%" style="stop-color:rgba(0,0,0,0.58823532)"/></linearGradient></defs><g style="mix-blend-mode:normal;" opacity="0.25"><path d="M 17.378 8.5 L 47.012 8.5 C 52.464 8.5 56.89 12.926 56.89 18.379 L 56.89 44.141 C 56.89 49.594 52.464 54.02 47.012 54.02 L 17.378 54.02 C 11.926 54.02 7.5 49.594 7.5 44.141 L 7.5 18.379 C 7.5 12.926 11.926 8.5 17.378 8.5 Z" style="stroke:none;fill:url(#_lgradient_9);stroke-miterlimit:10;"/></g></g><linearGradient id="_lgradient_10" x1="1.29536213008768" y1="0.04783678033367311" x2="1.2966379132320602" y2="0.1674939201187563" gradientTransform="matrix(49.027,0,0,45.181,7.5,8.5)" gradientUnits="userSpaceOnUse"><stop offset="0%" stop-opacity="1" style="stop-color:rgb(218,185,128)"/><stop offset="71.691591%" stop-opacity="1" style="stop-color:rgb(194,152,86)"/><stop offset="100%" stop-opacity="1" style="stop-color:rgb(162,119,58)"/></linearGradient><path d=" M 17.715 8.5 C 12.056 8.5 7.5 12.699 7.5 17.914 L 7.5 20.121 L 7.5 44.268 C 7.5 49.482 12.056 53.681 17.715 53.681 L 46.312 53.681 C 51.97 53.681 56.527 49.482 56.527 44.268 L 56.527 20.121 L 56.527 17.914 C 56.527 12.699 51.97 8.5 46.312 8.5 L 17.715 8.5 Z " fill="url(#_lgradient_10)"/><g/><g opacity="0.3"><linearGradient id="_lgradient_11" x1="0.4657877191127711" y1="0.0028989088983050817" x2="0.45592873815069096" y2="0.6643955590049226" gradientTransform="matrix(49.027,0,0,45.181,7.5,8.5)" gradientUnits="userSpaceOnUse"><stop offset="0%" stop-opacity="1" style="stop-color:rgb(255,255,255)"/><stop offset="100%" stop-opacity="0" style="stop-color:rgb(255,255,255)"/></linearGradient><path d=" M 17.712 8.5 C 12.053 8.5 7.5 12.696 7.5 17.911 L 7.5 44.268 C 7.5 49.482 12.053 53.681 17.712 53.681 L 18.017 53.681 C 12.478 53.681 8.019 49.572 8.019 44.468 L 8.019 18.671 C 8.019 13.566 12.478 9.457 18.017 9.457 L 46.01 9.457 C 51.548 9.457 56.007 13.566 56.007 18.671 L 56.007 44.468 C 56.007 49.572 51.548 53.681 46.01 53.681 L 46.312 53.681 C 51.97 53.681 56.527 49.482 56.527 44.268 L 56.527 17.911 C 56.527 12.696 51.97 8.5 46.312 8.5 L 17.712 8.5 L 17.712 8.5 Z " fill="url(#_lgradient_11)"/></g><linearGradient id="_lgradient_12" x1="1.571428506779661" y1="0.8766044145361521" x2="1.571428506779661" y2="0.02628578921519764" gradientTransform="matrix(49.027,0,0,39.758,7.5,13.923)" gradientUnits="userSpaceOnUse"><stop offset="0%" stop-opacity="1" style="stop-color:rgb(194,150,86)"/><stop offset="100%" stop-opacity="1" style="stop-color:rgb(221,192,139)"/></linearGradient><path d=" M 12.388 13.923 C 9.874 13.923 7.5 15.75 7.5 18.048 L 7.5 29.14 L 7.5 31.144 L 7.5 40.352 L 7.5 44.268 C 7.5 49.482 12.056 53.681 17.715 53.681 L 46.312 53.681 C 51.97 53.681 56.527 49.482 56.527 44.268 L 56.527 40.352 L 56.527 31.144 L 56.527 29.14 L 56.527 21.082 C 56.527 18.783 54.464 16.957 51.638 16.957 L 27.154 16.957 C 25.22 15.107 25.066 14.226 23.084 13.923 L 12.388 13.923 Z " fill="url(#_lgradient_12)"/><g opacity="0.2"><linearGradient id="_lgradient_13" x1="0.45013083683668714" y1="0.9873156779661018" x2="0.4481003287923033" y2="0.5391419042741222" gradientTransform="matrix(49.027,0,0,45.181,7.5,8.5)" gradientUnits="userSpaceOnUse"><stop offset="0%" stop-opacity="1" style="stop-color:rgb(0,0,0)"/><stop offset="100%" stop-opacity="0.2" style="stop-color:rgb(255,255,255)"/></linearGradient><path d=" M 17.712 53.681 C 12.053 53.681 7.5 49.485 7.5 44.27 L 7.5 17.914 C 7.5 12.699 12.053 8.5 17.712 8.5 L 18.017 8.5 C 12.478 8.5 8.019 12.609 8.019 17.713 L 8.019 43.511 C 8.019 48.615 12.478 52.724 18.017 52.724 L 46.01 52.724 C 51.548 52.724 56.007 48.615 56.007 43.511 L 56.007 17.713 C 56.007 12.609 51.548 8.5 46.01 8.5 L 46.312 8.5 C 51.97 8.5 56.527 12.699 56.527 17.914 L 56.527 44.27 C 56.527 49.485 51.97 53.681 46.312 53.681 L 17.712 53.681 L 17.712 53.681 Z " fill="url(#_lgradient_13)"/></g><clipPath id="_clipPath_5y8MTKnCYUEIZyivemcoc7NlAsC7UqAq"><path d="M 664.877 119.55 L 1073.883 119.55 C 1091.267 119.55 1105.38 133.663 1105.38 151.047 L 1105.38 441.163 C 1105.38 458.547 1091.267 472.66 1073.883 472.66 L 664.877 472.66 C 647.493 472.66 633.38 458.547 633.38 441.163 L 633.38 151.047 C 633.38 133.663 647.493 119.55 664.877 119.55 Z" style="stroke:none;fill:#FFFFFF;stroke-miterlimit:10;"/></clipPath><g clip-path="url(#_clipPath_5y8MTKnCYUEIZyivemcoc7NlAsC7UqAq)"><defs><filter id="YrafzGWOU02CoPNth0eF8PmP2oMcxCTG" x="-200%" y="-200%" width="400%" height="400%" filterUnits="objectBoundingBox" color-interpolation-filters="sRGB"><feGaussianBlur xmlns="http://www.w3.org/2000/svg" stdDeviation="0.9531511827795122"/></filter></defs><g opacity="0.15" filter="url(#YrafzGWOU02CoPNth0eF8PmP2oMcxCTG)"><linearGradient id="_lgradient_14" x1="0.5002895479566305" y1="0.006822888653234382" x2="0.5002895479566303" y2="1.0002142439024388" gradientTransform="matrix(7.48,0,0,6.838,598.734,30.303)" gradientUnits="userSpaceOnUse"><stop offset="0%" stop-opacity="1" style="stop-color:rgb(255,255,255)"/><stop offset="100%" stop-opacity="0" style="stop-color:rgb(255,255,255)"/></linearGradient><path d=" M 599.277 30.303 C 598.993 30.304 598.735 30.604 598.734 30.934 L 598.734 36.51 C 598.735 36.841 598.993 37.141 599.277 37.141 L 605.672 37.141 C 605.956 37.141 606.214 36.841 606.214 36.51 L 606.214 30.934 C 606.214 30.604 605.956 30.304 605.672 30.303 L 599.277 30.303 Z " fill="url(#_lgradient_14)"/></g></g><g opacity="0.35"><linearGradient id="_lgradient_15" x1="0.15577008441859794" y1="0.42791133180980445" x2="0.15577008441859733" y2="3.782745340755435" gradientTransform="matrix(49.027,0,0,8.116,7.5,13.923)" gradientUnits="userSpaceOnUse"><stop offset="0%" stop-opacity="1" style="stop-color:rgb(255,255,255)"/><stop offset="100%" stop-opacity="0" style="stop-color:rgb(255,255,255)"/></linearGradient><path d=" M 12.388 13.923 C 9.874 13.923 7.5 15.75 7.5 18.048 L 7.5 19.006 C 7.5 16.707 9.874 14.881 12.388 14.881 L 23.084 14.881 C 25.066 15.183 25.22 16.064 27.154 17.914 L 51.638 17.914 C 54.464 17.914 56.527 19.74 56.527 22.039 L 56.527 21.082 C 56.527 18.783 54.464 16.957 51.638 16.957 L 27.154 16.957 C 25.22 15.107 25.066 14.226 23.084 13.923 L 12.388 13.923 Z " fill="url(#_lgradient_15)"/></g><linearGradient id="_lgradient_16" x1="1.5714285491525424" y1="0.8623194487575554" x2="1.5714285491525424" y2="-0.08643683474990005" gradientTransform="matrix(472,0,0,372.25,588,119.75)" gradientUnits="userSpaceOnUse"><stop offset="0%" stop-opacity="1" style="stop-color:rgb(194,150,86)"/><stop offset="100%" stop-opacity="1" style="stop-color:rgb(221,192,139)"/></linearGradient><path d=" M 588 119.75 L 588 235.625 L 588 256.563 L 588 352.75 L 588 393.656 C 588 448.133 631.867 492 686.344 492 L 961.656 492 C 1016.133 492 1060 448.133 1060 393.656 L 1060 352.75 L 1060 256.563 L 1060 235.625 L 1060 151.438 C 1060 127.422 1040.141 119.75 1012.938 119.75 L 777.219 119.75 L 588 119.75 Z " fill="url(#_lgradient_16)"/><path d=" M 28.563 24.857 C 28.165 24.856 27.803 25.19 27.803 25.557 L 27.803 36.454 C 26.287 36.296 24.926 36.078 23.47 35.889 C 23.431 35.884 23.392 35.883 23.353 35.886 C 23.139 35.898 22.937 36.028 22.85 36.209 C 22.763 36.39 22.794 36.613 22.928 36.768 L 31.549 46.67 C 31.601 46.729 31.654 46.784 31.715 46.825 L 39.151 53.681 L 46.312 53.681 C 51.97 53.681 56.527 49.482 56.527 44.268 L 56.527 44.007 L 36.058 25.144 C 35.915 24.974 35.695 24.856 35.46 24.857 L 28.563 24.857 Z " fill="rgb(0,0,0)" fill-opacity="0.23529412"/><path d=" M 28.563 24.857 C 28.165 24.856 27.803 25.19 27.804 25.557 L 27.804 36.454 C 26.287 36.296 24.926 36.078 23.47 35.889 C 23.432 35.884 23.392 35.883 23.353 35.886 C 23.139 35.898 22.938 36.028 22.851 36.208 C 22.764 36.389 22.795 36.613 22.928 36.768 L 31.549 46.67 C 31.674 46.813 31.805 46.94 32.046 46.873 C 32.25 46.812 33.351 45.656 33.815 45.123 C 34.623 44.195 35.7 42.956 36.779 41.719 C 38.936 39.244 41.096 36.771 41.096 36.771 C 41.242 36.604 41.266 36.353 41.152 36.165 C 41.039 35.977 40.795 35.863 40.563 35.889 C 38.904 36.071 37.601 36.28 36.22 36.436 L 36.22 25.557 C 36.221 25.19 35.859 24.856 35.461 24.857 L 28.563 24.857 L 28.563 24.857 Z " fill="rgb(255,153,0)"/></g></svg>