<?xml version="1.0" encoding="UTF-8" standalone="no"?><!-- Generator: Gravit.io --><svg xmlns="http://www.w3.org/2000/svg" xmlns:xlink="http://www.w3.org/1999/xlink" style="isolation:isolate" viewBox="0 0 64 60" width="64pt" height="60pt"><defs><clipPath id="_clipPath_dFEN3B8Cir6iFIeELRxDsXIcB4Jg5GEa"><rect width="64" height="60"/></clipPath></defs><g clip-path="url(#_clipPath_dFEN3B8Cir6iFIeELRxDsXIcB4Jg5GEa)"><path d=" M 14.126 14.468 C 13.271 14.468 12.583 15.097 12.583 15.878 L 12.583 47.483 C 12.583 48.264 13.271 48.893 14.126 48.893 L 47.355 48.893 C 48.21 48.893 48.898 48.264 48.898 47.483 L 48.898 19.116 L 43.786 14.469 L 14.126 14.469 L 14.126 14.468 Z " fill-rule="evenodd" fill="rgb(127,127,127)"/><path d=" M 20.32 14.553 L 20.32 23.363 C 20.32 24.263 21.186 24.988 22.262 24.988 L 35.306 24.988 C 36.381 24.988 37.248 24.263 37.248 23.363 L 37.248 14.553" fill-rule="evenodd" fill="rgb(191,191,191)" vector-effect="non-scaling-stroke" stroke-width="1.875" stroke="rgb(76,76,76)" stroke-linejoin="miter" stroke-linecap="butt" stroke-miterlimit="4"/><path d="M 23.914 16.74 L 26.766 16.74 C 27.303 16.74 27.74 17.176 27.74 17.713 L 27.74 21.777 C 27.74 22.314 27.303 22.75 26.766 22.75 L 23.914 22.75 C 23.377 22.75 22.94 22.314 22.94 21.777 L 22.94 17.713 C 22.94 17.176 23.377 16.74 23.914 16.74 Z" style="stroke:none;fill:#FFFFFF;stroke-miterlimit:10;"/><path d="M 23.914 16.74 L 26.766 16.74 C 27.303 16.74 27.74 17.176 27.74 17.713 L 27.74 21.777 C 27.74 22.314 27.303 22.75 26.766 22.75 L 23.914 22.75 C 23.377 22.75 22.94 22.314 22.94 21.777 L 22.94 17.713 C 22.94 17.176 23.377 16.74 23.914 16.74 Z" style="fill:none;stroke:#4C4C4C;stroke-width:1.249967476;stroke-miterlimit:2;"/><path d=" M 14.126 14.468 C 13.271 14.468 12.583 15.097 12.583 15.878 L 12.583 47.483 C 12.583 48.264 13.271 48.893 14.126 48.893 L 47.355 48.893 C 48.21 48.893 48.899 48.264 48.899 47.483 L 48.899 19.116 L 43.786 14.469 L 14.126 14.469 L 14.126 14.468 Z " fill="none" vector-effect="non-scaling-stroke" stroke-width="2.5" stroke="rgb(76,76,76)" stroke-linejoin="round" stroke-linecap="round" stroke-miterlimit="4"/><path d="M 17.646 27.9 L 43.844 27.9 C 44.587 27.9 45.19 28.503 45.19 29.246 L 45.19 44.644 C 45.19 45.387 44.587 45.99 43.844 45.99 L 17.646 45.99 C 16.903 45.99 16.3 45.387 16.3 44.644 L 16.3 29.246 C 16.3 28.503 16.903 27.9 17.646 27.9 Z" style="stroke:none;fill:#E8E8E8;stroke-miterlimit:2;"/><path d="M 17.646 27.9 L 43.844 27.9 C 44.587 27.9 45.19 28.503 45.19 29.246 L 45.19 44.644 C 45.19 45.387 44.587 45.99 43.844 45.99 L 17.646 45.99 C 16.903 45.99 16.3 45.387 16.3 44.644 L 16.3 29.246 C 16.3 28.503 16.903 27.9 17.646 27.9 Z" style="fill:none;stroke:#4C4C4C;stroke-width:1.25;stroke-linecap:round;stroke-linejoin:round;stroke-miterlimit:2;"/><path d=" M 61 5.107 C 53.026 21.084 39.521 21.09 39.393 21.09 L 39.393 15.804 L 31.612 24.32 L 39.458 31.486 L 39.458 26.141 C 39.458 26.141 58.171 28.723 61 5.107 Z " fill-rule="evenodd" fill="rgb(255,153,0)" vector-effect="non-scaling-stroke" stroke-width="3.583" stroke="rgb(93,93,93)" stroke-linejoin="round" stroke-linecap="round" stroke-miterlimit="4"/><path d=" M 36.475 42.37 L 34.385 42.37 L 33.865 36.45 L 34.765 36.45 L 35.035 39.49 L 35.725 39.28 L 35.725 39.28 Q 36.135 39.15 36.34 38.845 L 36.34 38.845 L 36.34 38.845 Q 36.545 38.54 36.595 37.98 L 36.595 37.98 L 36.735 36.45 L 37.635 36.45 L 37.515 37.8 L 37.515 37.8 Q 37.465 38.37 37.35 38.805 L 37.35 38.805 L 37.35 38.805 Q 37.235 39.24 36.9 39.555 L 36.9 39.555 L 36.9 39.555 Q 36.565 39.87 35.855 40.08 L 35.855 40.08 L 35.105 40.3 L 35.215 41.54 L 36.475 41.54 L 36.475 41.54 Q 37.145 41.54 37.705 41.26 L 37.705 41.26 L 37.705 41.26 Q 38.265 40.98 38.625 40.38 L 38.625 40.38 L 38.625 40.38 Q 38.985 39.78 39.075 38.82 L 39.075 38.82 L 39.295 36.45 L 40.195 36.45 L 39.975 38.82 L 39.975 38.82 Q 39.945 39.2 39.835 39.675 L 39.835 39.675 L 39.835 39.675 Q 39.725 40.15 39.495 40.62 L 39.495 40.62 L 39.495 40.62 Q 39.265 41.09 38.875 41.49 L 38.875 41.49 L 38.875 41.49 Q 38.485 41.89 37.895 42.13 L 37.895 42.13 L 37.895 42.13 Q 37.305 42.37 36.475 42.37 L 36.475 42.37 L 36.475 42.37 Z  M 30.965 36.33 L 30.965 36.33 L 30.965 36.33 Q 32.005 36.33 32.56 36.895 L 32.56 36.895 L 32.56 36.895 Q 33.115 37.46 33.115 38.36 L 33.115 38.36 L 33.115 42.37 L 30.515 42.37 L 30.515 41.54 L 32.215 41.54 L 32.215 38.5 L 32.215 38.5 Q 32.215 37.88 31.9 37.5 L 31.9 37.5 L 31.9 37.5 Q 31.585 37.12 30.905 37.12 L 30.905 37.12 L 30.905 37.12 Q 30.115 37.12 29.715 37.655 L 29.715 37.655 L 29.715 37.655 Q 29.315 38.19 29.215 39.1 L 29.215 39.1 L 28.865 42.37 L 27.965 42.37 L 28.415 38.27 L 28.015 36.45 L 28.915 36.45 L 29.085 37.29 L 29.115 37.29 L 29.115 37.29 Q 29.285 37.04 29.525 36.82 L 29.525 36.82 L 29.525 36.82 Q 29.765 36.6 30.11 36.465 L 30.11 36.465 L 30.11 36.465 Q 30.455 36.33 30.965 36.33 Z  M 26.215 42.37 L 25.315 42.37 L 25.315 36.45 L 26.215 36.45 L 26.215 42.37 L 26.215 42.37 Z  M 24.085 42.37 L 23.185 42.37 L 23.185 38.52 L 23.185 38.52 Q 23.185 37.82 22.875 37.55 L 22.875 37.55 L 22.875 37.55 Q 22.565 37.28 22.015 37.28 L 22.015 37.28 L 19.615 37.28 L 19.615 36.45 L 22.075 36.45 L 22.075 36.45 Q 23.095 36.45 23.59 36.9 L 23.59 36.9 L 23.59 36.9 Q 24.085 37.35 24.085 38.34 L 24.085 38.34 L 24.085 42.37 L 24.085 42.37 Z " fill="rgb(0,0,0)"/></g></svg>