<?xml version="1.0" encoding="UTF-8" standalone="no"?><!-- Generator: Gravit.io --><svg xmlns="http://www.w3.org/2000/svg" xmlns:xlink="http://www.w3.org/1999/xlink" style="isolation:isolate" viewBox="0 0 64 64" width="64pt" height="64pt"><defs><clipPath id="_clipPath_bsauB20QRDDqQ4fywAXQd6V1rZpOuCQz"><rect width="64" height="64"/></clipPath></defs><g clip-path="url(#_clipPath_bsauB20QRDDqQ4fywAXQd6V1rZpOuCQz)"><rect x="0" y="0" width="64" height="64" transform="matrix(1,0,0,1,0,0)" fill="none"/><g><clipPath id="_clipPath_IjuplvB41Y8ZwKixznG92gf2as0mHC7m"><rect x="0" y="-1" width="64" height="64" transform="matrix(1,0,0,1,0,0)" fill="rgb(255,255,255)"/></clipPath><g clip-path="url(#_clipPath_IjuplvB41Y8ZwKixznG92gf2as0mHC7m)"><g><clipPath id="_clipPath_6rAUr9w4ZEVqPUVKVr2g3PhKV8QY4jKf"><rect x="0" y="1" width="64" height="64" transform="matrix(1,0,0,1,0,0)" fill="rgb(255,255,255)"/></clipPath><g clip-path="url(#_clipPath_6rAUr9w4ZEVqPUVKVr2g3PhKV8QY4jKf)"><g><g><clipPath id="_clipPath_UNFxKRIBV6RamYfcPIgsg2TnJdB2e4jw"><rect x="0" y="1" width="64" height="64" transform="matrix(1,0,0,1,0,0)" fill="rgb(255,255,255)"/></clipPath><g clip-path="url(#_clipPath_UNFxKRIBV6RamYfcPIgsg2TnJdB2e4jw)"><g><g><g><g><g><g style="opacity:0.1;"><g style="opacity:0.1;"><g style="opacity:0.1;"><g style="opacity:0.1;"><g opacity="0.1"><linearGradient id="_lgradient_0" x1="0" y1="0.5000000000000002" x2="0.01334469191355378" y2="1.2829637571456942" gradientTransform="matrix(50.58,0,0,46.62,7.5,9.5)" gradientUnits="userSpaceOnUse"><stop offset="0.18630601431520652%" stop-opacity="0.58823532" style="stop-color:rgb(0,0,0)"/><stop offset="98.4471675762865%" stop-opacity="1" style="stop-color:rgb(0,0,0)"/></linearGradient><path d=" M 17.616 9.5 L 47.964 9.5 C 53.547 9.5 58.08 14.033 58.08 19.617 L 58.08 46.003 C 58.08 51.587 53.547 56.12 47.964 56.12 L 17.616 56.12 C 12.033 56.12 7.5 51.587 7.5 46.003 L 7.5 19.617 C 7.5 14.033 12.033 9.5 17.616 9.5 Z " fill="url(#_lgradient_0)"/></g></g></g></g></g><g style="opacity:0.07999998;"><g style="opacity:0.07999998;"><g style="opacity:0.07999998;"><g style="opacity:0.07999998;"><g opacity="0.07999998"><linearGradient id="_lgradient_1" x1="0" y1="0.5" x2="0.01334671240495025" y2="1.282608139757769" gradientTransform="matrix(51,0,0,47,7.5,9.5)" gradientUnits="userSpaceOnUse"><stop offset="0.18624834112716374%" stop-opacity="0.58823532" style="stop-color:rgb(0,0,0)"/><stop offset="98.44710274597503%" stop-opacity="1" style="stop-color:rgb(0,0,0)"/></linearGradient><path d=" M 17.7 9.5 L 48.3 9.5 C 53.93 9.5 58.5 14.07 58.5 19.7 L 58.5 46.3 C 58.5 51.93 53.93 56.5 48.3 56.5 L 17.7 56.5 C 12.07 56.5 7.5 51.93 7.5 46.3 L 7.5 19.7 C 7.5 14.07 12.07 9.5 17.7 9.5 Z " fill="url(#_lgradient_1)"/></g></g></g></g></g><g style="opacity:0.2;"><g style="opacity:0.2;"><g style="opacity:0.2;"><g style="opacity:0.2;"><g opacity="0.2"><linearGradient id="_lgradient_2" x1="0" y1="0.4999999999999998" x2="0.013348183958932447" y2="1.2823492738239164" gradientTransform="matrix(50.17,0,0,46.23,7.5,9.5)" gradientUnits="userSpaceOnUse"><stop offset="0.1862041069120243%" stop-opacity="0.58823532" style="stop-color:rgb(0,0,0)"/><stop offset="98.44706334224627%" stop-opacity="1" style="stop-color:rgb(0,0,0)"/></linearGradient><path d=" M 17.534 9.5 L 47.636 9.5 C 53.174 9.5 57.67 13.996 57.67 19.533 L 57.67 45.697 C 57.67 51.234 53.174 55.73 47.636 55.73 L 17.534 55.73 C 11.996 55.73 7.5 51.234 7.5 45.697 L 7.5 19.533 C 7.5 13.996 11.996 9.5 17.534 9.5 Z " fill="url(#_lgradient_2)"/></g></g></g></g></g><g style="opacity:0.25;"><g style="opacity:0.25;"><g style="opacity:0.25;"><g style="opacity:0.25;"><g opacity="0.25"><linearGradient id="_lgradient_3" x1="0" y1="0.5" x2="0.013346141731824912" y2="1.2827085594840102" gradientTransform="matrix(49.75,0,0,45.85,7.5,9.5)" gradientUnits="userSpaceOnUse"><stop offset="0.18626232801088585%" stop-opacity="0.58823532" style="stop-color:rgb(0,0,0)"/><stop offset="98.44712888034117%" stop-opacity="1" style="stop-color:rgb(0,0,0)"/></linearGradient><path d=" M 17.45 9.5 L 47.3 9.5 C 52.792 9.5 57.25 13.959 57.25 19.45 L 57.25 45.4 C 57.25 50.891 52.792 55.35 47.3 55.35 L 17.45 55.35 C 11.958 55.35 7.5 50.891 7.5 45.4 L 7.5 19.45 C 7.5 13.959 11.958 9.5 17.45 9.5 Z " fill="url(#_lgradient_3)"/></g></g></g></g></g><g style="opacity:0.25;"><g style="opacity:0.25;"><g style="opacity:0.25;"><g style="opacity:0.25;"><g opacity="0.25"><linearGradient id="_lgradient_4" x1="0" y1="0.5000000000000001" x2="0.013345620265453828" y2="1.2828003354576176" gradientTransform="matrix(49.39,0,0,45.52,7.5,9.5)" gradientUnits="userSpaceOnUse"><stop offset="0.18626984751099004%" stop-opacity="0.58823532" style="stop-color:rgb(0,0,0)"/><stop offset="98.44714168397674%" stop-opacity="1" style="stop-color:rgb(0,0,0)"/></linearGradient><path d=" M 17.378 9.5 L 47.012 9.5 C 52.464 9.5 56.89 13.926 56.89 19.379 L 56.89 45.141 C 56.89 50.594 52.464 55.02 47.012 55.02 L 17.378 55.02 C 11.926 55.02 7.5 50.594 7.5 45.141 L 7.5 19.379 C 7.5 13.926 11.926 9.5 17.378 9.5 Z " fill="url(#_lgradient_4)"/></g></g></g></g></g></g><linearGradient id="_lgradient_5" x1="1.2953621300876799" y1="0.047836780333673085" x2="1.2966379132320602" y2="0.12485738483090632" gradientTransform="matrix(49.027,0,0,40.322,7.5,9.5)" gradientUnits="userSpaceOnUse"><stop offset="0%" stop-opacity="1" style="stop-color:rgb(218,185,128)"/><stop offset="71.691591%" stop-opacity="1" style="stop-color:rgb(194,152,86)"/><stop offset="100%" stop-opacity="1" style="stop-color:rgb(162,119,58)"/></linearGradient><path d=" M 17.715 9.5 C 12.056 9.5 7.5 13.247 7.5 17.902 L 7.5 19.871 L 7.5 41.421 C 7.5 46.074 12.056 49.822 17.715 49.822 L 46.312 49.822 C 51.97 49.822 56.527 46.074 56.527 41.421 L 56.527 19.871 L 56.527 17.902 C 56.527 13.247 51.97 9.5 46.312 9.5 L 17.715 9.5 L 17.715 9.5 Z " fill="url(#_lgradient_5)"/><g style="opacity:0.3;"><g style="opacity:0.3;"><g style="opacity:0.3;"><g style="opacity:0.3;"><g opacity="0.3"><linearGradient id="_lgradient_6" x1="0.46578771911277117" y1="0.0028989088983051026" x2="0.455928738150691" y2="0.4799992513663679" gradientTransform="matrix(49.027,0,0,45.181,7.5,8.5)" gradientUnits="userSpaceOnUse"><stop offset="0%" stop-opacity="1" style="stop-color:rgb(255,255,255)"/><stop offset="100%" stop-opacity="0" style="stop-color:rgb(255,255,255)"/></linearGradient><path d=" M 17.712 8.5 C 12.053 8.5 7.5 12.696 7.5 17.911 L 7.5 44.268 C 7.5 49.482 12.053 53.681 17.712 53.681 L 18.017 53.681 C 12.478 53.681 8.019 49.572 8.019 44.468 L 8.019 18.671 C 8.019 13.566 12.478 9.457 18.017 9.457 L 46.01 9.457 C 51.548 9.457 56.007 13.566 56.007 18.671 L 56.007 44.468 C 56.007 49.572 51.548 53.681 46.01 53.681 L 46.312 53.681 C 51.97 53.681 56.527 49.482 56.527 44.268 L 56.527 17.911 C 56.527 12.696 51.97 8.5 46.312 8.5 L 17.712 8.5 L 17.712 8.5 L 17.712 8.5 Z " fill="url(#_lgradient_6)"/></g></g></g></g></g><linearGradient id="_lgradient_7" x1="1.571428506779661" y1="0.8766044145361522" x2="1.571428506779661" y2="0.026285789215197752" gradientTransform="matrix(49.027,0,0,40.16,7.5,14.34)" gradientUnits="userSpaceOnUse"><stop offset="0%" stop-opacity="1" style="stop-color:rgb(195,163,115)"/><stop offset="100%" stop-opacity="1" style="stop-color:rgb(221,192,139)"/></linearGradient><path d=" M 12.388 14.34 C 9.874 14.34 7.5 16.185 7.5 18.506 L 7.5 29.711 L 7.5 31.735 L 7.5 41.036 L 7.5 44.992 C 7.5 50.259 12.056 54.5 17.715 54.5 L 46.312 54.5 C 51.97 54.5 56.527 50.259 56.527 44.992 L 56.527 41.036 L 56.527 31.735 L 56.527 29.711 L 56.527 21.571 C 56.527 19.249 54.464 17.404 51.638 17.404 L 27.154 17.404 C 25.22 15.536 25.066 14.646 23.084 14.34 L 12.388 14.34 L 12.388 14.34 Z " fill="url(#_lgradient_7)"/><g style="opacity:0.2;"><g style="opacity:0.2;"><g style="opacity:0.2;"><g style="opacity:0.2;"><g opacity="0.2"><linearGradient id="_lgradient_8" x1="0.4501308368366872" y1="0.9873156779661019" x2="0.4481003287923033" y2="0.664073132627139" gradientTransform="matrix(49.027,0,0,45.181,7.5,9.5)" gradientUnits="userSpaceOnUse"><stop offset="0%" stop-opacity="1" style="stop-color:rgb(0,0,0)"/><stop offset="100%" stop-opacity="0.2" style="stop-color:rgb(255,255,255)"/></linearGradient><path d=" M 17.712 54.681 C 12.053 54.681 7.5 50.485 7.5 45.27 L 8.019 18.713 C 8.019 13.498 12.053 9.5 17.712 9.5 L 18.017 9.5 C 12.478 9.5 8.019 13.609 8.019 18.713 L 8.019 44.511 C 8.019 49.615 12.478 53.724 18.017 53.724 L 46.01 53.724 C 51.548 53.724 56.007 49.615 56.007 44.511 L 56.007 18.713 C 56.007 13.609 51.548 9.5 46.01 9.5 L 46.312 9.5 C 51.97 9.5 56.527 13.699 56.527 18.914 L 56.527 45.27 C 56.527 50.485 51.97 54.681 46.312 54.681 L 17.712 54.681 L 17.712 54.681 L 17.712 54.681 Z " fill="url(#_lgradient_8)"/></g></g></g></g></g><clipPath id="_clipPath_BpHCMiCkjRToLhfJv2NvVTSME6aGIrSQ"><path d=" M 664.877 120.55 L 1073.883 120.55 C 1091.267 120.55 1105.38 134.663 1105.38 152.047 L 1105.38 442.163 C 1105.38 459.547 1091.267 473.66 1073.883 473.66 L 664.877 473.66 C 647.493 473.66 633.38 459.547 633.38 442.163 L 633.38 152.047 C 633.38 134.663 647.493 120.55 664.877 120.55 Z " fill="rgb(255,255,255)"/></clipPath><g clip-path="url(#_clipPath_BpHCMiCkjRToLhfJv2NvVTSME6aGIrSQ)"><g><g><g><g><g style="opacity:0.15;" filter="url(#lRNJEtSjSlOhVAoIqsG1r3GFdqzmNeeT)"><g style="opacity:0.15;"><g style="opacity:0.15;"><g style="opacity:0.15;"><g opacity="0.15"><linearGradient id="_lgradient_9" x1="0.5002895479566405" y1="0.006822888653235104" x2="0.5002895479566403" y2="1.0002142439024402" gradientTransform="matrix(7.48,0,0,6.838,598.734,31.303)" gradientUnits="userSpaceOnUse"><stop offset="0%" stop-opacity="1" style="stop-color:rgb(255,255,255)"/><stop offset="100%" stop-opacity="0" style="stop-color:rgb(255,255,255)"/></linearGradient><path d=" M 599.277 31.303 C 598.993 31.304 598.735 31.604 598.734 31.934 L 598.734 37.51 C 598.735 37.841 598.993 38.141 599.277 38.141 L 605.672 38.141 C 605.956 38.141 606.214 37.841 606.214 37.51 L 606.214 31.934 C 606.214 31.604 605.956 31.304 605.672 31.303 L 599.277 31.303 L 599.277 31.303 Z " fill="url(#_lgradient_9)"/></g></g></g></g></g><defs><filter id="lRNJEtSjSlOhVAoIqsG1r3GFdqzmNeeT" x="-200%" y="-200%" width="400%" height="400%" filterUnits="objectBoundingBox" color-interpolation-filters="sRGB"><feGaussianBlur xmlns="http://www.w3.org/2000/svg" stdDeviation="0.9531511827795122"/></filter></defs></g></g></g></g></g><g style="opacity:0.35;"><g style="opacity:0.35;"><g style="opacity:0.35;"><g style="opacity:0.35;"><g opacity="0.35"><linearGradient id="_lgradient_10" x1="0.15577008441859788" y1="0.42791133180980445" x2="0.15577008441859733" y2="0.4303507672203297" gradientTransform="matrix(49.027,0,0,8.116,7.5,14.923)" gradientUnits="userSpaceOnUse"><stop offset="0%" stop-opacity="1" style="stop-color:rgb(255,255,255)"/><stop offset="100%" stop-opacity="0" style="stop-color:rgb(255,255,255)"/></linearGradient><path d=" M 12.388 14.923 C 9.874 14.923 7.5 16.75 7.5 19.048 L 7.5 20.006 C 7.5 17.707 9.874 15.881 12.388 15.881 L 23.084 15.881 C 25.066 16.183 25.22 17.064 27.154 18.914 L 51.638 18.914 C 54.464 18.914 56.527 20.74 56.527 23.039 L 56.527 22.082 C 56.527 19.783 54.464 17.957 51.638 17.957 L 27.154 17.957 C 25.22 16.107 25.066 15.226 23.084 14.923 L 12.388 14.923 L 12.388 14.923 Z " fill="url(#_lgradient_10)"/></g></g></g></g></g><linearGradient id="_lgradient_11" x1="1.5714285491525424" y1="0.8623194487575553" x2="1.5714285491525424" y2="-0.08643683474990005" gradientTransform="matrix(472,0,0,372.25,588,120.75)" gradientUnits="userSpaceOnUse"><stop offset="0%" stop-opacity="1" style="stop-color:rgb(194,150,86)"/><stop offset="100%" stop-opacity="1" style="stop-color:rgb(221,192,139)"/></linearGradient><path d=" M 588 120.75 L 588 236.625 L 588 257.563 L 588 353.75 L 588 394.656 C 588 449.133 631.867 493 686.344 493 L 961.656 493 C 1016.133 493 1060 449.133 1060 394.656 L 1060 353.75 L 1060 257.563 L 1060 236.625 L 1060 152.438 C 1060 128.422 1040.141 120.75 1012.938 120.75 L 777.219 120.75 L 588 120.75 L 588 120.75 Z " fill="url(#_lgradient_11)"/><path d=" M 23.53 24.569 C 23.046 24.568 22.606 24.917 22.606 25.3 L 22.606 36.684 C 20.763 36.519 19.108 36.291 17.338 36.094 C 17.291 36.089 17.243 36.088 17.196 36.091 C 16.936 36.103 16.69 36.239 16.584 36.428 C 16.479 36.617 16.516 36.85 16.679 37.012 L 27.16 47.357 C 27.223 47.418 27.288 47.476 27.362 47.519 L 36.402 54.681 L 45.108 54.681 C 51.987 54.681 57.527 50.294 57.527 44.847 L 57.527 44.575 L 32.642 24.869 C 32.468 24.691 32.201 24.568 31.915 24.569 L 23.53 24.569 Z " fill="rgb(0,0,0)" fill-opacity="0.23529412"/><path d=" M 28.563 34.857 C 28.165 34.857 27.803 34.644 27.804 34.412 L 27.804 27.488 C 26.287 27.589 24.926 27.727 23.47 27.847 C 23.432 27.85 23.392 27.851 23.353 27.849 C 23.139 27.841 22.938 27.759 22.851 27.644 C 22.764 27.529 22.795 27.387 22.928 27.288 L 31.549 20.998 C 31.674 20.906 31.805 20.826 32.046 20.868 C 32.25 20.907 33.351 21.642 33.815 21.98 C 34.623 22.57 35.7 23.357 36.779 24.143 C 38.936 25.715 41.096 27.287 41.096 27.287 C 41.242 27.393 41.266 27.552 41.152 27.672 C 41.039 27.792 40.795 27.864 40.563 27.847 C 38.904 27.731 37.601 27.599 36.22 27.499 L 36.22 34.412 C 36.221 34.644 35.859 34.857 35.461 34.857 L 28.563 34.857 L 28.563 34.857 Z " fill="rgb(0,255,0)"/></g></g></g></g></g><path d=" M 29.372 48.483 L 28.273 48.483 L 29.589 45.151 L 26.705 45.151 L 26.705 44.269 L 30.73 44.269 L 30.73 44.92 L 29.372 48.483 L 29.372 48.483 Z  M 27.755 50.163 L 26.705 50.163 L 26.705 45.879 L 27.755 45.879 L 27.755 50.163 L 27.755 50.163 Z  M 25.79 48.483 L 24.74 48.483 L 24.74 44.269 L 25.79 44.269 L 25.79 48.483 L 25.79 48.483 Z  M 24.184 48.483 L 20.355 48.483 L 20.355 47.601 L 22.588 47.601 L 22.588 45.865 L 22.588 45.865 Q 22.588 45.473 22.448 45.312 L 22.448 45.312 L 22.448 45.312 Q 22.308 45.151 21.979 45.151 L 21.979 45.151 L 20.355 45.151 L 20.355 44.269 L 22.021 44.269 L 22.021 44.269 Q 23.638 44.269 23.638 45.746 L 23.638 45.746 L 23.638 47.601 L 24.184 47.601 L 24.184 48.483 L 24.184 48.483 Z  M 18.231 50.163 L 17.181 50.163 L 17.181 46.915 L 16.201 44.269 L 17.3 44.269 L 18.105 46.572 L 18.294 46.516 L 18.294 46.516 Q 18.511 46.446 18.62 46.268 L 18.62 46.268 L 18.62 46.268 Q 18.728 46.089 18.756 45.739 L 18.756 45.739 L 18.896 44.269 L 19.946 44.269 L 19.82 45.641 L 19.82 45.641 Q 19.792 45.956 19.736 46.219 L 19.736 46.219 L 19.736 46.219 Q 19.68 46.481 19.551 46.695 L 19.551 46.695 L 19.551 46.695 Q 19.421 46.908 19.173 47.076 L 19.173 47.076 L 19.173 47.076 Q 18.924 47.244 18.511 47.37 L 18.511 47.37 L 18.231 47.454 L 18.231 50.163 L 18.231 50.163 Z  M 45.17 48.483 L 43.315 48.483 L 43.315 47.601 L 45.17 47.601 L 45.17 47.601 Q 45.66 47.601 45.923 47.335 L 45.923 47.335 L 45.923 47.335 Q 46.185 47.069 46.185 46.432 L 46.185 46.432 L 46.185 46.432 Q 46.185 45.774 45.891 45.463 L 45.891 45.463 L 45.891 45.463 Q 45.597 45.151 44.995 45.151 L 44.995 45.151 L 44.365 45.151 L 44.365 45.424 L 44.365 45.424 Q 44.365 45.704 44.428 45.844 L 44.428 45.844 L 44.428 45.844 Q 44.491 45.984 44.607 46.033 L 44.607 46.033 L 44.607 46.033 Q 44.722 46.082 44.869 46.082 L 44.869 46.082 L 44.869 46.082 Q 44.925 46.082 44.978 46.079 L 44.978 46.079 L 44.978 46.079 Q 45.03 46.075 45.079 46.068 L 45.079 46.068 L 45.079 46.95 L 45.079 46.95 Q 45.002 46.957 44.908 46.964 L 44.908 46.964 L 44.908 46.964 Q 44.813 46.971 44.736 46.971 L 44.736 46.971 L 44.736 46.971 Q 44.05 46.971 43.683 46.583 L 43.683 46.583 L 43.683 46.583 Q 43.315 46.194 43.315 45.48 L 43.315 45.48 L 43.315 44.269 L 45.065 44.269 L 45.065 44.269 Q 45.744 44.269 46.234 44.525 L 46.234 44.525 L 46.234 44.525 Q 46.724 44.78 46.99 45.26 L 46.99 45.26 L 46.99 45.26 Q 47.256 45.739 47.256 46.411 L 47.256 46.411 L 47.256 46.411 Q 47.256 47.076 46.997 47.538 L 46.997 47.538 L 46.997 47.538 Q 46.738 48 46.269 48.242 L 46.269 48.242 L 46.269 48.242 Q 45.8 48.483 45.17 48.483 L 45.17 48.483 L 45.17 48.483 Z  M 38.847 48.483 L 38.21 48.483 L 38.21 47.601 L 38.679 47.601 L 38.679 47.601 Q 38.784 47.601 38.851 47.531 L 38.851 47.531 L 38.851 47.531 Q 38.917 47.461 38.917 47.328 L 38.917 47.328 L 38.917 45.151 L 38.238 45.151 L 38.238 44.269 L 40.877 44.269 L 40.877 44.269 Q 42.494 44.269 42.494 45.746 L 42.494 45.746 L 42.494 48.483 L 41.444 48.483 L 41.444 45.865 L 41.444 45.865 Q 41.444 45.473 41.304 45.312 L 41.304 45.312 L 41.304 45.312 Q 41.164 45.151 40.835 45.151 L 40.835 45.151 L 39.967 45.151 L 39.967 47.209 L 39.967 47.209 Q 39.967 47.853 39.694 48.168 L 39.694 48.168 L 39.694 48.168 Q 39.421 48.483 38.847 48.483 L 38.847 48.483 L 38.847 48.483 Z  M 33.56 44.269 L 35.912 44.269 L 35.912 44.269 Q 37.529 44.269 37.529 45.746 L 37.529 45.746 L 37.529 48.483 L 36.479 48.483 L 36.479 45.865 L 36.479 45.865 Q 36.479 45.473 36.335 45.312 L 36.335 45.312 L 36.335 45.312 Q 36.192 45.151 35.87 45.151 L 35.87 45.151 L 34.61 45.151 L 34.61 48.483 L 33.56 48.483 L 33.56 44.269 L 33.56 44.269 Z " fill="rgb(255,255,255)"/></g></g></g></g></g></g></g></svg>