<?xml version="1.0" encoding="UTF-8"?>
<svg width="166px" height="48px" viewBox="0 0 166 48" version="1.1" xmlns="http://www.w3.org/2000/svg" xmlns:xlink="http://www.w3.org/1999/xlink">
    <title>fliplogo</title>
    <g id="fliplogo" stroke="none" stroke-width="1" fill="none" fill-rule="evenodd">
        <g transform="translate(-1.000000, 0.000000)" fill-rule="nonzero" id="Buttons_x5F_Released">
            <g>
                <path d="M144.23,3.419 C139.187,3.419 134.542,5.129 130.841,7.995 C129.7,6.858 127.818,5.31 125.916,5.22 C125.253,5.188 124.128,5.172 122.576,5.172 C119.963,5.172 116.97,5.217 116.936,5.218 L116.721,5.221 L116.514,5.129 C115.995,5.285 113.617,6.129 112.149,7.129 L106.477,7.129 C105.016,7.129 102.973,8.57 99.714,10.945 C99.59,11.035 99.463,11.206 99.34,11.295 C99.167,11.107 98.981,10.931 98.82,10.748 C97.771,9.546 96.465,8.312 94.873,7.914 L94.687,8.129 L74.517,8.129 C73.41,6.129 70.9,4.788 68.784,4.788 C68.556,4.788 68.258,4.652 67.899,4.635 C67.306,4.608 66.569,4.512 65.726,4.512 C60.607,4.512 56.753,5.912 54.27,8.735 C54.093,8.875 54.026,8.86 53.936,8.86 C53.698,8.86 53.294,8.766 52.829,8.666 C51.787,8.442 50.214,8.1 47.778,8.1 L39.767,8.147 L39.413,8.349 C38.449,8.903 33.625,11.729 32.07,13.719 C31.973,13.742 31.622,13.757 31.303,13.711 C30.814,10.514 28.615,5.966 22.672,5.966 C20.081,5.966 18.238,6.941 17.316,7.574 C17.024,7.538 16.665,7.51 16.251,7.51 C13.935,7.51 8.297,8.492 5.521,17.596 L5.51,17.817 L5.51,25.275 C4.51,26.111 3.82,27.879 3.754,30.633 C3.7,33 3.7,34.911 3.717,36.307 C3.724,36.85 3.717,37.419 3.717,37.819 C3.717,42.298 8.6,47.131 13.229,47.131 L13.426,47.131 L13.617,46.986 C13.763,46.948 17.242,45.986 19.577,44.187 C20.098,43.785 20.699,43.558 21.361,43.558 C21.985,43.558 22.449,43.726 22.449,43.726 L23.223,44.056 L23.968,43.556 C25.678,44.702 29.495,46.941 33.211,46.941 C36.558,46.941 39.019,45.597 40.488,44.794 C40.832,44.606 41.253,44.376 41.443,44.307 C43.092,44.305 47.874,44.219 50.022,43.384 C50.162,43.459 50.365,43.588 50.526,43.69 C51.614,44.38 53.43,45.534 56.926,45.546 C57.007,45.551 57.142,45.559 57.323,45.559 C58.788,45.559 63.585,45.117 66.643,39.7 C68.162,40.288 69.793,40.418 70.007,40.432 L72.862,40.406 C73.692,41.784 75.587,44.134 78.762,44.134 L90.078,44.134 L90.382,44.029 C91.172,43.675 91.746,43.338 92.163,43.031 C93.266,43.859 95.033,45.135 96.988,45.135 L103.668,45.135 L103.907,45.071 C104.396,44.907 105.476,44.536 106.207,44.141 C106.424,44.126 106.836,44.116 107.592,44.116 C108.682,44.116 109.977,44.149 110.746,44.172 C111.659,45.166 113.584,46.944 115.654,46.944 C118.076,46.944 120.64,46.835 122.982,46.036 C123.458,45.874 124.101,45.828 124.782,45.776 C126.625,45.639 129.089,45.452 131.187,42.907 C134.83,45.61 139.337,47.212 144.224,47.212 C156.314,47.212 166.118003,37.41 166.118003,25.319 C166.124,13.222 156.32,3.419 144.23,3.419 Z M8.512,18.285 C10.513,11.613 14.261,10.609 16.261,10.609 C16.895,10.609 17.304,10.712 17.305,10.712 L18.147,10.932 L18.781,10.352 C18.839,10.299 20.217,9.066 22.679,9.066 C27.976,9.066 28.303,14.388 28.324,14.989 L28.349,16.047 L29.345,16.407 C29.469,16.452 30.595,16.848 31.771,16.848 C33.325,16.848 34.133,16.168 34.518,15.626 C35.309,14.562 38.533,12.461 40.613,11.24 L47.794,11.196 C49.891,11.196 51.216,11.481 52.184,11.689 C52.824,11.826 53.375,11.945 53.943,11.945 C54.851,11.945 55.626,11.64 56.38,10.986 L56.541,10.824 C58.432,8.622 61.438,7.552 65.733,7.552 C66.503,7.552 67.2,7.585 67.759,7.611 C68.176,7.631 68.526,7.647 68.79,7.647 C69.605,7.647 71.525,9.208 72.807,10.485 L73.26,11.132 L94.264,11.132 C94.918,11.132 95.895,12.334 96.493,13.02 C97.488,14.161 98.21,14.889 99.279,14.889 C99.587,14.889 99.888,14.764 100.154,14.617 C100.425,14.468 100.798,13.972 101.545,13.428 C102.551,12.695 105.611,11.133 106.483,10.133 L113.504,10.133 L113.968,9.783 C114.471,9.186 116.125,8.567 117.212,8.214 C117.953,8.204 120.4,8.222 122.579,8.222 C124.082,8.222 125.154,8.262 125.769,8.291 C126.258,8.314 126.935,8.725 127.601,9.25 C127.917,9.499 128.232,9.783 128.523,10.063 C128.5,10.088 128.478,10.12 128.454,10.145 C127.558,9.296 126.475,8.492 125.769,8.459 C125.154,8.43 124.081,8.416 122.579,8.416 C120.4,8.416 117.953,8.448 117.212,8.459 C116.125,8.812 114.471,9.758 113.968,10.355 L113.504,11.133 L106.483,11.133 C105.612,11.133 102.549,13.243 101.545,13.976 C100.798,14.521 100.427,14.677 100.154,14.826 C99.888,14.972 99.587,14.993 99.279,14.993 C98.21,14.993 97.488,14.263 96.493,13.121 C95.892,12.434 94.919,11.133 94.264,11.133 L73.259,11.133 L72.806,10.557 C71.525,9.281 69.605,7.853 68.789,7.853 C68.524,7.853 68.175,7.806 67.758,7.787 C67.198,7.761 66.501,7.713 65.732,7.713 C61.437,7.713 58.43,8.776 56.54,10.978 L56.379,11.135 C55.625,11.79 54.851,12.093 53.942,12.093 C53.375,12.093 52.823,11.973 52.183,11.836 C51.215,11.628 49.89,11.343 47.793,11.343 L40.612,11.387 C38.532,12.607 35.308,14.708 34.517,15.773 C34.132,16.315 33.324,16.995 31.77,16.995 C30.594,16.995 29.468,16.599 29.344,16.554 L28.348,16.194 L28.323,15.136 C28.302,14.535 27.975,9.213 22.678,9.213 C20.216,9.213 18.837,10.447 18.78,10.5 L18.145,11.08 L17.302,10.86 C17.301,10.86 16.893,10.757 16.26,10.757 C14.26,10.757 10.512,11.76 8.512,18.432 L8.512,18.285 L8.512,18.285 Z M6.801,30.711 C6.862,28.198 8.009,26.982 8.04,26.949 L8.513,26.493 L8.513,26.636 L8.04,27.093 C8.009,27.126 6.863,28.342 6.803,30.854 C6.777,31.975 6.769,32.991 6.77,33.899 C6.768,32.954 6.774,31.891 6.801,30.711 Z M128.777,40.958 C124.8,36.993 122.338,31.516 122.338,25.457 C122.338,25.439 122.34,25.425 122.34,25.408 C122.366,31.464 124.85,36.935 128.844,40.885 C128.822,40.912 128.799,40.932 128.777,40.958 Z" id="形状" fill="#333333" opacity="0.3"></path>
                <g id="编组">
                    <g>
                        <path d="M141.23,0.813 C136.187,0.813 131.542,2.523 127.841,5.389 C126.7,4.252 124.818,2.704 122.916,2.614 C122.253,2.582 121.128,2.566 119.576,2.566 C116.963,2.566 113.97,2.611 113.936,2.612 L113.721,2.615 L113.514,2.677 C112.995,2.833 110.617,3.593 109.149,4.832 L103.477,4.832 C102.016,4.832 99.973,6.119 96.714,8.494 C96.59,8.584 96.463,8.678 96.34,8.766 C96.167,8.578 95.981,8.363 95.82,8.181 C94.771,6.979 93.465,5.484 91.873,5.085 L91.687,5.039 L71.517,5.039 C70.41,4.016 67.9,1.941 65.784,1.941 C65.556,1.941 65.258,1.926 64.899,1.909 C64.306,1.882 63.569,1.846 62.726,1.846 C57.607,1.846 53.753,3.277 51.27,6.099 C51.093,6.239 51.026,6.239 50.936,6.239 C50.698,6.239 50.294,6.153 49.829,6.051 C48.787,5.827 47.214,5.489 44.778,5.489 L36.767,5.538 L36.413,5.741 C35.449,6.295 30.625,9.121 29.07,11.112 C28.973,11.135 28.622,11.151 28.303,11.104 C27.814,7.907 25.615,3.359 19.672,3.359 C17.081,3.359 15.238,4.334 14.316,4.967 C14.024,4.931 13.665,4.903 13.251,4.903 C10.935,4.903 5.245,5.885 2.469,14.989 L2.404,15.21 L2.404,22.668 C1.779,23.505 0.766,25.273 0.701,28.027 C0.644,30.391 0.67,32.3 0.687,33.695 C0.694,34.24 0.701,34.713 0.701,35.113 C0.701,39.592 5.597,44.33 10.226,44.33 L10.423,44.33 L10.614,44.281 C10.76,44.243 14.239,43.329 16.574,41.53 C17.095,41.128 17.696,40.925 18.358,40.925 C18.982,40.925 19.446,41.106 19.446,41.106 L20.22,41.442 L20.965,40.944 C22.675,42.09 26.492,44.332 30.208,44.332 C33.555,44.332 36.016,42.987 37.485,42.185 C37.829,41.997 38.25,41.769 38.44,41.701 C40.089,41.697 44.871,41.611 47.019,40.777 C47.159,40.851 47.362,40.98 47.523,41.084 C48.611,41.773 50.427,42.926 53.923,42.939 C54.004,42.943 54.139,42.952 54.32,42.952 C55.785,42.952 60.582,42.509 63.64,37.092 C65.159,37.68 66.79,37.811 67.004,37.825 L69.859,37.828 C70.689,39.206 72.584,41.585 75.759,41.585 L87.075,41.585 L87.379,41.447 C88.169,41.093 88.743,40.756 89.16,40.447 C90.264,41.275 92.03,42.551 93.984,42.551 L100.665,42.551 L100.904,42.471 C101.394,42.308 102.472,41.929 103.204,41.535 C103.421,41.52 103.833,41.505 104.589,41.505 C105.678,41.505 106.973,41.537 107.743,41.56 C108.656,42.554 110.581,44.331 112.65,44.331 C115.073,44.331 117.636,44.221 119.98,43.422 C120.455,43.26 121.097,43.213 121.779,43.163 C123.622,43.026 126.086,42.838 128.185,40.293 C131.827,42.997 136.334,44.599 141.22,44.599 C153.312,44.599 163.115006,34.796 163.115006,22.705 C163.124,10.616 153.32,0.813 141.23,0.813 Z M121.561,40.076 C120.714,40.138 119.839,40.202 118.992,40.493 C116.809,41.236 114.112,41.236 112.662,41.236 C111.867,41.236 110.423,39.974 109.686,39.066 L109.244,38.513 L108.535,38.488 C108.444,38.484 106.315,38.41 104.598,38.41 C103.147,38.41 102.678,38.463 102.41,38.515 L102.068,38.597 L101.81,38.771 C101.618,38.9 100.882,39.203 100.164,39.454 L93.992,39.454 C93,39.454 91.691,38.47 90.909,37.881 C90.148,37.309 89.646,36.932 88.951,36.932 C88.313,36.932 87.746,37.289 87.467,37.846 C87.279,38.004 86.842,38.268 86.403,38.487 L75.767,38.487 C73.462,38.487 72.236,35.702 72.226,35.68 L71.828,34.729 L67.179,34.729 C66.625,34.684 65.16,34.471 64.266,33.97 C63.881,33.755 63.468,33.709 63.19,33.709 C62.358,33.709 61.682,34.09 61.381,34.73 C59.154,39.482 55.418,39.851 54.327,39.851 C54.221,39.851 54.151,39.847 54.14,39.847 L53.991,39.838 C51.354,39.838 50.153,39.076 49.188,38.464 C48.542,38.054 47.873,37.629 46.999,37.629 C46.763,37.629 46.527,37.661 46.296,37.728 L46.123,37.775 L45.964,37.863 C45.161,38.304 41.377,38.599 38.346,38.599 C37.592,38.599 36.927,38.961 36.007,39.463 C34.641,40.21 32.77,41.232 30.214,41.232 C26.393,41.232 21.988,37.873 21.945,37.837 L21.064,37.155 L19.813,37.989 C19.423,37.899 18.926,37.824 18.363,37.824 C17.019,37.824 15.749,38.256 14.687,39.074 C13.13,40.272 10.73,41.024 10.037,41.223 C7.136,41.082 3.803,37.85 3.803,35.11 C3.803,34.7 3.797,34.214 3.789,33.654 C3.771,32.283 3.748,30.405 3.802,28.098 C3.863,25.585 5.006,24.37 5.037,24.336 L5.507,23.88 L5.507,15.671 C7.612,8.999 11.258,7.995 13.258,7.995 C13.892,7.995 14.303,8.098 14.304,8.098 L15.147,8.318 L15.782,7.738 C15.84,7.685 17.219,6.452 19.68,6.452 C24.977,6.452 25.304,11.774 25.325,12.375 L25.35,13.433 L26.346,13.793 C26.47,13.838 27.596,14.234 28.772,14.234 C30.326,14.234 31.134,13.554 31.519,13.012 C32.31,11.948 35.534,9.847 37.614,8.626 L44.795,8.582 C46.892,8.582 48.217,8.867 49.185,9.075 C49.825,9.212 50.376,9.331 50.944,9.331 C51.852,9.331 52.627,9.026 53.381,8.372 L53.542,8.21 C55.433,6.008 58.439,4.938 62.734,4.938 C63.504,4.938 64.201,4.971 64.76,4.997 C65.177,5.017 65.527,5.033 65.791,5.033 C66.606,5.033 68.526,6.401 69.808,7.678 L70.261,8.132 L91.264,8.132 C91.918,8.41 92.895,9.528 93.493,10.214 C94.487,11.355 95.21,12.179 96.278,12.179 C96.587,12.179 96.887,12.102 97.153,11.955 C97.424,11.806 97.798,11.538 98.545,10.993 C99.551,10.26 102.61,8.029 103.483,7.925 L110.504,7.925 L110.968,7.372 C111.472,6.775 113.125,6.054 114.212,5.702 C114.953,5.692 117.4,5.66 119.579,5.66 C121.082,5.66 122.155,5.675 122.77,5.704 C123.258,5.727 123.934,6.125 124.602,6.65 C124.917,6.899 125.231,7.176 125.522,7.457 C121.698,11.399 119.335,16.773 119.335,22.702 C119.335,28.795 121.826,34.305 125.842,38.273 C124.579,39.848 123.23,39.952 121.561,40.076 Z" id="形状" fill="#28A5DA"></path>
                        <polygon id="路径" fill="#FFFFFF" points="124.604 6.655 114.997 19.961 117.527 38.562 125.674 38.602 126.016 38.212 127.811 35.639 124.033 23.384 128.602 10.035 124.691 6.725"></polygon>
                        <path d="M121.561,40.219 C120.714,40.282 119.839,40.346 118.992,40.636 C116.809,41.379 114.112,41.379 112.662,41.379 C111.867,41.379 110.423,40.117 109.686,39.209 L109.244,38.655 L108.535,38.63 C108.444,38.627 106.315,38.552 104.598,38.552 C103.147,38.552 102.678,38.606 102.41,38.657 L102.068,38.74 L101.81,38.913 C101.618,39.042 100.882,39.345 100.164,39.596 L93.992,39.596 C93,39.596 91.691,38.612 90.909,38.024 C90.148,37.452 89.646,37.075 88.951,37.075 C88.313,37.075 87.746,37.432 87.467,37.99 C87.279,38.147 86.842,38.41 86.403,38.629 L75.767,38.629 C73.462,38.629 72.236,35.844 72.226,35.821 L71.828,34.873 L67.179,34.873 C66.625,34.827 65.16,34.615 64.266,34.112 C63.881,33.897 63.468,33.852 63.19,33.852 C62.358,33.852 61.682,34.233 61.381,34.873 C59.154,39.625 55.418,39.995 54.327,39.995 C54.221,39.995 54.151,39.991 54.14,39.991 L53.991,39.982 C51.354,39.982 50.153,39.22 49.188,38.609 C48.542,38.2 47.873,37.775 46.999,37.775 C46.763,37.775 46.527,37.806 46.296,37.873 L46.123,37.921 L45.964,38.008 C45.161,38.449 41.377,38.745 38.346,38.745 C37.592,38.745 36.927,39.107 36.007,39.609 C34.641,40.357 32.77,41.379 30.214,41.379 C26.393,41.379 21.988,38.02 21.945,37.984 L21.064,37.301 L19.813,38.135 C19.423,38.046 18.926,37.97 18.363,37.97 C17.019,37.97 15.749,38.402 14.687,39.22 C13.13,40.42 10.73,41.171 10.037,41.371 C7.135,41.232 3.802,38 3.802,35.26 C3.802,34.85 3.796,34.364 3.788,33.803 C3.77,32.432 3.747,30.555 3.801,28.248 C3.862,25.734 5.005,24.519 5.036,24.486 L5.506,24.029 L5.506,15.821 C7.611,9.149 11.257,8.146 13.257,8.146 C13.891,8.146 14.302,8.249 14.303,8.249 L15.146,8.469 L15.781,7.889 C15.839,7.836 17.218,6.602 19.679,6.602 C24.976,6.602 25.303,11.925 25.324,12.525 L25.349,13.583 L26.345,13.943 C26.469,13.988 27.595,14.384 28.771,14.384 C30.325,14.384 31.133,13.705 31.518,13.162 C32.309,12.098 35.533,9.996 37.613,8.776 L44.794,8.732 C46.891,8.732 48.216,9.017 49.184,9.224 C49.824,9.362 50.375,9.48 50.943,9.48 C51.851,9.48 52.626,9.175 53.38,8.521 L53.541,8.36 C55.432,6.158 58.438,5.088 62.733,5.088 C63.503,5.088 64.2,5.121 64.759,5.147 C65.176,5.167 65.526,5.183 65.79,5.183 C66.605,5.183 68.525,6.551 69.807,7.827 L70.26,8.282 L91.264,8.282 C91.918,8.56 92.895,9.677 93.493,10.364 C94.488,11.505 95.21,12.329 96.279,12.329 C96.587,12.329 96.888,12.252 97.154,12.105 C97.425,11.956 97.798,11.688 98.545,11.143 C99.551,10.41 102.611,8.179 103.483,8.075 L110.504,8.075 L110.968,7.522 C111.471,6.925 113.125,6.204 114.212,5.852 C114.953,5.841 117.4,5.81 119.579,5.81 C121.082,5.81 122.154,5.825 122.769,5.854 C123.492,5.888 124.618,6.734 125.523,7.607 C121.698,11.549 119.335,16.923 119.335,22.852 C119.335,28.946 121.826,34.456 125.842,38.423 C124.579,39.992 123.23,40.096 121.561,40.219 Z" id="路径" fill="#FFFFFF"></path>
                        <polygon id="路径" fill="#FFFFFF" points="138.335 5.607 150.031 10.254 157.621 14.695 157.079 28.068 150.65 36.514 133.378 38.292 125.246 32.02 124.859 16.761 130.154 7.699"></polygon>
                        <g transform="translate(129.000000, 14.000000)" fill="#F9A737">
                            <path d="M10.395,11.008 C10.291,7.2 9.936,2.799 9.606,1.676 C9.606,1.674 9.606,1.673 9.604,1.671 C9.604,1.664 9.608,1.657 9.606,1.65 C9.376,0.785 9.278,0.695 8.502,0.695 L5.564,0.695 C4.954,0.695 4.424,0.814 4.459,1.65 C4.486,2.411 4.954,2.605 5.564,2.605 L8.05,2.605 C8.279,3.986 8.597,7.193 8.668,10.313 C8.742,13.501 7.839,17.399 4.974,17.399 C3.166,17.399 3.168,15.659 3.101,15.307 C2.976,14.649 2.705,14.194 2.084,14.233 C1.465,14.272 1.087,14.727 1.164,15.502 C1.242,16.276 1.28,19.0240002 4.936,19.0240002 C8.871,19.025 10.488,14.343 10.395,11.008 Z" id="路径"></path>
                            <path d="M4.936,19.275 C1.239,19.275 1.004,16.55 0.927,15.657 L0.915,15.525 C0.868,15.058 0.968,14.666 1.203,14.388 C1.41,14.144 1.709,14.003 2.066,13.982 C2.754,13.939 3.172,14.371 3.342,15.257 C3.351,15.298 3.359,15.357 3.366,15.429 C3.47,16.279 3.739,17.146 4.97,17.146 C5.676,17.146 6.292,16.882 6.8,16.364 C7.873,15.265 8.478,13.004 8.414,10.316 C8.351,7.474 8.072,4.424 7.832,2.853 L5.56,2.853 C4.691,2.853 4.234,2.45 4.205,1.658 C4.189,1.275 4.282,0.977 4.476,0.774 C4.756,0.482 5.181,0.443 5.56,0.443 L8.498,0.443 C9.441,0.443 9.6,0.659 9.848,1.583 L9.864,1.642 L9.862,1.656 C10.212,2.927 10.55,7.486 10.645,10.999 C10.702,12.995 10.133,15.975 8.356,17.803 C7.408,18.781 6.256,19.275 4.936,19.275 Z M2.156,14.48 L2.099,14.482 C1.874,14.496 1.703,14.573 1.582,14.711 C1.436,14.882 1.378,15.148 1.41,15.476 L1.423,15.615 C1.505,16.56 1.694,18.775 4.935,18.775 C6.117,18.775 7.146,18.332 7.997,17.457 C9.666,15.741 10.197,12.915 10.143,11.016 C10.039,7.131 9.672,2.8 9.366,1.747 L9.354,1.68 C9.157,0.946 9.132,0.946 8.5,0.946 L5.562,0.946 C5.179,0.946 4.958,1.001 4.837,1.124 C4.739,1.226 4.694,1.4 4.704,1.642 C4.724,2.163 4.956,2.357 5.559,2.357 L8.257,2.357 L8.292,2.566 C8.541,4.082 8.846,7.311 8.913,10.309 C8.935,11.367 8.884,14.951 7.156,16.717 C6.552,17.336 5.814,17.651 4.968,17.651 C3.13,17.651 2.934,16.026 2.868,15.494 C2.861,15.436 2.855,15.39 2.849,15.356 C2.707,14.584 2.418,14.48 2.156,14.48 Z" id="形状"></path>
                        </g>
                        <g transform="translate(133.000000, 10.000000)" fill="#F9A737">
                            <ellipse id="椭圆形" transform="translate(3.108349, 2.059749) rotate(157.771947) translate(-3.108349, -2.059749) " cx="3.1083493" cy="2.0597493" rx="1.96403081" ry="1.35602128"></ellipse>
                            <path d="M2.63,3.769 L2.63,3.769 C1.883,3.769 1.283,3.436 1.065,2.898 C0.897,2.485 0.964,2.01 1.257,1.562 C1.531,1.143 1.977,0.792 2.508,0.575 C2.864,0.43 3.241,0.353 3.6,0.353 C4.346,0.353 4.946,0.686 5.164,1.224 C5.294,1.541 5.284,1.898 5.135,2.255 C4.909,2.794 4.38,3.277 3.721,3.547 C3.365,3.692 2.988,3.769 2.63,3.769 Z M3.6,0.854 C3.305,0.854 2.996,0.918 2.7,1.039 C2.261,1.218 1.895,1.502 1.678,1.837 C1.48,2.143 1.426,2.454 1.532,2.71 C1.673,3.055 2.094,3.27 2.635,3.27 C2.928,3.27 3.239,3.206 3.536,3.085 C4.075,2.865 4.502,2.483 4.678,2.064 C4.746,1.902 4.806,1.658 4.706,1.415 C4.561,1.068 4.139,0.854 3.6,0.854 Z" id="形状"></path>
                        </g>
                        <g transform="translate(141.000000, 16.000000)" fill="#F9A737">
                            <path d="M13.199,2.017 C13.199,2.017 12.941,0.34 10.269,0.34 C8.377,0.34 7.222,1.124 6.683,1.535 L6.673,1.261 C6.642,0.72 6.174,0.309 5.636,0.342 L2.077,0.563 C1.537,0.597 1.126,1.062 1.159,1.603 C1.192,2.144 1.658,2.555 2.198,2.521 L4.669,2.368 L4.864,11.103 L3.768,11.135 C3.233,11.154 2.815,11.601 2.83,12.133 C2.846,12.667 3.293,13.087 3.828,13.071 L8.628,12.921 C9.163,12.904 9.582,12.457 9.566,11.922 C9.547,11.388 9.101,10.968 8.568,10.985 L7.125,11.03 L6.823,4.541 C7.347,2.928 9.042,2.143 10.109,2.114 C11.573,2.076 11.215,4.139 12.588,3.747 C13.678,3.439 13.199,2.017 13.199,2.017 Z" id="路径"></path>
                            <path d="M3.802,13.323 C3.141,13.323 2.606,12.804 2.585,12.142 C2.575,11.818 2.691,11.506 2.915,11.271 C3.139,11.034 3.439,10.898 3.766,10.885 L4.612,10.861 L4.428,2.632 L2.139,2.772 C1.493,2.772 0.952,2.265 0.911,1.617 C0.87,0.939 1.387,0.354 2.062,0.312 L5.695,0.088 C6.285,0.088 6.784,0.506 6.9,1.068 C7.499,0.67 8.614,0.089 10.267,0.089 C13.121,0.089 13.433,1.901 13.445,1.978 L13.445,1.978 C13.449,1.978 13.716,2.799 13.394,3.413 C13.245,3.699 12.998,3.892 12.662,3.988 C12.523,4.028 12.392,4.048 12.271,4.048 L12.271,4.048 C11.663,4.048 11.392,3.578 11.156,3.164 C10.91,2.735 10.698,2.365 10.154,2.365 C9.157,2.391 7.586,3.094 7.079,4.577 L7.367,10.772 L8.564,10.735 L8.564,10.735 C9.265,10.735 9.797,11.254 9.82,11.915 C9.841,12.586 9.31,13.149 8.64,13.171 L3.802,13.323 Z M4.916,2.103 L5.123,11.346 L3.781,11.389 C3.59,11.395 3.411,11.475 3.279,11.616 C3.148,11.756 3.08,11.936 3.086,12.13 C3.098,12.521 3.412,12.825 3.803,12.825 L3.803,13.075 L3.826,12.825 L8.626,12.675 C9.022,12.662 9.334,12.33 9.32,11.935 C9.308,11.544 8.994,11.24 8.603,11.24 L6.89,11.294 L6.576,4.513 L6.59,4.47 C7.157,2.726 8.989,1.9 10.11,1.87 C11.002,1.859 11.325,2.452 11.591,2.919 C11.823,3.323 11.969,3.552 12.274,3.552 L12.274,3.552 C12.348,3.552 12.434,3.538 12.528,3.512 C12.729,3.454 12.87,3.348 12.955,3.186 C13.183,2.76 12.968,2.106 12.965,2.1 C12.944,2 12.679,0.594 10.275,0.594 C8.341,0.594 7.212,1.455 6.837,1.738 L6.447,2.034 L6.426,1.271 C6.405,0.895 6.083,0.594 5.697,0.594 L2.093,0.817 C1.693,0.842 1.384,1.19 1.408,1.592 C1.43,1.976 1.753,2.278 2.137,2.278 L4.916,2.103 Z" id="形状"></path>
                        </g>
                        <g transform="translate(8.000000, 10.000000)" fill="#F9A737">
                            <path d="M13.075,1.752 L12.661,10.633 C12.661,10.633 12.57,11.563 11.525,11.563 C10.479,11.563 10.014,10.982 9.976,10.13 C9.937,9.278 10.171,6.641 7.73,5.406 C5.509,4.283 4.972,6.138 4.864,6.722 C4.78,7.179 4.7,10.344 4.771,10.736 C4.925,11.587 5.597,12.151 6.965,12.526 C7.639,12.712 14.275,13.694 14.275,18.069 C14.275,23.026 10.441,24.305 8.04,24.305 C6.413,24.305 3.87,23.233 3.444,22.846 C3.444,22.846 3.47,25.454 3.47,25.764 C3.47,26.076 3.082,26.551 2.385,26.551 C1.689,26.551 0.991,26.163 0.991,25.621 C0.991,25.079 0.991,16.83 0.991,16.83 C0.991,16.83 0.994,15.294 2.424,15.396 C3.676,15.486 3.585,17.796 3.585,18.726 C3.585,19.657 4.825,21.668 7.632,21.668 C10.441,21.668 11.641,20.196 11.641,18.376 C11.641,16.558 10.634,16.285 9.898,16.091 C9.163,15.9 7.127,15.322 5.368,14.892 C4.062,14.572 2.531,14.001 2.34,12.154 C2.205,10.865 2.236,7.479 2.309,6.644 C2.377,5.857 2.502,2.307 6.104,2.307 C9.706,2.307 10.364,4.321 10.364,4.321 L10.364,1.752 C10.364,1.752 10.442,0.835 11.68,0.835 C12.919,0.835 13.075,1.752 13.075,1.752 Z" id="路径"></path>
                            <path d="M2.385,26.799 C1.595,26.799 0.741,26.348 0.741,25.619 L0.741,16.828 C0.743,16.22 1.085,15.05 2.442,15.146 C3.853,15.248 3.841,17.478 3.836,18.547 L3.835,18.724 C3.835,19.492 4.965,21.416 7.632,21.416 C10.021,21.416 11.391,20.308 11.391,18.374 C11.391,16.741 10.564,16.522 9.834,16.331 C9.626,16.276 9.315,16.19 8.937,16.088 C7.994,15.83 6.568,15.442 5.308,15.131 C3.917,14.79 2.295,14.146 2.09,12.175 C1.956,10.89 1.985,7.471 2.059,6.617 L2.068,6.51 C2.3,3.552 3.658,2.052 6.103,2.052 C8.388,2.052 9.548,2.835 10.113,3.464 L10.113,1.747 C10.147,1.33 10.518,0.58 11.679,0.58 C12.826,0.58 13.255,1.315 13.322,1.705 L13.326,1.732 L12.911,10.64 C12.871,11.054 12.531,11.807 11.525,11.807 C10.429,11.807 9.774,11.198 9.726,10.136 C9.722,10.05 9.721,9.946 9.72,9.827 C9.707,8.802 9.681,6.669 7.616,5.624 C7.187,5.406 6.803,5.297 6.474,5.297 C5.486,5.297 5.19,6.322 5.109,6.763 C5.026,7.216 4.952,10.333 5.016,10.687 C5.153,11.444 5.775,11.937 7.03,12.28 C7.088,12.296 7.188,12.315 7.326,12.344 C12.102,13.358 14.524,15.282 14.524,18.063 C14.524,22.85 11.03,24.548 8.039,24.548 C6.648,24.548 4.622,23.795 3.698,23.297 C3.706,24.061 3.719,25.529 3.719,25.757 C3.72,26.188 3.245,26.799 2.385,26.799 Z M2.289,15.643 C1.281,15.643 1.243,16.709 1.242,16.831 L1.242,25.62 C1.242,25.974 1.787,26.3 2.386,26.3 C2.964,26.3 3.221,25.911 3.221,25.764 C3.221,25.453 3.195,22.848 3.195,22.848 L3.189,22.274 L3.613,22.662 C3.989,23.004 6.448,24.058 8.041,24.058 C10.802,24.058 14.026,22.49 14.026,18.072 C14.026,15.56 11.737,13.801 7.223,12.843 C7.074,12.813 6.962,12.787 6.901,12.772 C5.455,12.376 4.7,11.745 4.526,10.786 C4.444,10.334 4.536,7.135 4.619,6.682 C4.7,6.242 5.075,4.807 6.476,4.807 C6.883,4.807 7.344,4.935 7.844,5.188 C10.18,6.37 10.208,8.795 10.221,9.832 C10.222,9.944 10.223,10.043 10.227,10.124 C10.262,10.928 10.688,11.319 11.526,11.319 C12.336,11.319 12.411,10.644 12.414,10.613 L12.825,1.777 C12.792,1.646 12.599,1.09 11.68,1.09 C10.715,1.09 10.62,1.71 10.613,1.78 L10.614,5.894 L10.127,4.4 C10.102,4.326 9.458,2.559 6.105,2.559 C2.882,2.559 2.646,5.567 2.568,6.556 L2.558,6.668 C2.486,7.507 2.458,10.868 2.589,12.13 C2.761,13.776 4.055,14.317 5.429,14.651 C6.696,14.963 8.124,15.352 9.07,15.61 C9.448,15.714 9.758,15.798 9.964,15.852 C10.686,16.042 11.894,16.36 11.894,18.378 C11.894,20.596 10.302,21.92 7.635,21.92 C4.775,21.92 3.338,19.873 3.338,18.727 L3.339,18.548 C3.344,17.628 3.354,15.714 2.408,15.647 C2.366,15.643 2.327,15.643 2.289,15.643 Z" id="形状"></path>
                        </g>
                        <g transform="translate(23.000000, 16.000000)" fill="#F9A737">
                            <path d="M12.945,7.111 C12.945,6.103 12.945,1.741 12.945,1.741 C12.945,1.741 12.79,0.605 11.706,0.605 C10.621,0.605 10.467,1.844 10.467,1.844 L10.467,4.271 C10.467,4.271 9.589,2.309 6.181,2.309 C2.773,2.309 1.069,4.788 1.069,7.421 C1.069,10.055 1.069,14.03 1.069,15.036 C1.069,16.534 2.051,20.549 7.163,20.549 C12.275,20.549 14.03,17.128 14.03,15.477 C14.03,13.826 14.03,13.206 14.03,12.714 C14.03,12.222 13.901,11.371 12.714,11.371 C11.655,11.371 11.655,12.637 11.655,12.637 L11.655,15.065 C11.655,15.065 11.654,18.213 7.55,18.213 C3.446,18.213 3.497,15.192 3.497,14.366 C3.497,13.54 3.497,7.691 3.497,7.691 C3.497,7.691 3.729,4.966 6.414,4.966 C9.099,4.966 9.899,6.775 10.468,7.691 C10.637,7.968 10.881,8.556 11.707,8.556 C12.531,8.557 12.945,8.118 12.945,7.111 Z" id="路径"></path>
                            <path d="M7.162,20.799 C2.144,20.799 0.818,17.03 0.818,15.036 L0.818,7.421 C0.818,4.838 2.497,2.059 6.18,2.059 C8.431,2.059 9.632,2.883 10.216,3.501 L10.216,1.844 C10.28,1.309 10.672,0.355 11.705,0.355 C12.735,0.355 13.128,1.24 13.192,1.708 L13.194,7.111 C13.194,8.236 12.693,8.806 11.705,8.806 C10.816,8.806 10.481,8.222 10.302,7.908 L10.252,7.823 C10.2,7.74 10.147,7.648 10.089,7.55 C9.54,6.622 8.71,5.219 6.412,5.219 C3.985,5.219 3.753,7.615 3.744,7.714 L3.745,14.367 C3.745,14.825 3.744,15.716 4.215,16.502 C4.796,17.473 5.917,17.963 7.548,17.963 C11.359,17.963 11.403,15.182 11.403,15.065 L11.403,12.637 C11.403,12.115 11.676,11.121 12.712,11.121 C13.722,11.121 14.2780004,11.687 14.2780004,12.714 L14.2780004,15.477 C14.279,17.145 12.487,20.799 7.162,20.799 Z M6.18,2.56 C2.822,2.56 1.318,5.002 1.318,7.422 L1.318,15.037 C1.318,15.09 1.385,20.3 7.162,20.3 C12.113,20.3 13.779,16.987 13.779,15.477 L13.779,12.715 C13.779,11.969 13.44,11.622 12.713,11.622 C11.934,11.622 11.905,12.535 11.904,12.639 L11.904,15.065 C11.904,15.098 11.853,18.463 7.549,18.463 C5.73,18.463 4.464,17.889 3.787,16.758 C3.245,15.854 3.246,14.832 3.246,14.397 L3.246,7.692 C3.25,7.641 3.532,4.718 6.413,4.718 C8.996,4.718 9.95,6.331 10.519,7.295 C10.576,7.389 10.628,7.479 10.679,7.561 L10.737,7.662 C10.902,7.951 11.107,8.308 11.706,8.308 C12.22,8.308 12.695,8.162 12.695,7.113 L12.695,1.744 C12.692,1.741 12.554,0.858 11.706,0.858 C10.858,0.858 10.721,1.837 10.715,1.879 L10.717,5.443 L10.238,4.376 C10.205,4.301 9.367,2.56 6.18,2.56 Z" id="形状"></path>
                        </g>
                        <g transform="translate(90.000000, 15.000000)" fill="#F9A737">
                            <path d="M12.141,6.95 C12.141,5.943 12.141,1.58 12.141,1.58 C12.141,1.58 11.985,0.444 10.901,0.444 C9.817,0.444 9.664,1.683 9.664,1.683 L9.664,4.11 C9.664,4.11 8.786,2.148 5.378,2.148 C1.972,2.148 0.269,4.627 0.269,7.26 C0.269,9.895 0.269,13.869 0.269,14.876 C0.269,16.374 1.248,20.389 6.361,20.389 C11.474,20.389 13.228,16.968 13.228,15.315 C13.228,13.664 13.228,13.044 13.228,12.552 C13.228,12.063 13.099,11.21 11.913,11.21 C10.853,11.21 10.853,12.475 10.853,12.475 L10.853,14.903 C10.853,14.903 10.853,18.051 6.749,18.051 C2.645,18.051 2.695,15.031 2.695,14.205 C2.695,13.378 2.695,7.531 2.695,7.531 C2.695,7.531 2.926,4.807 5.613,4.807 C8.298,4.807 9.097,6.615 9.667,7.531 C9.836,7.808 10.08,8.396 10.906,8.396 C11.727,8.396 12.141,7.957 12.141,6.95 Z" id="路径"></path>
                            <path d="M6.357,20.637 C1.337,20.637 0.013,16.868 0.013,14.875 L0.013,7.259 C0.013,4.676 1.691,1.897 5.373,1.897 C7.625,1.897 8.825,2.721 9.409,3.34 L9.409,1.683 C9.471,1.148 9.866,0.194 10.897,0.194 C11.926,0.194 12.321,1.078 12.383,1.546 L12.385,6.95 C12.385,8.075 11.885,8.646 10.897,8.646 C10.008,8.646 9.672,8.06 9.495,7.747 L9.444,7.662 C9.393,7.579 9.34,7.486 9.282,7.391 C8.731,6.461 7.903,5.058 5.604,5.058 C3.176,5.058 2.946,7.452 2.936,7.555 L2.936,14.206 C2.936,14.664 2.936,15.555 3.408,16.341 C3.989,17.311 5.108,17.802 6.741,17.802 C10.553,17.802 10.595,15.022 10.595,14.903 L10.595,12.477 C10.595,11.954 10.868,10.961 11.906,10.961 C12.916,10.961 13.4700104,11.525 13.4700104,12.553 L13.4700104,15.317 C13.475,16.982 11.682,20.637 6.357,20.637 Z M5.375,2.397 C2.018,2.397 0.514,4.839 0.514,7.259 L0.514,14.875 C0.514,14.928 0.581,20.137 6.358,20.137 C11.309,20.137 12.975,16.825 12.975,15.315 L12.975,12.551 C12.975,11.807 12.635,11.459 11.91,11.459 C11.131,11.459 11.1,12.371 11.1,12.475 L11.1,14.9 C11.1,14.935 11.048,18.298 6.746,18.298 C4.927,18.298 3.661,17.726 2.983,16.594 C2.44,15.691 2.442,14.668 2.442,14.234 L2.442,7.53 C2.446,7.478 2.727,4.556 5.608,4.556 C8.192,4.556 9.147,6.17 9.715,7.134 C9.772,7.229 9.823,7.317 9.874,7.399 L9.932,7.5 C10.098,7.789 10.302,8.146 10.901,8.146 C11.417,8.146 11.891,8.001 11.891,6.952 L11.891,1.582 C11.887,1.579 11.749,0.696 10.901,0.696 C10.047,0.696 9.917,1.675 9.912,1.717 L9.914,5.283 L9.435,4.214 C9.4,4.139 8.562,2.397 5.375,2.397 Z" id="形状"></path>
                        </g>
                        <g transform="translate(37.000000, 13.000000)" fill="#F9A737" id="形状">
                            <path d="M19.198,17.08 C18.811,17.08 17.882,16.966 17.882,18.011 C17.882,19.057 17.456,19.639 16.371,19.502 C14.648,19.27 14.745,15.106 14.745,12.086 C14.745,9.066 12.189,8.988 13.196,8.988 C14.203,8.988 16.185,6.675 16.061,3.992 C15.88,0.068 10.213,0.275 10.213,0.275 L1.965,0.275 C1.965,0.275 0.57,0.3 0.57,1.501 C0.57,2.701 1.948,2.792 1.948,2.792 L3.784,2.792 L3.784,8.602 C1.074,8.602 1.732,11.505 3.397,11.331 C3.565,11.332 3.754,11.322 3.952,11.307 L3.952,18.342 C2.908,18.459 2.061,18.555 1.858,18.576 C1.311,18.637 0.907,18.888 1.035,20.128 C1.165,21.367 2.352,21.109 2.352,21.109 C2.352,21.109 8.372,20.611 9.352,20.353 C10.332,20.093 10.02,17.674 8.829,17.8 C8.411,17.844 7.493,17.946 6.457,18.062 L6.457,10.922 C8.008,10.629 9.635,10.29 10.614,10.324 C11.375,10.35 11.655,10.782 11.792,11.098 C12.435,12.586 12.389,16.145 12.421,17.581 C12.459,19.324 13.156,22.383 16.642,22.383 C20.128,22.383 20.437,19.246 20.437,18.279 C20.437,17.312 19.585,17.08 19.198,17.08 Z M6.458,8.32 L6.458,2.695 C6.458,2.695 13.273,2.03 13.273,4.419 C13.273,7.582 6.458,8.32 6.458,8.32 Z"></path>
                            <path d="M16.642,22.637 C12.597,22.637 12.197,18.776 12.171,17.591 C12.167,17.407 12.163,17.188 12.16,16.944 C12.14,15.376 12.102,12.455 11.562,11.203 C11.442,10.924 11.224,10.599 10.605,10.579 L10.471,10.577 C9.617,10.577 8.292,10.83 7.011,11.076 L6.706,11.134 L6.706,17.787 C7.627,17.684 8.422,17.597 8.802,17.558 C9.605,17.474 10.068,18.236 10.164,18.988 C10.252,19.67 10.055,20.431 9.415,20.599 C8.427,20.859 2.637,21.34 2.373,21.363 L2.374,21.363 C2.383,21.363 2.264,21.385 2.101,21.385 C1.358,21.385 0.867,20.926 0.787,20.157 C0.665,18.987 0.987,18.425 1.831,18.331 L3.702,18.121 L3.702,11.576 C3.606,11.581 3.514,11.584 3.429,11.584 C3.366,11.589 3.31,11.591 3.255,11.591 C2.294,11.591 1.698,10.749 1.698,9.968 C1.698,9.267 2.185,8.45 3.534,8.363 L3.534,3.047 L1.948,3.047 C1.374,3.01 0.32,2.641 0.32,1.506 C0.32,0.362 1.393,0.04 1.96,0.03 L10.212,0.03 C10.213,0.03 10.267,0.028 10.358,0.028 C11.322,0.028 16.137,0.219 16.311,3.986 C16.398,5.875 15.511,7.508 14.652,8.408 C14.309,8.767 13.964,9.019 13.648,9.146 C14.543,9.793 14.995,10.783 14.995,12.089 L14.994,12.55 C14.99,15.3 14.984,19.068 16.405,19.257 C16.496,19.271 16.584,19.277 16.667,19.277 C17.116,19.277 17.632,19.131 17.632,18.015 C17.632,17.23 18.074,16.829 18.946,16.829 L19.198,16.832 C19.797,16.832 20.687,17.219 20.687,18.285 C20.687,19.01 20.492,22.637 16.642,22.637 Z M10.472,10.074 C10.524,10.074 10.575,10.075 10.623,10.076 C11.297,10.099 11.767,10.411 12.021,11.002 C12.601,12.348 12.638,15.219 12.66,16.936 C12.663,17.18 12.666,17.397 12.671,17.582 C12.7,18.952 13.149,22.14 16.642,22.14 C19.931,22.14 20.187,19.191 20.187,18.286 C20.187,17.344 19.208,17.333 19.198,17.333 L18.946,17.33 C18.443,17.33 18.132,17.443 18.132,18.016 C18.132,19.47 17.335,19.778 16.667,19.778 C16.564,19.778 16.456,19.77 16.341,19.757 C14.484,19.507 14.489,15.812 14.494,12.553 L14.495,12.093 C14.495,10.114 13.341,9.509 12.962,9.31 C12.845,9.249 12.668,9.156 12.719,8.955 C12.77,8.747 12.958,8.747 13.197,8.747 C13.412,8.747 13.812,8.566 14.292,8.064 C15.043,7.277 15.893,5.745 15.813,4.011 C15.661,0.698 11.244,0.53 10.36,0.53 L10.224,0.532 L1.967,0.532 C1.855,0.535 0.822,0.586 0.822,1.508 C0.822,2.463 1.92,2.547 1.967,2.55 L4.036,2.55 L4.036,8.859 L3.786,8.859 C2.617,8.859 2.2,9.435 2.2,9.974 C2.2,10.546 2.655,11.166 3.374,11.091 L3.387,11.09 L3.431,11.09 C3.585,11.09 3.756,11.08 3.935,11.066 L4.205,11.045 L4.205,18.575 L1.889,18.835 C1.566,18.871 1.163,18.915 1.287,20.112 C1.341,20.629 1.616,20.889 2.104,20.889 C2.22,20.889 2.302,20.872 2.303,20.872 C2.394,20.861 8.343,20.368 9.291,20.119 C9.62,20.033 9.731,19.517 9.671,19.055 C9.607,18.55 9.327,18.008 8.858,18.059 C8.44,18.104 7.522,18.205 6.487,18.321 L6.21,18.35 L6.21,10.725 L6.921,10.588 C8.222,10.333 9.572,10.074 10.472,10.074 Z M6.208,8.6 L6.208,2.468 L6.434,2.447 C6.47,2.443 7.33,2.361 8.45,2.361 C11.769,2.361 13.524,3.073 13.524,4.42 C13.524,7.769 6.773,8.539 6.485,8.57 L6.208,8.6 Z M6.708,2.925 L6.708,8.035 C7.96,7.856 13.023,6.975 13.023,4.418 C13.023,3.011 9.824,2.859 8.449,2.859 C7.686,2.86 7.035,2.901 6.708,2.925 Z"></path>
                        </g>
                        <g transform="translate(53.000000, 9.000000)" fill="#F9A737" id="形状">
                            <path d="M22.532,16.42 C22.158,15.616 21.606,15.35 21.29,15.497 C21.164,15.557 20.018,16.09 18.692,16.708 L12.11,2.001 C12.11,1.99 12.111,1.981 12.111,1.97 C12.108,1.045 11.757,0.551 11.443,0.551 C11.128,0.552 4.519,0.573 4.519,0.573 C4.519,0.573 3.715,0.71 3.72,1.997 C3.724,3.283 4.319,3.415 4.319,3.415 C4.319,3.415 6.89,3.407 8.968,3.4 L6.251,17.506 C4.172,17.506 1.881,17.506 1.881,17.506 C1.881,17.506 0.99,17.634 0.99,18.867 C0.99,20.099 1.648,20.228 1.648,20.228 C1.648,20.228 9.413,20.228 9.665,20.228 C9.916,20.228 10.284,19.752 10.284,18.867 C10.284,17.98 9.897,17.506 9.549,17.506 C9.484,17.506 9.178,17.506 8.722,17.506 L9.12,15.893 L14.733,14.918 L16.129,17.9 C15.106,18.378 14.339,18.736 14.339,18.736 C14.339,18.736 13.586,19.228 14.108,20.344 C14.629,21.462 15.28,21.3 15.28,21.3 C15.28,21.3 22.317,18.021 22.546,17.912 C22.774,17.811 22.907,17.225 22.532,16.42 Z M9.729,13.427 L11.215,7.4 L13.868,13.068 L9.729,13.427 Z"></path>
                            <path d="M15.191,21.562 C14.953,21.562 14.348,21.455 13.882,20.454 C13.398,19.415 13.88,18.741 14.203,18.529 L15.798,17.782 L14.588,15.198 L9.324,16.111 L9.042,17.257 L9.549,17.257 C10.038,17.257 10.534,17.811 10.534,18.868 C10.534,19.877 10.093,20.48 9.665,20.48 L1.648,20.48 C1.565,20.466 0.74,20.291 0.74,18.868 C0.74,17.722 1.463,17.314 1.844,17.259 L6.044,17.257 L8.664,3.652 L4.29,3.666 L4.264,3.66 C4.183,3.642 3.473,3.443 3.469,1.998 C3.463,0.517 4.434,0.334 4.476,0.327 L11.441,0.302 C11.893,0.302 12.351,0.868 12.36,1.95 L18.815,16.375 L21.183,15.271 C21.272,15.23 21.369,15.209 21.471,15.209 C21.844,15.209 22.377,15.5 22.757,16.314 C23.184,17.228 23.038,17.96 22.651,18.142 L15.385,21.531 C15.326,21.55 15.272,21.562 15.191,21.562 Z M14.879,14.641 L16.462,18.024 L14.445,18.964 C14.421,18.985 13.924,19.361 14.335,20.242 C14.712,21.05 15.12,21.066 15.208,21.06 L22.44,17.689 C22.499,17.642 22.629,17.222 22.304,16.525 C22.006,15.884 21.575,15.64 21.394,15.722 L18.567,17.04 L11.86,2 C11.858,1.147 11.561,0.8 11.443,0.8 L4.52,0.822 C4.541,0.822 3.966,0.954 3.97,1.995 C3.972,2.899 4.283,3.121 4.365,3.164 L9.271,3.148 L6.458,17.755 L1.881,17.755 C1.85,17.765 1.24,17.896 1.24,18.866 C1.24,19.751 1.598,19.944 1.684,19.977 L9.664,19.977 C9.737,19.958 10.033,19.634 10.033,18.866 C10.033,18.09 9.712,17.755 9.548,17.755 L8.402,17.755 L8.916,15.673 L14.879,14.641 Z M9.403,13.707 L11.142,6.654 L14.246,13.288 L9.403,13.707 Z M11.289,8.147 L10.056,13.148 L13.492,12.851 L11.289,8.147 Z"></path>
                        </g>
                        <g transform="translate(71.000000, 12.000000)" fill="#F9A737">
                            <path d="M17.766,0.32 L1.566,0.627 C0.143,0.654 0.489,2.301 0.489,2.301 C0.489,2.301 1.23,7.781 1.398,8.517 C1.566,9.252 1.966,9.562 3.128,9.445 C4.289,9.33 3.98,8.245 3.98,8.245 L3.476,3.211 L8.549,3.042 L8.549,19.477 L6.103,19.477 C5.366,19.477 4.767,20.076 4.767,20.813 C4.767,21.55 5.366,22.149 6.103,22.149 L13.603,22.149 C14.341,22.149 14.939,21.55 14.939,20.813 C14.939,20.076 14.341,19.477 13.603,19.477 L11.485,19.477 L11.312,2.95 L16.255,2.785 C16.255,2.785 16.269,5.786 16.269,6.406 C16.269,7.026 16.98,7.286 17.652,7.282 C18.464,7.277 18.948,6.851 18.955,6.567 C18.961,6.283 19.045,4.243 19.045,2.126 C19.044,0.191 17.766,0.32 17.766,0.32 Z" id="路径"></path>
                            <path d="M13.603,22.398 L6.103,22.398 C5.228,22.398 4.517,21.687 4.517,20.812 C4.517,19.937 5.228,19.226 6.103,19.226 L8.299,19.226 L8.299,3.301 L3.751,3.453 L4.229,8.221 L4.229,8.221 C4.232,8.221 4.378,8.774 4.081,9.212 C3.893,9.49 3.58,9.652 3.153,9.695 C2.986,9.712 2.834,9.72 2.694,9.72 C1.798,9.72 1.338,9.375 1.154,8.573 C0.986,7.835 0.271,2.559 0.241,2.335 C0.236,2.315 0.054,1.417 0.515,0.838 C0.752,0.541 1.104,0.385 1.561,0.377 L17.815,0.068 C18.063,0.068 19.294,0.168 19.294,2.127 C19.294,3.877 19.236,5.557 19.213,6.275 L19.204,6.574 C19.193,7.032 18.566,7.528 17.652,7.533 C16.831,7.533 16.018,7.185 16.018,6.407 C16.018,5.899 16.009,3.785 16.006,3.045 L11.563,3.193 L11.731,19.227 L13.602,19.227 C14.477,19.227 15.188,19.938 15.188,20.813 C15.189,21.688 14.478,22.398 13.603,22.398 Z M6.103,19.727 C5.504,19.727 5.017,20.213 5.017,20.813 C5.017,21.413 5.504,21.899 6.103,21.899 L13.603,21.899 C14.2019967,21.899 14.689,21.412 14.689,20.813 C14.689,20.214 14.2019967,19.727 13.603,19.727 L11.238,19.727 L11.06,2.708 L16.505,2.527 L16.505,2.784 C16.505,2.784 16.519,5.786 16.519,6.406 C16.519,6.901 17.221,7.032 17.636,7.032 C18.37,7.028 18.701,6.657 18.704,6.561 L18.714,6.257 C18.736,5.542 18.794,3.868 18.794,2.126 C18.794,0.679 18.044,0.567 17.815,0.567 L1.571,0.876 C1.266,0.882 1.049,0.971 0.907,1.148 C0.594,1.541 0.732,2.243 0.734,2.25 C0.744,2.322 1.478,7.744 1.642,8.461 C1.754,8.953 1.955,9.22 2.694,9.22 C2.818,9.22 2.954,9.212 3.103,9.199 C3.375,9.172 3.565,9.082 3.667,8.932 C3.837,8.681 3.74,8.319 3.739,8.315 L3.2,2.97 L8.799,2.784 L8.799,19.726 L6.103,19.726 L6.103,19.727 Z" id="形状"></path>
                        </g>
                        <g transform="translate(103.000000, 10.000000)" fill="#F9A737">
                            <path d="M18.193,23.178 L16.659,23.378 L16.411,2.733 L18.398,2.733 C18.998,2.733 19.482,2.178 19.482,1.494 C19.482,0.81 18.998,0.255 18.398,0.255 L11.79,0.255 C11.189,0.255 10.705,0.81 10.705,1.494 C10.705,2.179 11.189,2.733 11.79,2.733 L13.844,2.733 L13.866,11.316 L6.355,12.784 L6.437,4.902 L8.586,4.902 C9.187,4.902 9.67,4.417 9.67,3.818 C9.67,3.219 9.187,2.734 8.586,2.734 L1.978,2.734 C1.378,2.734 0.894,3.22 0.894,3.818 C0.894,4.416 1.378,4.902 1.978,4.902 L3.926,4.902 L3.926,21.759 L1.783,21.784 C1.175,21.792 0.686,22.351 0.695849315,23.036 C0.704,23.721 1.204,24.269 1.811,24.264 L8.53,24.182 C9.137,24.175 9.627,23.616 9.619,22.93 C9.608,22.245 9.108,21.699 8.502,21.704 L6.257,21.73 L6.323,15.501 L13.871,14.044 L13.895,23.738 L11.526,24.048 C10.922,24.127 10.505,24.741 10.594,25.42 C10.682,26.1 11.243,26.585 11.846,26.506 L18.508,25.635 C19.112,25.557 19.529,24.944 19.442,24.264 C19.357,23.585 18.796,23.1 18.193,23.178 Z" id="路径"></path>
                            <path d="M11.723,26.764 L11.723,26.764 C11.038,26.764 10.451,26.202 10.35,25.452 C10.246,24.639 10.759,23.896 11.498,23.8 L13.646,23.52 L13.624,14.348 L6.573,15.707 L6.511,21.477 L8.498,21.455 C9.25,21.455 9.856,22.116 9.868,22.928 C9.877,23.749 9.276,24.424 8.532,24.435 L1.813,24.515 C1.061,24.515 0.455,23.855 0.443876791,23.041 C0.434,22.22 1.034,21.545 1.778,21.536 L3.674,21.515 L3.674,5.153 L1.977,5.153 C1.242,5.153 0.643,4.555 0.643,3.819 C0.643,3.083 1.242,2.485 1.977,2.485 L8.584,2.485 C9.318,2.485 9.918,3.084 9.918,3.819 C9.918,4.554 9.318,5.153 8.584,5.153 L6.682,5.153 L6.606,12.483 L13.612,11.112 L13.591,2.986 L11.786,2.986 C11.051,2.986 10.451,2.318 10.451,1.497 C10.451,0.676 11.051,0.008 11.786,0.008 L18.393,0.008 C19.128,0.008 19.727,0.676 19.727,1.497 C19.727,2.318 19.128,2.986 18.393,2.986 L16.66,2.986 L16.901,23.097 L18.157,22.933 C18.901,22.836 19.585,23.428 19.688,24.234 C19.741,24.625 19.651,25.008 19.442,25.318 C19.225,25.636 18.906,25.839 18.543,25.886 L11.881,26.757 C11.83,26.761 11.777,26.764 11.723,26.764 Z M14.123,13.742 L14.15,23.958 L11.562,24.296 C11.097,24.358 10.775,24.848 10.845,25.387 C10.909,25.887 11.286,26.264 11.722,26.264 L11.722,26.264 C11.753,26.264 11.784,26.261 11.82,26.257 L18.48,25.386 C18.702,25.358 18.898,25.233 19.033,25.032 C19.175,24.824 19.232,24.562 19.198,24.295 C19.128,23.758 18.7,23.361 18.224,23.424 L16.412,23.66 L16.158,2.481 L18.398,2.481 C18.859,2.481 19.232,2.037 19.232,1.492 C19.232,0.947 18.859,0.503 18.398,0.503 L11.79,0.503 C11.33,0.503 10.955,0.947 10.955,1.492 C10.955,2.037 11.33,2.481 11.79,2.481 L14.093,2.481 L14.117,11.52 L6.101,13.086 L6.191,4.649 L8.587,4.649 C9.047,4.649 9.421,4.275 9.421,3.815 C9.421,3.355 9.047,2.981 8.587,2.981 L1.979,2.981 C1.52,2.981 1.145,3.356 1.145,3.815 C1.145,4.274 1.52,4.649 1.979,4.649 L4.177,4.649 L4.177,22.003 L1.787,22.031 C1.316,22.037 0.939,22.486 0.946874996,23.031 C0.954,23.57 1.338,24.01 1.801,24.01 L8.528,23.93 C9,23.924 9.378,23.475 9.371,22.93 C9.362,22.391 8.979,21.951 8.517,21.951 L6.006,21.98 L6.077,15.292 L14.123,13.742 Z" id="形状"></path>
                        </g>
                        <path d="M141.211,3.606 C130.661,3.606 122.109,12.158 122.109,22.707 C122.109,33.256 130.661,41.809 141.211,41.809 C151.76,41.809 160.313,33.256 160.313,22.707 C160.313,12.158 151.76,3.606 141.211,3.606 Z M151.064,23.236 C151.982,23.905 153.581,25.507 153.581,27.965 C153.581,31.243 150.146,32.327 150.146,32.327 L146.626,32.572 C145.625,32.572 143.617,32.605 141.669,31.816 C141.508,31.753 140.948,31.886 140.83,32.021 C136.7,36.743 132.819,36.302 132.819,36.302 C130.598,36.302 126.262,33.642 126.34,29.537 C126.418,25.432 128.846,24.811 130.91,24.735 C132.201,24.686 132.906,25.163 133.254,25.526 C133.463,25.745 133.656,25.958 133.705,25.391 C133.741,24.981 133.743,24.256 133.644,22.979 C133.414,19.933 132.613,19.208 132.613,19.208 C131.759,18.691 129.152,18.434 129.67,13.425 C130.25,7.815 135.094,7.229 135.094,7.229 C140.673,6.781 141.229,10.957 141.229,12.432 C141.229,12.909 141.713,12.917 141.713,12.917 L151.834,12.548 C153.772,12.548 157.143,14.691 157.143,18.331 C157.143,22.668 153.039,22.995 151.255,22.935 C150.717,22.922 150.757,23.014 151.064,23.236 Z" id="形状" fill="#F9A737"></path>
                    </g>
                    <path d="M162.184,16.34 C162.184,16.34 163.805,21.087 162.795,26.501 C161.785,31.915 160.313,26.66 160.313,26.66 L161.005,19.437 L162.184,16.34 Z" id="路径" fill="#28A5DA"></path>
                </g>
            </g>
        </g>
    </g>
</svg>