<?xml version="1.0" encoding="UTF-8"?>
<svg width="166px" height="48px" viewBox="0 0 166 48" version="1.1" xmlns="http://www.w3.org/2000/svg" xmlns:xlink="http://www.w3.org/1999/xlink">
    <title>fliplogoPressed</title>
    <g id="fliplogoPressed" stroke="none" stroke-width="1" fill="none" fill-rule="evenodd">
        <g transform="translate(3.000000, 3.000000)" fill-rule="nonzero" id="Buttons_x5F_Pressed">
            <g id="编组">
                <path d="M8.012,18.285 C10.013,11.613 13.761,10.609 15.761,10.609 C16.395,10.609 16.804,10.712 16.805,10.712 L17.647,10.932 L18.281,10.352 C18.339,10.299 19.717,9.066 22.179,9.066 C27.476,9.066 27.803,14.388 27.824,14.989 L27.849,16.047 L28.845,16.407 C28.969,16.452 30.095,16.848 31.271,16.848 C32.825,16.848 33.633,16.168 34.018,15.626 C34.809,14.562 38.033,12.461 40.113,11.24 L47.294,11.196 C49.391,11.196 50.716,11.481 51.684,11.689 C52.324,11.826 52.875,11.945 53.443,11.945 C54.351,11.945 55.126,11.64 55.88,10.986 L56.041,10.824 C57.932,8.622 60.938,7.552 65.233,7.552 C66.003,7.552 66.7,7.585 67.259,7.611 C67.676,7.631 68.026,7.647 68.29,7.647 C69.105,7.647 71.025,9.208 72.307,10.485 L72.76,11.132 L93.764,11.132 C94.418,11.132 95.395,12.334 95.993,13.02 C96.988,14.161 97.71,14.889 98.779,14.889 C99.087,14.889 99.388,14.764 99.654,14.617 C99.925,14.468 100.298,13.972 101.045,13.428 C102.051,12.695 105.111,11.133 105.983,10.133 L113.004,10.133 L113.468,9.783 C113.971,9.186 115.625,8.567 116.712,8.214 C117.453,8.204 119.9,8.222 122.079,8.222 C123.582,8.222 124.654,8.262 125.269,8.291 C125.758,8.314 126.435,8.725 127.101,9.25 C127.417,9.499 127.732,9.783 128.023,10.063 C128,10.088 127.978,10.12 127.954,10.145 C127.058,9.296 125.975,8.492 125.269,8.459 C124.654,8.43 123.581,8.416 122.079,8.416 C119.9,8.416 117.453,8.448 116.712,8.459 C115.625,8.812 113.97,9.758 113.468,10.355 L113.004,11.133 L105.983,11.133 C105.112,11.133 102.049,13.243 101.045,13.976 C100.298,14.521 99.927,14.677 99.654,14.826 C99.388,14.972 99.087,14.993 98.779,14.993 C97.71,14.993 96.988,14.263 95.993,13.121 C95.392,12.434 94.419,11.133 93.764,11.133 L72.759,11.133 L72.306,10.557 C71.025,9.281 69.105,7.853 68.289,7.853 C68.024,7.853 67.675,7.806 67.258,7.787 C66.698,7.761 66.001,7.713 65.232,7.713 C60.937,7.713 57.93,8.776 56.04,10.978 L55.879,11.135 C55.125,11.79 54.351,12.093 53.442,12.093 C52.875,12.093 52.323,11.973 51.683,11.836 C50.715,11.628 49.39,11.343 47.293,11.343 L40.112,11.387 C38.032,12.607 34.808,14.708 34.017,15.773 C33.632,16.315 32.824,16.995 31.27,16.995 C30.094,16.995 28.968,16.599 28.844,16.554 L27.848,16.194 L27.823,15.136 C27.802,14.535 27.475,9.213 22.178,9.213 C19.716,9.213 18.337,10.447 18.28,10.5 L17.645,11.08 L16.802,10.86 C16.801,10.86 16.393,10.757 15.76,10.757 C13.76,10.757 10.012,11.76 8.012,18.432 L8.012,18.285 L8.012,18.285 Z M6.301,30.711 C6.362,28.198 7.509,26.982 7.54,26.949 L8.013,26.493 L8.013,26.636 L7.54,27.093 C7.509,27.126 6.363,28.342 6.303,30.854 C6.277,31.975 6.269,32.991 6.27,33.899 C6.268,32.954 6.274,31.891 6.301,30.711 Z M128.277,40.958 C124.3,36.993 121.838,31.516 121.838,25.457 C121.838,25.439 121.84,25.425 121.84,25.408 C121.866,31.464 124.35,36.935 128.344,40.885 C128.322,40.912 128.299,40.932 128.277,40.958 Z" id="形状" fill="#333333" opacity="0.3"></path>
                <g>
                    <g>
                        <path d="M140.73,0.813 C135.687,0.813 131.042,2.523 127.341,5.389 C126.2,4.252 124.318,2.704 122.416,2.614 C121.753,2.582 120.628,2.566 119.076,2.566 C116.463,2.566 113.47,2.611 113.436,2.612 L113.221,2.615 L113.014,2.677 C112.495,2.833 110.117,3.593 108.649,4.832 L102.977,4.832 C101.516,4.832 99.473,6.119 96.214,8.494 C96.09,8.584 95.963,8.678 95.84,8.766 C95.667,8.578 95.481,8.363 95.32,8.181 C94.271,6.979 92.965,5.484 91.373,5.085 L91.187,5.039 L71.017,5.039 C69.91,4.016 67.4,1.941 65.284,1.941 C65.056,1.941 64.758,1.926 64.399,1.909 C63.806,1.882 63.069,1.846 62.226,1.846 C57.107,1.846 53.253,3.277 50.77,6.099 C50.593,6.239 50.526,6.239 50.436,6.239 C50.198,6.239 49.794,6.153 49.329,6.051 C48.287,5.827 46.714,5.489 44.278,5.489 L36.267,5.538 L35.913,5.741 C34.949,6.295 30.125,9.121 28.57,11.112 C28.473,11.135 28.122,11.151 27.803,11.104 C27.314,7.907 25.115,3.359 19.172,3.359 C16.581,3.359 14.738,4.334 13.816,4.967 C13.524,4.931 13.165,4.903 12.751,4.903 C10.435,4.903 4.745,5.885 1.969,14.989 L1.904,15.21 L1.904,22.668 C1.279,23.505 0.266,25.273 0.201,28.027 C0.144,30.391 0.17,32.3 0.187,33.695 C0.194,34.24 0.201,34.713 0.201,35.113 C0.201,39.592 5.097,44.33 9.726,44.33 L9.923,44.33 L10.114,44.281 C10.26,44.243 13.739,43.329 16.074,41.53 C16.595,41.128 17.196,40.925 17.858,40.925 C18.482,40.925 18.946,41.106 18.946,41.106 L19.72,41.442 L20.465,40.944 C22.175,42.09 25.992,44.332 29.708,44.332 C33.055,44.332 35.516,42.987 36.985,42.185 C37.329,41.997 37.75,41.769 37.94,41.701 C39.589,41.697 44.371,41.611 46.519,40.777 C46.659,40.851 46.862,40.98 47.023,41.084 C48.111,41.773 49.927,42.926 53.423,42.939 C53.504,42.943 53.639,42.952 53.82,42.952 C55.285,42.952 60.082,42.509 63.14,37.092 C64.659,37.68 66.29,37.811 66.504,37.825 L69.359,37.828 C70.189,39.206 72.084,41.585 75.259,41.585 L86.575,41.585 L86.879,41.447 C87.669,41.093 88.243,40.756 88.66,40.447 C89.764,41.275 91.53,42.551 93.484,42.551 L100.165,42.551 L100.404,42.471 C100.894,42.308 101.972,41.929 102.704,41.535 C102.921,41.52 103.333,41.505 104.089,41.505 C105.178,41.505 106.473,41.537 107.243,41.56 C108.156,42.554 110.081,44.331 112.15,44.331 C114.573,44.331 117.136,44.221 119.48,43.422 C119.955,43.26 120.597,43.213 121.279,43.163 C123.122,43.026 125.586,42.838 127.685,40.293 C131.327,42.997 135.834,44.599 140.72,44.599 C152.812,44.599 162.615006,34.796 162.615006,22.705 C162.624,10.616 152.82,0.813 140.73,0.813 Z M121.061,40.076 C120.214,40.138 119.339,40.202 118.492,40.493 C116.309,41.236 113.612,41.236 112.162,41.236 C111.367,41.236 109.923,39.974 109.186,39.066 L108.744,38.513 L108.035,38.488 C107.944,38.484 105.815,38.41 104.098,38.41 C102.647,38.41 102.178,38.463 101.91,38.515 L101.568,38.597 L101.31,38.771 C101.118,38.9 100.382,39.203 99.664,39.454 L93.492,39.454 C92.5,39.454 91.191,38.47 90.409,37.881 C89.648,37.309 89.146,36.932 88.451,36.932 C87.812,36.932 87.246,37.289 86.967,37.846 C86.779,38.004 86.342,38.268 85.903,38.487 L75.267,38.487 C72.962,38.487 71.736,35.702 71.726,35.68 L71.328,34.729 L66.679,34.729 C66.125,34.684 64.66,34.471 63.766,33.97 C63.381,33.755 62.968,33.709 62.69,33.709 C61.858,33.709 61.182,34.09 60.881,34.73 C58.654,39.482 54.918,39.851 53.827,39.851 C53.721,39.851 53.651,39.847 53.64,39.847 L53.491,39.838 C50.854,39.838 49.653,39.076 48.688,38.464 C48.042,38.054 47.373,37.629 46.499,37.629 C46.263,37.629 46.027,37.661 45.796,37.728 L45.623,37.775 L45.464,37.863 C44.661,38.304 40.877,38.599 37.846,38.599 C37.092,38.599 36.427,38.961 35.507,39.463 C34.141,40.21 32.27,41.232 29.714,41.232 C25.893,41.232 21.488,37.873 21.445,37.837 L20.564,37.155 L19.313,37.989 C18.923,37.899 18.426,37.824 17.863,37.824 C16.519,37.824 15.249,38.256 14.187,39.074 C12.63,40.272 10.23,41.024 9.537,41.223 C6.636,41.082 3.303,37.85 3.303,35.11 C3.303,34.7 3.297,34.214 3.289,33.654 C3.271,32.283 3.248,30.405 3.302,28.098 C3.363,25.585 4.506,24.37 4.537,24.336 L5.007,23.88 L5.007,15.671 C7.112,8.999 10.758,7.995 12.758,7.995 C13.392,7.995 13.803,8.098 13.804,8.098 L14.647,8.318 L15.282,7.738 C15.34,7.685 16.719,6.452 19.18,6.452 C24.477,6.452 24.804,11.774 24.825,12.375 L24.85,13.433 L25.846,13.793 C25.97,13.838 27.096,14.234 28.272,14.234 C29.826,14.234 30.634,13.554 31.019,13.012 C31.81,11.948 35.034,9.847 37.114,8.626 L44.295,8.582 C46.392,8.582 47.717,8.867 48.685,9.075 C49.325,9.212 49.876,9.331 50.444,9.331 C51.352,9.331 52.127,9.026 52.881,8.372 L53.042,8.21 C54.933,6.008 57.939,4.938 62.234,4.938 C63.004,4.938 63.701,4.971 64.26,4.997 C64.677,5.017 65.027,5.033 65.291,5.033 C66.106,5.033 68.026,6.401 69.308,7.678 L69.761,8.132 L90.764,8.132 C91.418,8.41 92.395,9.528 92.993,10.214 C93.987,11.355 94.71,12.179 95.778,12.179 C96.087,12.179 96.387,12.102 96.653,11.955 C96.924,11.806 97.298,11.538 98.045,10.993 C99.051,10.26 102.11,8.029 102.983,7.925 L110.004,7.925 L110.468,7.372 C110.972,6.775 112.625,6.054 113.712,5.702 C114.453,5.692 116.9,5.66 119.079,5.66 C120.582,5.66 121.655,5.675 122.27,5.704 C122.758,5.727 123.434,6.125 124.102,6.65 C124.417,6.899 124.731,7.176 125.022,7.457 C121.198,11.399 118.835,16.773 118.835,22.702 C118.835,28.795 121.326,34.305 125.342,38.273 C124.079,39.848 122.73,39.952 121.061,40.076 Z" id="形状" fill="#28A5DA"></path>
                        <polygon id="路径" fill="#FFFFFF" points="124.104 6.655 114.497 19.961 117.027 38.562 125.174 38.602 125.516 38.212 127.311 35.639 123.533 23.384 128.102 10.035 124.191 6.725"></polygon>
                        <path d="M121.061,40.219 C120.214,40.282 119.339,40.346 118.492,40.636 C116.309,41.379 113.612,41.379 112.162,41.379 C111.367,41.379 109.923,40.117 109.186,39.209 L108.744,38.655 L108.035,38.63 C107.944,38.627 105.815,38.552 104.098,38.552 C102.647,38.552 102.178,38.606 101.91,38.657 L101.568,38.74 L101.31,38.913 C101.118,39.042 100.382,39.345 99.664,39.596 L93.492,39.596 C92.5,39.596 91.191,38.612 90.409,38.024 C89.648,37.452 89.146,37.075 88.451,37.075 C87.812,37.075 87.246,37.432 86.967,37.99 C86.779,38.147 86.342,38.41 85.903,38.629 L75.267,38.629 C72.962,38.629 71.736,35.844 71.726,35.821 L71.328,34.873 L66.679,34.873 C66.125,34.827 64.66,34.615 63.766,34.112 C63.381,33.897 62.968,33.852 62.69,33.852 C61.858,33.852 61.182,34.233 60.881,34.873 C58.654,39.625 54.918,39.995 53.827,39.995 C53.721,39.995 53.651,39.991 53.64,39.991 L53.491,39.982 C50.854,39.982 49.653,39.22 48.688,38.609 C48.042,38.2 47.373,37.775 46.499,37.775 C46.263,37.775 46.027,37.806 45.796,37.873 L45.623,37.921 L45.464,38.008 C44.661,38.449 40.877,38.745 37.846,38.745 C37.092,38.745 36.427,39.107 35.507,39.609 C34.141,40.357 32.27,41.379 29.714,41.379 C25.893,41.379 21.488,38.02 21.445,37.984 L20.564,37.301 L19.313,38.135 C18.923,38.046 18.426,37.97 17.863,37.97 C16.519,37.97 15.249,38.402 14.187,39.22 C12.63,40.42 10.23,41.171 9.537,41.371 C6.635,41.232 3.302,38 3.302,35.26 C3.302,34.85 3.296,34.364 3.288,33.803 C3.27,32.432 3.247,30.555 3.301,28.248 C3.362,25.734 4.505,24.519 4.536,24.486 L5.006,24.029 L5.006,15.821 C7.111,9.149 10.757,8.146 12.757,8.146 C13.391,8.146 13.802,8.249 13.803,8.249 L14.646,8.469 L15.281,7.889 C15.339,7.836 16.718,6.602 19.179,6.602 C24.476,6.602 24.803,11.925 24.824,12.525 L24.849,13.583 L25.845,13.943 C25.969,13.988 27.095,14.384 28.271,14.384 C29.825,14.384 30.633,13.705 31.018,13.162 C31.809,12.098 35.033,9.996 37.113,8.776 L44.294,8.732 C46.391,8.732 47.716,9.017 48.684,9.224 C49.324,9.362 49.875,9.48 50.443,9.48 C51.351,9.48 52.126,9.175 52.88,8.521 L53.041,8.36 C54.932,6.158 57.938,5.088 62.233,5.088 C63.003,5.088 63.7,5.121 64.259,5.147 C64.676,5.167 65.026,5.183 65.29,5.183 C66.105,5.183 68.025,6.551 69.307,7.827 L69.76,8.282 L90.764,8.282 C91.418,8.56 92.395,9.677 92.993,10.364 C93.988,11.505 94.71,12.329 95.779,12.329 C96.087,12.329 96.388,12.252 96.654,12.105 C96.925,11.956 97.298,11.688 98.045,11.143 C99.051,10.41 102.111,8.179 102.983,8.075 L110.004,8.075 L110.468,7.522 C110.971,6.925 112.625,6.204 113.712,5.852 C114.453,5.841 116.9,5.81 119.079,5.81 C120.582,5.81 121.654,5.825 122.269,5.854 C122.992,5.888 124.118,6.734 125.023,7.607 C121.198,11.549 118.835,16.923 118.835,22.852 C118.835,28.946 121.326,34.456 125.342,38.423 C124.079,39.992 122.73,40.096 121.061,40.219 Z" id="路径" fill="#FFFFFF"></path>
                        <polygon id="路径" fill="#FFFFFF" points="137.835 5.607 149.531 10.254 157.121 14.695 156.579 28.068 150.15 36.514 132.878 38.292 124.746 32.02 124.359 16.761 129.654 7.699"></polygon>
                        <g transform="translate(129.000000, 14.000000)" fill="#F9A737">
                            <path d="M9.895,11.008 C9.791,7.2 9.436,2.799 9.106,1.676 C9.106,1.674 9.106,1.673 9.104,1.671 C9.104,1.664 9.108,1.657 9.106,1.65 C8.876,0.785 8.778,0.695 8.002,0.695 L5.064,0.695 C4.454,0.695 3.924,0.814 3.959,1.65 C3.986,2.411 4.454,2.605 5.064,2.605 L7.55,2.605 C7.779,3.986 8.097,7.193 8.168,10.313 C8.242,13.501 7.339,17.399 4.474,17.399 C2.666,17.399 2.668,15.659 2.601,15.307 C2.476,14.649 2.205,14.194 1.584,14.233 C0.965,14.272 0.587,14.727 0.664,15.502 C0.742,16.276 0.78,19.0240002 4.436,19.0240002 C8.371,19.025 9.988,14.343 9.895,11.008 Z" id="路径"></path>
                            <path d="M4.436,19.275 C0.739,19.275 0.504,16.55 0.427,15.657 L0.415,15.525 C0.368,15.058 0.468,14.666 0.703,14.388 C0.91,14.144 1.209,14.003 1.566,13.982 C2.254,13.939 2.672,14.371 2.842,15.257 C2.851,15.298 2.859,15.357 2.866,15.429 C2.97,16.279 3.239,17.146 4.47,17.146 C5.176,17.146 5.792,16.882 6.3,16.364 C7.373,15.265 7.978,13.004 7.914,10.316 C7.851,7.474 7.572,4.424 7.332,2.853 L5.06,2.853 C4.191,2.853 3.734,2.45 3.705,1.658 C3.689,1.275 3.782,0.977 3.976,0.774 C4.256,0.482 4.681,0.443 5.06,0.443 L7.998,0.443 C8.941,0.443 9.1,0.659 9.348,1.583 L9.364,1.642 L9.362,1.656 C9.712,2.927 10.05,7.486 10.145,10.999 C10.202,12.995 9.633,15.975 7.856,17.803 C6.908,18.781 5.756,19.275 4.436,19.275 Z M1.656,14.48 L1.599,14.482 C1.374,14.496 1.203,14.573 1.082,14.711 C0.936,14.882 0.878,15.148 0.91,15.476 L0.923,15.615 C1.005,16.56 1.194,18.775 4.435,18.775 C5.617,18.775 6.646,18.332 7.497,17.457 C9.166,15.741 9.697,12.915 9.643,11.016 C9.539,7.131 9.172,2.8 8.866,1.747 L8.854,1.68 C8.657,0.946 8.632,0.946 8,0.946 L5.062,0.946 C4.679,0.946 4.458,1.001 4.337,1.124 C4.239,1.226 4.194,1.4 4.204,1.642 C4.224,2.163 4.456,2.357 5.059,2.357 L7.757,2.357 L7.792,2.566 C8.041,4.082 8.345,7.311 8.413,10.309 C8.435,11.367 8.384,14.951 6.656,16.717 C6.052,17.336 5.314,17.651 4.468,17.651 C2.63,17.651 2.434,16.026 2.368,15.494 C2.361,15.436 2.355,15.39 2.349,15.356 C2.207,14.584 1.918,14.48 1.656,14.48 Z" id="形状"></path>
                        </g>
                        <g transform="translate(133.000000, 10.000000)" fill="#F9A737">
                            <ellipse id="椭圆形" transform="translate(2.608099, 2.058699) rotate(157.771947) translate(-2.608099, -2.058699) " cx="2.6080993" cy="2.0586993" rx="1.96403081" ry="1.35502126"></ellipse>
                            <path d="M2.13,3.769 L2.13,3.769 C1.383,3.769 0.783,3.436 0.565,2.898 C0.397,2.485 0.464,2.01 0.757,1.562 C1.031,1.143 1.477,0.792 2.008,0.575 C2.364,0.43 2.741,0.353 3.1,0.353 C3.846,0.353 4.446,0.686 4.664,1.224 C4.794,1.541 4.784,1.898 4.635,2.255 C4.409,2.794 3.88,3.277 3.221,3.547 C2.865,3.692 2.488,3.769 2.13,3.769 Z M3.1,0.854 C2.805,0.854 2.496,0.918 2.2,1.039 C1.761,1.218 1.395,1.502 1.178,1.837 C0.98,2.143 0.926,2.454 1.032,2.71 C1.173,3.055 1.594,3.27 2.135,3.27 C2.428,3.27 2.739,3.206 3.036,3.085 C3.575,2.865 4.002,2.483 4.178,2.064 C4.246,1.902 4.306,1.658 4.206,1.415 C4.061,1.068 3.639,0.854 3.1,0.854 Z" id="形状"></path>
                        </g>
                        <g transform="translate(141.000000, 16.000000)" fill="#F9A737">
                            <path d="M12.699,2.018 C12.699,2.018 12.441,0.34 9.769,0.34 C7.877,0.34 6.722,1.124 6.183,1.535 L6.173,1.261 C6.142,0.72 5.674,0.309 5.136,0.342 L1.577,0.563 C1.037,0.597 0.626,1.062 0.659,1.603 C0.692,2.145 1.158,2.555 1.698,2.521 L4.169,2.368 L4.364,11.103 L3.268,11.135 C2.733,11.154 2.315,11.601 2.33,12.133 C2.346,12.667 2.793,13.087 3.328,13.071 L8.128,12.921 C8.663,12.904 9.082,12.457 9.066,11.922 C9.047,11.388 8.601,10.968 8.068,10.985 L6.625,11.03 L6.323,4.541 C6.847,2.929 8.542,2.144 9.609,2.114 C11.073,2.076 10.715,4.139 12.088,3.747 C13.178,3.439 12.699,2.018 12.699,2.018 Z" id="路径"></path>
                            <path d="M3.302,13.323 C2.641,13.323 2.106,12.804 2.085,12.142 C2.075,11.818 2.191,11.506 2.415,11.271 C2.639,11.034 2.939,10.898 3.266,10.885 L4.112,10.861 L3.928,2.632 L1.639,2.773 C0.993,2.773 0.452,2.267 0.411,1.619 C0.37,0.941 0.887,0.356 1.562,0.314 L5.195,0.09 C5.785,0.09 6.284,0.508 6.4,1.07 C6.999,0.672 8.114,0.091 9.767,0.091 C12.621,0.091 12.933,1.903 12.945,1.98 L12.945,1.98 C12.949,1.98 13.216,2.801 12.894,3.415 C12.745,3.701 12.498,3.894 12.162,3.99 C12.023,4.03 11.892,4.05 11.771,4.05 L11.771,4.05 C11.163,4.05 10.892,3.58 10.656,3.166 C10.41,2.736 10.198,2.367 9.654,2.367 C8.657,2.392 7.086,3.096 6.579,4.579 L6.867,10.775 L8.064,10.738 L8.064,10.738 C8.765,10.738 9.297,11.256 9.32,11.917 C9.341,12.588 8.81,13.152 8.14,13.173 L3.302,13.323 Z M4.416,2.104 L4.623,11.346 L3.281,11.389 C3.09,11.395 2.911,11.475 2.779,11.616 C2.648,11.756 2.58,11.936 2.586,12.13 C2.598,12.521 2.912,12.825 3.303,12.825 L3.303,13.075 L3.326,12.825 L8.126,12.675 C8.522,12.662 8.834,12.33 8.82,11.935 C8.808,11.544 8.494,11.24 8.103,11.24 L6.39,11.294 L6.076,4.513 L6.09,4.47 C6.657,2.727 8.489,1.9 9.61,1.87 C10.502,1.859 10.825,2.452 11.091,2.919 C11.323,3.322 11.469,3.552 11.774,3.552 L11.774,3.552 C11.848,3.552 11.934,3.538 12.028,3.512 C12.229,3.454 12.37,3.348 12.455,3.186 C12.683,2.76 12.468,2.106 12.465,2.1 C12.444,2 12.179,0.594 9.775,0.594 C7.841,0.594 6.712,1.455 6.337,1.738 L5.947,2.034 L5.926,1.271 C5.905,0.895 5.583,0.594 5.197,0.594 L1.593,0.817 C1.193,0.842 0.884,1.19 0.908,1.592 C0.93,1.976 1.253,2.278 1.637,2.278 L4.416,2.104 Z" id="形状"></path>
                        </g>
                        <g transform="translate(8.000000, 10.000000)" fill="#F9A737">
                            <path d="M12.575,1.752 L12.161,10.633 C12.161,10.633 12.07,11.563 11.025,11.563 C9.979,11.563 9.514,10.983 9.476,10.13 C9.437,9.277 9.671,6.641 7.23,5.406 C5.009,4.283 4.472,6.138 4.364,6.722 C4.28,7.179 4.2,10.344 4.271,10.736 C4.425,11.587 5.097,12.15 6.465,12.525 C7.139,12.71 13.775,13.693 13.775,18.068 C13.775,23.025 9.941,24.304 7.54,24.304 C5.913,24.304 3.37,23.232 2.944,22.844 C2.944,22.844 2.97,25.452 2.97,25.763 C2.97,26.074 2.582,26.549 1.885,26.549 C1.189,26.549 0.491,26.161 0.491,25.619 C0.491,25.077 0.491,16.828 0.491,16.828 C0.491,16.828 0.494,15.292 1.924,15.393 C3.176,15.483 3.085,17.794 3.085,18.723 C3.085,19.655 4.325,21.666 7.132,21.666 C9.941,21.666 11.141,20.193 11.141,18.374 C11.141,16.555 10.134,16.283 9.398,16.089 C8.663,15.897 6.627,15.32 4.868,14.889 C3.562,14.569 2.031,13.999 1.84,12.151 C1.705,10.863 1.736,7.477 1.809,6.642 C1.877,5.855 2.002,2.305 5.604,2.305 C9.206,2.305 9.864,4.319 9.864,4.319 L9.864,1.75 C9.864,1.75 9.942,0.833 11.18,0.833 C12.419,0.835 12.575,1.752 12.575,1.752 Z" id="路径"></path>
                            <path d="M1.885,26.799 C1.095,26.799 0.241,26.348 0.241,25.619 L0.241,16.828 C0.243,16.22 0.585,15.05 1.942,15.146 C3.353,15.248 3.341,17.478 3.336,18.547 L3.335,18.724 C3.335,19.492 4.465,21.416 7.132,21.416 C9.521,21.416 10.891,20.308 10.891,18.374 C10.891,16.741 10.064,16.522 9.334,16.331 C9.126,16.276 8.815,16.19 8.437,16.088 C7.494,15.83 6.068,15.442 4.808,15.131 C3.417,14.79 1.795,14.146 1.59,12.175 C1.456,10.892 1.485,7.471 1.559,6.617 L1.568,6.51 C1.8,3.552 3.158,2.052 5.603,2.052 C7.888,2.052 9.048,2.835 9.613,3.464 L9.613,1.747 C9.647,1.33 10.018,0.58 11.179,0.58 C12.326,0.58 12.755,1.315 12.822,1.705 L12.826,1.732 L12.411,10.642 C12.371,11.054 12.031,11.81 11.025,11.81 C9.929,11.81 9.274,11.2 9.226,10.138 C9.222,10.05 9.221,9.948 9.22,9.827 C9.207,8.804 9.181,6.669 7.116,5.624 C6.687,5.406 6.303,5.297 5.974,5.297 C4.986,5.297 4.69,6.322 4.609,6.763 C4.526,7.216 4.452,10.333 4.516,10.686 C4.653,11.444 5.275,11.934 6.53,12.28 C6.588,12.296 6.688,12.315 6.826,12.344 C11.602,13.358 14.024,15.282 14.024,18.063 C14.024,22.85 10.53,24.548 7.539,24.548 C6.148,24.548 4.122,23.795 3.198,23.297 C3.206,24.061 3.219,25.529 3.219,25.757 C3.22,26.188 2.745,26.799 1.885,26.799 Z M1.789,15.643 C0.781,15.643 0.743,16.709 0.742,16.831 L0.742,25.62 C0.742,25.974 1.287,26.3 1.886,26.3 C2.464,26.3 2.721,25.911 2.721,25.764 C2.721,25.453 2.695,22.848 2.695,22.848 L2.689,22.274 L3.113,22.662 C3.489,23.004 5.948,24.058 7.541,24.058 C10.302,24.058 13.526,22.49 13.526,18.072 C13.526,15.56 11.237,13.801 6.723,12.843 C6.574,12.813 6.462,12.787 6.401,12.772 C4.955,12.376 4.2,11.745 4.026,10.786 C3.944,10.334 4.036,7.135 4.119,6.682 C4.2,6.242 4.575,4.807 5.976,4.807 C6.383,4.807 6.844,4.935 7.344,5.188 C9.68,6.37 9.708,8.795 9.721,9.832 C9.722,9.944 9.723,10.043 9.727,10.124 C9.762,10.928 10.188,11.319 11.026,11.319 C11.836,11.319 11.911,10.643 11.914,10.614 L12.325,1.779 C12.292,1.648 12.099,1.092 11.18,1.092 C10.215,1.092 10.12,1.712 10.113,1.782 L10.114,5.896 L9.627,4.404 C9.602,4.33 8.958,2.563 5.605,2.563 C2.382,2.563 2.146,5.571 2.068,6.56 L2.058,6.672 C1.986,7.511 1.958,10.872 2.089,12.134 C2.261,13.78 3.555,14.32 4.929,14.655 C6.196,14.967 7.624,15.356 8.57,15.614 C8.948,15.718 9.258,15.802 9.464,15.856 C10.186,16.045 11.394,16.364 11.394,18.381 C11.394,20.6 9.802,21.923 7.135,21.923 C4.275,21.923 2.838,19.876 2.838,18.731 L2.839,18.551 C2.844,17.631 2.854,15.717 1.908,15.651 C1.866,15.643 1.827,15.643 1.789,15.643 Z" id="形状"></path>
                        </g>
                        <g transform="translate(23.000000, 16.000000)" fill="#F9A737">
                            <path d="M12.445,7.111 C12.445,6.103 12.445,1.741 12.445,1.741 C12.445,1.741 12.29,0.605 11.206,0.605 C10.121,0.605 9.967,1.844 9.967,1.844 L9.967,4.272 C9.967,4.272 9.089,2.309 5.681,2.309 C2.273,2.309 0.569,4.788 0.569,7.421 C0.569,10.055 0.569,14.03 0.569,15.036 C0.569,16.534 1.551,20.549 6.663,20.549 C11.775,20.549 13.53,17.128 13.53,15.477 C13.53,13.826 13.53,13.206 13.53,12.714 C13.53,12.222 13.401,11.371 12.214,11.371 C11.155,11.371 11.155,12.637 11.155,12.637 L11.155,15.065 C11.155,15.065 11.154,18.213 7.05,18.213 C2.946,18.213 2.997,15.192 2.997,14.366 C2.997,13.54 2.997,7.691 2.997,7.691 C2.997,7.691 3.229,4.966 5.914,4.966 C8.599,4.966 9.399,6.775 9.968,7.691 C10.137,7.968 10.381,8.556 11.207,8.556 C12.031,8.557 12.445,8.118 12.445,7.111 Z" id="路径"></path>
                            <path d="M6.662,20.799 C1.644,20.799 0.318,17.03 0.318,15.036 L0.318,7.421 C0.318,4.838 1.997,2.059 5.68,2.059 C7.931,2.059 9.132,2.883 9.716,3.501 L9.716,1.844 C9.78,1.309 10.172,0.355 11.205,0.355 C12.235,0.355 12.628,1.24 12.692,1.708 L12.694,7.111 C12.694,8.236 12.193,8.806 11.205,8.806 C10.316,8.806 9.981,8.222 9.802,7.908 L9.752,7.823 C9.7,7.74 9.647,7.648 9.589,7.55 C9.04,6.622 8.21,5.219 5.912,5.219 C3.485,5.219 3.253,7.615 3.244,7.714 L3.245,14.367 C3.245,14.825 3.244,15.716 3.715,16.502 C4.296,17.473 5.417,17.963 7.048,17.963 C10.859,17.963 10.903,15.182 10.903,15.065 L10.903,12.637 C10.903,12.115 11.176,11.121 12.212,11.121 C13.222,11.121 13.7780004,11.687 13.7780004,12.714 L13.7780004,15.477 C13.779,17.145 11.987,20.799 6.662,20.799 Z M5.68,2.561 C2.322,2.561 0.818,5.002 0.818,7.422 L0.818,15.037 C0.818,15.09 0.885,20.3 6.662,20.3 C11.613,20.3 13.279,16.987 13.279,15.477 L13.279,12.715 C13.279,11.969 12.94,11.622 12.213,11.622 C11.434,11.622 11.405,12.535 11.404,12.639 L11.404,15.065 C11.404,15.098 11.353,18.463 7.049,18.463 C5.23,18.463 3.964,17.889 3.287,16.758 C2.745,15.854 2.746,14.832 2.746,14.397 L2.746,7.692 C2.75,7.641 3.032,4.718 5.913,4.718 C8.496,4.718 9.45,6.331 10.019,7.295 C10.076,7.389 10.128,7.479 10.179,7.561 L10.237,7.662 C10.402,7.951 10.607,8.308 11.206,8.308 C11.72,8.308 12.195,8.162 12.195,7.113 L12.195,1.744 C12.192,1.741 12.054,0.858 11.206,0.858 C10.358,0.858 10.221,1.837 10.215,1.879 L10.217,5.443 L9.738,4.376 C9.705,4.301 8.867,2.561 5.68,2.561 Z" id="形状"></path>
                        </g>
                        <g transform="translate(89.000000, 15.000000)" fill="#F9A737">
                            <path d="M12.641,6.95 C12.641,5.943 12.641,1.58 12.641,1.58 C12.641,1.58 12.485,0.444 11.401,0.444 C10.317,0.444 10.164,1.683 10.164,1.683 L10.164,4.109 C10.164,4.109 9.286,2.148 5.878,2.148 C2.472,2.148 0.769,4.627 0.769,7.26 C0.769,9.895 0.769,13.869 0.769,14.876 C0.769,16.374 1.748,20.389 6.861,20.389 C11.974,20.389 13.728,16.968 13.728,15.315 C13.728,13.664 13.728,13.044 13.728,12.552 C13.728,12.063 13.599,11.21 12.413,11.21 C11.353,11.21 11.353,12.475 11.353,12.475 L11.353,14.903 C11.353,14.903 11.353,18.051 7.249,18.051 C3.145,18.051 3.195,15.031 3.195,14.205 C3.195,13.378 3.195,7.531 3.195,7.531 C3.195,7.531 3.426,4.806 6.113,4.806 C8.798,4.806 9.597,6.615 10.167,7.531 C10.336,7.808 10.58,8.396 11.406,8.396 C12.227,8.396 12.641,7.957 12.641,6.95 Z" id="路径"></path>
                            <path d="M6.857,20.637 C1.837,20.637 0.513,16.868 0.513,14.875 L0.513,7.259 C0.513,4.676 2.191,1.897 5.873,1.897 C8.125,1.897 9.325,2.721 9.909,3.34 L9.909,1.683 C9.971,1.148 10.366,0.194 11.397,0.194 C12.426,0.194 12.821,1.078 12.883,1.546 L12.885,6.95 C12.885,8.075 12.385,8.646 11.397,8.646 C10.508,8.646 10.172,8.06 9.995,7.747 L9.944,7.662 C9.893,7.579 9.84,7.486 9.782,7.391 C9.231,6.461 8.403,5.059 6.104,5.059 C3.676,5.059 3.446,7.454 3.436,7.555 L3.436,14.206 C3.436,14.664 3.436,15.555 3.908,16.341 C4.489,17.311 5.608,17.802 7.241,17.802 C11.053,17.802 11.095,15.022 11.095,14.903 L11.095,12.477 C11.095,11.954 11.368,10.961 12.406,10.961 C13.416,10.961 13.9700104,11.525 13.9700104,12.553 L13.9700104,15.317 C13.975,16.982 12.182,20.637 6.857,20.637 Z M5.875,2.397 C2.518,2.397 1.014,4.839 1.014,7.259 L1.014,14.875 C1.014,14.928 1.081,20.137 6.858,20.137 C11.809,20.137 13.475,16.825 13.475,15.315 L13.475,12.551 C13.475,11.807 13.135,11.459 12.41,11.459 C11.631,11.459 11.6,12.371 11.6,12.475 L11.6,14.9 C11.6,14.935 11.548,18.298 7.246,18.298 C5.427,18.298 4.161,17.726 3.483,16.594 C2.94,15.691 2.942,14.668 2.942,14.234 L2.942,7.53 C2.946,7.478 3.227,4.556 6.108,4.556 C8.692,4.556 9.647,6.168 10.215,7.132 C10.272,7.228 10.323,7.316 10.374,7.398 L10.432,7.498 C10.598,7.787 10.802,8.144 11.401,8.144 C11.917,8.144 12.391,7.998 12.391,6.949 L12.391,1.579 C12.387,1.576 12.249,0.693 11.401,0.693 C10.547,0.693 10.417,1.672 10.412,1.714 L10.414,5.28 L9.935,4.211 C9.9,4.139 9.062,2.397 5.875,2.397 Z" id="形状"></path>
                        </g>
                        <g transform="translate(36.000000, 13.000000)" fill="#F9A737" id="形状">
                            <path d="M19.698,17.08 C19.311,17.08 18.382,16.966 18.382,18.011 C18.382,19.057 17.956,19.639 16.871,19.502 C15.148,19.27 15.245,15.106 15.245,12.086 C15.245,9.066 12.689,8.988 13.696,8.988 C14.703,8.988 16.685,6.675 16.561,3.992 C16.38,0.068 10.713,0.275 10.713,0.275 L2.465,0.275 C2.465,0.275 1.07,0.3 1.07,1.501 C1.07,2.701 2.448,2.792 2.448,2.792 L4.284,2.792 L4.284,8.602 C1.574,8.602 2.232,11.505 3.897,11.331 C4.065,11.332 4.254,11.322 4.452,11.307 L4.452,18.342 C3.408,18.459 2.561,18.555 2.358,18.576 C1.811,18.637 1.407,18.888 1.535,20.128 C1.665,21.367 2.852,21.109 2.852,21.109 C2.852,21.109 8.872,20.611 9.852,20.353 C10.832,20.093 10.52,17.674 9.329,17.8 C8.911,17.844 7.993,17.946 6.957,18.062 L6.957,10.922 C8.508,10.629 10.135,10.29 11.114,10.324 C11.875,10.35 12.155,10.782 12.292,11.098 C12.935,12.586 12.889,16.145 12.921,17.581 C12.959,19.324 13.656,22.383 17.142,22.383 C20.628,22.383 20.937,19.246 20.937,18.279 C20.937,17.312 20.085,17.08 19.698,17.08 Z M6.958,8.32 L6.958,2.695 C6.958,2.695 13.773,2.03 13.773,4.419 C13.773,7.582 6.958,8.32 6.958,8.32 Z"></path>
                            <path d="M17.142,22.637 C13.097,22.637 12.697,18.776 12.671,17.591 C12.667,17.407 12.663,17.188 12.66,16.944 C12.64,15.376 12.602,12.455 12.062,11.203 C11.942,10.924 11.724,10.599 11.105,10.579 L10.971,10.577 C10.117,10.577 8.792,10.83 7.511,11.076 L7.206,11.134 L7.206,17.787 C8.127,17.684 8.922,17.597 9.302,17.558 C10.105,17.474 10.568,18.236 10.664,18.988 C10.752,19.67 10.555,20.431 9.915,20.599 C8.927,20.859 3.137,21.34 2.873,21.363 L2.874,21.363 C2.883,21.363 2.764,21.385 2.601,21.385 C1.858,21.385 1.367,20.926 1.287,20.157 C1.165,18.987 1.487,18.425 2.331,18.331 L4.202,18.121 L4.202,11.576 C4.106,11.581 4.014,11.584 3.929,11.584 C3.866,11.589 3.81,11.591 3.755,11.591 C2.794,11.591 2.198,10.749 2.198,9.968 C2.198,9.267 2.685,8.45 4.034,8.363 L4.034,3.047 L2.448,3.047 C1.874,3.01 0.82,2.641 0.82,1.506 C0.82,0.362 1.893,0.04 2.46,0.03 L10.712,0.03 C10.713,0.03 10.767,0.028 10.858,0.028 C11.822,0.028 16.637,0.219 16.811,3.986 C16.898,5.875 16.011,7.508 15.152,8.408 C14.809,8.767 14.464,9.019 14.148,9.146 C15.043,9.793 15.495,10.783 15.495,12.089 L15.494,12.55 C15.49,15.3 15.484,19.068 16.905,19.257 C16.996,19.271 17.084,19.277 17.167,19.277 C17.616,19.277 18.132,19.131 18.132,18.015 C18.132,17.23 18.574,16.829 19.446,16.829 L19.698,16.832 C20.297,16.832 21.187,17.219 21.187,18.285 C21.187,19.01 20.992,22.637 17.142,22.637 Z M10.972,10.074 C11.024,10.074 11.075,10.075 11.123,10.076 C11.797,10.099 12.267,10.411 12.521,11.002 C13.101,12.348 13.138,15.219 13.16,16.936 C13.163,17.18 13.166,17.397 13.171,17.582 C13.2,18.952 13.649,22.14 17.142,22.14 C20.431,22.14 20.687,19.191 20.687,18.286 C20.687,17.344 19.708,17.333 19.698,17.333 L19.446,17.33 C18.943,17.33 18.632,17.443 18.632,18.016 C18.632,19.47 17.835,19.778 17.167,19.778 C17.064,19.778 16.956,19.77 16.841,19.757 C14.984,19.507 14.989,15.812 14.994,12.553 L14.995,12.093 C14.995,10.114 13.841,9.509 13.462,9.31 C13.345,9.249 13.168,9.156 13.219,8.955 C13.27,8.747 13.458,8.747 13.697,8.747 C13.912,8.747 14.312,8.566 14.792,8.064 C15.543,7.277 16.393,5.745 16.313,4.011 C16.161,0.698 11.744,0.53 10.86,0.53 L10.724,0.532 L2.467,0.532 C2.355,0.535 1.322,0.586 1.322,1.508 C1.322,2.463 2.42,2.547 2.467,2.55 L4.536,2.55 L4.536,8.859 L4.286,8.859 C3.117,8.859 2.7,9.435 2.7,9.974 C2.7,10.546 3.155,11.166 3.874,11.091 L3.887,11.09 L3.931,11.09 C4.085,11.09 4.256,11.08 4.435,11.066 L4.705,11.045 L4.705,18.575 L2.389,18.835 C2.066,18.871 1.663,18.915 1.787,20.112 C1.841,20.629 2.116,20.889 2.604,20.889 C2.72,20.889 2.802,20.872 2.803,20.872 C2.894,20.861 8.843,20.368 9.791,20.119 C10.12,20.033 10.231,19.517 10.171,19.055 C10.107,18.55 9.827,18.008 9.358,18.059 C8.94,18.104 8.022,18.205 6.987,18.321 L6.71,18.35 L6.71,10.725 L7.421,10.588 C8.722,10.333 10.072,10.074 10.972,10.074 Z M6.708,8.6 L6.708,2.468 L6.934,2.447 C6.97,2.443 7.83,2.361 8.95,2.361 C12.269,2.361 14.024,3.073 14.024,4.42 C14.024,7.77 7.273,8.539 6.985,8.57 L6.708,8.6 Z M7.208,2.925 L7.208,8.035 C8.46,7.855 13.523,6.974 13.523,4.418 C13.523,3.011 10.324,2.859 8.949,2.859 C8.186,2.86 7.535,2.901 7.208,2.925 Z"></path>
                        </g>
                        <g transform="translate(53.000000, 9.000000)" fill="#F9A737" id="形状">
                            <path d="M22.032,16.42 C21.658,15.616 21.106,15.35 20.79,15.497 C20.664,15.557 19.518,16.09 18.192,16.708 L11.61,2.001 C11.61,1.99 11.611,1.981 11.611,1.97 C11.608,1.045 11.257,0.551 10.943,0.551 C10.628,0.552 4.019,0.573 4.019,0.573 C4.019,0.573 3.215,0.71 3.22,1.997 C3.224,3.283 3.819,3.415 3.819,3.415 C3.819,3.415 6.39,3.407 8.468,3.4 L5.751,17.506 C3.672,17.506 1.381,17.506 1.381,17.506 C1.381,17.506 0.49,17.634 0.49,18.867 C0.49,20.099 1.148,20.228 1.148,20.228 C1.148,20.228 8.913,20.228 9.165,20.228 C9.416,20.228 9.784,19.752 9.784,18.867 C9.784,17.98 9.397,17.506 9.049,17.506 C8.984,17.506 8.678,17.506 8.222,17.506 L8.62,15.893 L14.233,14.918 L15.629,17.9 C14.606,18.378 13.839,18.736 13.839,18.736 C13.839,18.736 13.086,19.228 13.608,20.344 C14.129,21.462 14.78,21.3 14.78,21.3 C14.78,21.3 21.817,18.021 22.046,17.912 C22.274,17.811 22.407,17.225 22.032,16.42 Z M9.229,13.427 L10.715,7.4 L13.368,13.068 L9.229,13.427 Z"></path>
                            <path d="M14.691,21.562 C14.453,21.562 13.848,21.455 13.382,20.454 C12.898,19.415 13.38,18.741 13.703,18.529 L15.298,17.782 L14.088,15.198 L8.824,16.111 L8.542,17.257 L9.049,17.257 C9.538,17.257 10.034,17.811 10.034,18.868 C10.034,19.877 9.593,20.48 9.165,20.48 L1.148,20.48 C1.065,20.466 0.24,20.291 0.24,18.868 C0.24,17.722 0.963,17.314 1.344,17.259 L5.544,17.257 L8.164,3.652 L3.79,3.666 L3.764,3.66 C3.683,3.642 2.973,3.443 2.969,1.998 C2.963,0.517 3.934,0.334 3.976,0.327 L10.941,0.302 C11.393,0.302 11.851,0.868 11.86,1.95 L18.315,16.375 L20.683,15.271 C20.772,15.23 20.869,15.209 20.971,15.209 C21.344,15.209 21.877,15.5 22.257,16.314 C22.684,17.228 22.538,17.96 22.151,18.142 L14.885,21.531 C14.826,21.55 14.772,21.562 14.691,21.562 Z M14.379,14.641 L15.962,18.024 L13.945,18.964 C13.921,18.985 13.424,19.361 13.835,20.242 C14.212,21.05 14.62,21.066 14.708,21.06 L21.94,17.689 C21.999,17.642 22.129,17.222 21.804,16.525 C21.506,15.884 21.075,15.64 20.894,15.722 L18.067,17.04 L11.36,2 C11.358,1.147 11.061,0.8 10.943,0.8 L4.02,0.822 C4.041,0.822 3.466,0.954 3.47,1.995 C3.472,2.899 3.783,3.121 3.865,3.164 L8.771,3.148 L5.958,17.755 L1.381,17.755 C1.35,17.765 0.74,17.896 0.74,18.866 C0.74,19.751 1.098,19.944 1.184,19.977 L9.164,19.977 C9.237,19.958 9.533,19.634 9.533,18.866 C9.533,18.09 9.212,17.755 9.048,17.755 L7.902,17.755 L8.416,15.673 L14.379,14.641 Z M8.903,13.707 L10.642,6.654 L13.746,13.288 L8.903,13.707 Z M10.789,8.147 L9.556,13.148 L12.992,12.851 L10.789,8.147 Z"></path>
                        </g>
                        <g transform="translate(70.000000, 12.000000)" fill="#F9A737">
                            <path d="M18.266,0.32 L2.066,0.627 C0.643,0.654 0.989,2.301 0.989,2.301 C0.989,2.301 1.73,7.781 1.898,8.518 C2.066,9.252 2.466,9.563 3.628,9.446 C4.789,9.332 4.48,8.247 4.48,8.247 L3.976,3.213 L9.049,3.044 L9.049,19.48 L6.603,19.48 C5.866,19.48 5.267,20.078 5.267,20.816 C5.267,21.552 5.866,22.152 6.603,22.152 L14.103,22.152 C14.841,22.152 15.439,21.552 15.439,20.816 C15.439,20.078 14.841,19.48 14.103,19.48 L11.985,19.48 L11.812,2.95 L16.755,2.785 C16.755,2.785 16.77,5.786 16.77,6.406 C16.77,7.025 17.481,7.286 18.153,7.282 C18.965,7.277 19.45,6.851 19.457,6.566 C19.463,6.283 19.547,4.243 19.547,2.126 C19.544,0.191 18.266,0.32 18.266,0.32 Z" id="路径"></path>
                            <path d="M14.103,22.398 L6.603,22.398 C5.728,22.398 5.017,21.687 5.017,20.812 C5.017,19.937 5.728,19.226 6.603,19.226 L8.799,19.226 L8.799,3.301 L4.251,3.453 L4.729,8.221 L4.729,8.221 C4.732,8.221 4.878,8.774 4.581,9.212 C4.393,9.49 4.08,9.652 3.653,9.695 C3.486,9.712 3.334,9.72 3.194,9.72 C2.298,9.72 1.838,9.375 1.654,8.573 C1.486,7.835 0.771,2.559 0.741,2.335 C0.736,2.315 0.554,1.417 1.015,0.838 C1.252,0.541 1.604,0.385 2.061,0.377 L18.314,0.068 C18.562,0.068 19.793,0.168 19.793,2.127 C19.793,3.877 19.734,5.557 19.712,6.275 L19.703,6.574 C19.691,7.032 19.064,7.527 18.15,7.533 C17.33,7.533 16.515,7.185 16.515,6.407 C16.515,5.899 16.506,3.785 16.503,3.045 L12.06,3.193 L12.228,19.227 L14.1,19.227 C14.975,19.227 15.685,19.938 15.685,20.813 C15.689,21.688 14.978,22.398 14.103,22.398 Z M6.603,19.727 C6.004,19.727 5.517,20.213 5.517,20.813 C5.517,21.413 6.004,21.899 6.603,21.899 L14.103,21.899 C14.7019967,21.899 15.189,21.412 15.189,20.813 C15.189,20.214 14.7019967,19.727 14.103,19.727 L11.738,19.727 L11.56,2.708 L17.005,2.527 L17.005,2.784 C17.005,2.784 17.02,5.786 17.02,6.406 C17.02,6.9 17.721,7.032 18.137,7.032 C18.87,7.027 19.201,6.657 19.204,6.56 L19.214,6.255 C19.236,5.54 19.294,3.866 19.294,2.124 C19.294,0.677 18.544,0.565 18.315,0.565 L2.071,0.874 C1.766,0.88 1.549,0.969 1.407,1.146 C1.094,1.539 1.232,2.241 1.234,2.248 C1.244,2.32 1.978,7.742 2.142,8.459 C2.254,8.951 2.455,9.218 3.194,9.218 C3.318,9.218 3.454,9.21 3.603,9.197 C3.875,9.17 4.065,9.08 4.167,8.93 C4.337,8.678 4.24,8.317 4.239,8.313 L3.7,2.97 L9.299,2.784 L9.299,19.726 L6.603,19.726 L6.603,19.727 Z" id="形状"></path>
                        </g>
                        <g transform="translate(102.000000, 10.000000)" fill="#F9A737">
                            <path d="M18.693,23.178 L17.159,23.378 L16.911,2.733 L18.898,2.733 C19.498,2.733 19.982,2.178 19.982,1.494 C19.982,0.81 19.498,0.255 18.898,0.255 L12.29,0.255 C11.689,0.255 11.205,0.81 11.205,1.494 C11.205,2.179 11.689,2.733 12.29,2.733 L14.344,2.733 L14.366,11.316 L6.855,12.784 L6.937,4.902 L9.086,4.902 C9.687,4.902 10.17,4.417 10.17,3.818 C10.17,3.219 9.687,2.734 9.086,2.734 L2.478,2.734 C1.878,2.734 1.394,3.22 1.394,3.818 C1.394,4.416 1.878,4.902 2.478,4.902 L4.426,4.902 L4.426,21.759 L2.283,21.784 C1.675,21.792 1.186,22.351 1.19584931,23.036 C1.204,23.721 1.704,24.269 2.311,24.264 L9.03,24.182 C9.637,24.175 10.127,23.616 10.119,22.93 C10.108,22.245 9.608,21.699 9.002,21.704 L6.757,21.73 L6.823,15.501 L14.371,14.044 L14.395,23.738 L12.026,24.048 C11.422,24.127 11.005,24.741 11.094,25.42 C11.182,26.1 11.743,26.585 12.346,26.506 L19.008,25.635 C19.612,25.557 20.029,24.944 19.942,24.264 C19.857,23.585 19.296,23.1 18.693,23.178 Z" id="路径"></path>
                            <path d="M12.223,26.764 L12.223,26.764 C11.538,26.764 10.951,26.202 10.85,25.452 C10.746,24.639 11.259,23.896 11.998,23.8 L14.146,23.52 L14.124,14.348 L7.073,15.707 L7.011,21.477 L8.998,21.455 C9.75,21.455 10.356,22.116 10.368,22.928 C10.377,23.749 9.776,24.424 9.032,24.435 L2.313,24.515 C1.561,24.515 0.955,23.855 0.943876791,23.041 C0.934,22.22 1.534,21.545 2.278,21.536 L4.174,21.515 L4.174,5.153 L2.477,5.153 C1.742,5.153 1.143,4.555 1.143,3.819 C1.143,3.083 1.742,2.485 2.477,2.485 L9.084,2.485 C9.818,2.485 10.418,3.084 10.418,3.819 C10.418,4.554 9.818,5.153 9.084,5.153 L7.182,5.153 L7.106,12.483 L14.112,11.112 L14.091,2.986 L12.286,2.986 C11.551,2.986 10.951,2.318 10.951,1.497 C10.951,0.676 11.551,0.008 12.286,0.008 L18.893,0.008 C19.628,0.008 20.227,0.676 20.227,1.497 C20.227,2.318 19.628,2.986 18.893,2.986 L17.16,2.986 L17.401,23.097 L18.657,22.933 C19.401,22.836 20.085,23.428 20.188,24.234 C20.241,24.625 20.151,25.008 19.942,25.318 C19.725,25.636 19.406,25.839 19.043,25.886 L12.381,26.757 C12.33,26.761 12.277,26.764 12.223,26.764 Z M14.623,13.742 L14.65,23.958 L12.062,24.296 C11.597,24.358 11.275,24.848 11.345,25.387 C11.409,25.887 11.786,26.264 12.222,26.264 L12.222,26.264 C12.253,26.264 12.284,26.261 12.32,26.257 L18.98,25.386 C19.202,25.358 19.398,25.233 19.533,25.032 C19.675,24.824 19.732,24.562 19.698,24.295 C19.628,23.758 19.2,23.361 18.724,23.424 L16.912,23.66 L16.658,2.481 L18.898,2.481 C19.359,2.481 19.732,2.037 19.732,1.492 C19.732,0.947 19.359,0.503 18.898,0.503 L12.29,0.503 C11.83,0.503 11.455,0.947 11.455,1.492 C11.455,2.037 11.83,2.481 12.29,2.481 L14.593,2.481 L14.617,11.52 L6.601,13.086 L6.691,4.649 L9.087,4.649 C9.547,4.649 9.921,4.275 9.921,3.815 C9.921,3.355 9.547,2.981 9.087,2.981 L2.479,2.981 C2.02,2.981 1.645,3.356 1.645,3.815 C1.645,4.274 2.02,4.649 2.479,4.649 L4.677,4.649 L4.677,22.003 L2.287,22.031 C1.816,22.037 1.439,22.486 1.446875,23.031 C1.454,23.57 1.838,24.01 2.301,24.01 L9.028,23.93 C9.5,23.924 9.878,23.475 9.871,22.93 C9.862,22.391 9.479,21.951 9.017,21.951 L6.506,21.98 L6.577,15.292 L14.623,13.742 Z" id="形状"></path>
                        </g>
                        <path d="M140.711,3.606 C130.161,3.606 121.609,12.158 121.609,22.707 C121.609,33.256 130.161,41.809 140.711,41.809 C151.26,41.809 159.813,33.256 159.813,22.707 C159.813,12.158 151.26,3.606 140.711,3.606 Z M150.564,23.236 C151.482,23.905 153.081,25.507 153.081,27.965 C153.081,31.243 149.646,32.327 149.646,32.327 L146.126,32.572 C145.125,32.572 143.117,32.605 141.169,31.816 C141.008,31.753 140.448,31.886 140.33,32.021 C136.2,36.743 132.319,36.302 132.319,36.302 C130.098,36.302 125.762,33.642 125.84,29.537 C125.918,25.432 128.346,24.811 130.41,24.735 C131.701,24.686 132.406,25.163 132.754,25.526 C132.963,25.745 133.156,25.958 133.205,25.391 C133.241,24.981 133.243,24.256 133.144,22.979 C132.914,19.932 132.113,19.208 132.113,19.208 C131.259,18.689 128.652,18.436 129.17,13.425 C129.75,7.815 134.594,7.229 134.594,7.229 C140.173,6.781 140.729,10.957 140.729,12.432 C140.729,12.909 141.213,12.917 141.213,12.917 L151.334,12.548 C153.272,12.548 156.643,14.691 156.643,18.331 C156.643,22.668 152.539,22.995 150.755,22.935 C150.217,22.922 150.257,23.014 150.564,23.236 Z" id="形状" fill="#F9A737"></path>
                    </g>
                    <path d="M161.684,16.34 C161.684,16.34 163.305,21.087 162.295,26.501 C161.285,31.915 159.813,26.66 159.813,26.66 L160.505,19.437 L161.684,16.34 Z" id="路径" fill="#28A5DA"></path>
                </g>
            </g>
        </g>
    </g>
</svg>